<svg width="306" height="221" viewBox="0 0 306 221" fill="none" xmlns="http://www.w3.org/2000/svg">
<g clip-path="url(#clip0_37_1200)">
<path d="M42.3092 101.957L31 90.5937L153.001 60L275 90.5937L263.794 101.957H42.3092Z" fill="#003E90"/>
<path d="M42.2892 101.957L34.7676 94.3992L152.979 64.5884L271.235 94.3903L263.774 101.957H42.2892Z" fill="white"/>
<path d="M57.2539 95.1844L153.001 71.0942L248.746 95.1844H57.2539Z" fill="#E53434"/>
<path d="M248.744 95.9739H57.254L57.0596 94.417L152.999 70.2734L248.938 94.4081L248.744 95.965V95.9739ZM63.6292 94.3947H242.368L152.999 71.9105L63.6292 94.3947Z" fill="#AD1A22"/>
<path d="M130.756 88.612H175.244V83.6855L152.86 78.085L130.756 83.6165V88.612Z" fill="#003E90"/>
<path d="M176.044 89.4014H129.963V83.0002L152.861 77.2729L176.044 83.0714V89.4014ZM131.556 87.8245H174.46V84.3014L152.87 78.9011L131.558 84.2391V87.8312L131.556 87.8245Z" fill="#101F69"/>
<path d="M263.742 101.957H42.2578V212.675H263.742V101.957Z" fill="#E53434"/>
<path d="M38.9482 221.002V215.869C38.9482 215.022 39.2861 214.21 39.8874 213.612C40.4888 213.013 41.3044 212.677 42.1549 212.677H263.843C264.264 212.677 264.681 212.759 265.07 212.919C265.46 213.08 265.813 213.315 266.111 213.611C266.409 213.907 266.646 214.259 266.807 214.647C266.968 215.034 267.051 215.449 267.051 215.869V221.002H38.9482Z" fill="#003E90"/>
<path d="M229.274 106.833H76.7243C76.4497 108.184 75.7802 109.425 74.8 110.4C73.8197 111.374 72.5722 112.039 71.2139 112.311V125.587C72.5728 125.859 73.8206 126.525 74.8006 127.501C75.7806 128.477 76.4491 129.719 76.7221 131.072H229.274C229.548 129.719 230.217 128.476 231.197 127.501C232.177 126.525 233.426 125.859 234.785 125.587V112.311C233.427 112.038 232.18 111.373 231.2 110.399C230.219 109.424 229.55 108.184 229.274 106.833Z" fill="white"/>
<path d="M229.924 131.868H76.0712L75.9438 131.232C75.7053 130.03 75.1134 128.926 74.2433 128.06C73.3731 127.194 72.264 126.605 71.0568 126.368L70.4199 126.241V111.67L71.0568 111.543C72.2641 111.306 73.3732 110.716 74.2436 109.85C75.1141 108.984 75.7066 107.881 75.946 106.679L76.0734 106.043H229.926L230.053 106.679C230.293 107.88 230.885 108.984 231.755 109.85C232.625 110.716 233.734 111.305 234.941 111.543L235.577 111.67V126.241L234.941 126.368C233.733 126.605 232.624 127.194 231.753 128.06C230.883 128.926 230.29 130.03 230.051 131.232L229.924 131.868ZM77.3449 130.289H228.65C229.015 129.025 229.697 127.874 230.631 126.944C231.565 126.015 232.721 125.336 233.991 124.973V112.936C232.721 112.574 231.565 111.896 230.631 110.967C229.697 110.037 229.016 108.886 228.652 107.622H77.3471C76.9828 108.886 76.3014 110.037 75.3671 110.966C74.4329 111.896 73.2764 112.574 72.0065 112.936V124.973C73.2758 125.336 74.4316 126.015 75.3654 126.945C76.2992 127.874 76.9803 129.025 77.3449 130.289Z" fill="#003E90"/>
<path d="M82.335 125.691V124.072L83.774 123.794V114.126L82.335 113.848V112.219H87.9393V113.848L86.489 114.126V123.621H90.3102L90.4398 121.926H92.5134V125.691H82.335Z" fill="#003E90"/>
<path d="M94.4307 113.848V112.219H100.037V113.848L98.587 114.126V123.794L100.037 124.072V125.691H94.4307V124.072L95.8809 123.794V114.126L94.4307 113.848Z" fill="#003E90"/>
<path d="M106.772 113.848L105.74 114.034L108.137 122.11L108.305 122.851H108.361L108.519 122.13L110.928 114.034L109.905 113.848V112.219H114.839V113.848L113.706 113.997L109.717 125.691H106.928L102.931 113.997L101.813 113.848V112.219H106.772V113.848Z" fill="#003E90"/>
<path d="M125.355 119.771H120.774V123.621H125.143L125.264 122.01H127.331V125.691H116.618V124.072L118.059 123.794V114.126L116.618 113.848V112.219H127.308V115.912H125.226L125.096 114.312H120.774V117.7H125.355V119.771Z" fill="#003E90"/>
<path d="M144.089 119.771H139.506V123.621H143.866L143.986 122.01H146.051V125.691H135.341V124.072L136.782 123.794V114.126L135.341 113.848V112.219H146.031V115.912H143.951L143.83 114.301H139.497V117.689H144.089V119.771Z" fill="#003E90"/>
<path d="M162.29 112.219V113.848L160.842 114.126V125.691H158.136L152.67 116.623L152.614 116.634V123.794L154.065 124.072V125.691H148.458V124.072L149.899 123.794V114.126L148.458 113.848V112.219H152.614L158.08 121.287H158.136V114.134L156.686 113.856V112.228H162.29V112.219Z" fill="#003E90"/>
<path d="M175.338 124.192C174.776 124.7 174.122 125.098 173.412 125.365C172.57 125.711 171.504 125.885 170.214 125.885C168.388 125.885 166.898 125.276 165.745 124.059C164.592 122.842 164.019 121.258 164.024 119.308V118.845C164.024 116.827 164.591 115.187 165.723 113.923C166.855 112.66 168.331 112.028 170.152 112.026C171.143 112.013 172.128 112.184 173.057 112.531C173.873 112.829 174.618 113.294 175.244 113.894V116.606H173.233L172.851 114.802C172.562 114.571 172.229 114.399 171.872 114.297C171.418 114.164 170.945 114.1 170.471 114.108C169.29 114.108 168.369 114.543 167.709 115.413C167.049 116.284 166.722 117.422 166.726 118.828V119.308C166.726 120.678 167.048 121.772 167.691 122.589C168.335 123.406 169.265 123.814 170.48 123.814C170.927 123.825 171.373 123.778 171.808 123.674C172.086 123.606 172.354 123.498 172.601 123.352V121.065L170.668 120.918V119.021H175.325L175.338 124.192Z" fill="#003E90"/>
<path d="M177.646 125.691V124.072L179.086 123.794V114.126L177.646 113.848V112.219H183.251V113.848L181.801 114.126V123.621H185.622L185.751 121.926H187.825V125.691H177.646Z" fill="#003E90"/>
<path d="M189.744 113.848V112.219H195.348V113.848L193.9 114.126V123.794L195.348 124.072V125.691H189.744V124.072L191.194 123.794V114.126L189.744 113.848Z" fill="#003E90"/>
<path d="M207.614 116.523H205.58L205.227 114.671C204.905 114.491 204.557 114.36 204.195 114.284C203.723 114.17 203.239 114.114 202.754 114.117C202.01 114.117 201.433 114.272 201.029 114.584C200.837 114.721 200.681 114.903 200.575 115.113C200.469 115.324 200.416 115.556 200.421 115.792C200.423 116.015 200.482 116.235 200.593 116.43C200.704 116.624 200.863 116.787 201.055 116.904C201.48 117.2 202.214 117.511 203.256 117.836C204.746 118.249 205.878 118.795 206.651 119.473C207.031 119.804 207.332 120.216 207.532 120.677C207.733 121.139 207.828 121.639 207.81 122.142C207.828 122.675 207.712 123.204 207.471 123.68C207.231 124.157 206.874 124.566 206.434 124.871C205.518 125.538 204.31 125.871 202.81 125.869C201.818 125.883 200.832 125.711 199.905 125.362C199.091 125.055 198.354 124.576 197.746 123.957V121.143H199.846L200.135 123.058C200.468 123.311 200.848 123.497 201.252 123.607C201.759 123.76 202.287 123.835 202.816 123.83C203.56 123.83 204.123 123.679 204.51 123.385C204.698 123.244 204.849 123.061 204.95 122.85C205.052 122.639 205.101 122.407 205.093 122.173C205.102 121.937 205.057 121.701 204.961 121.485C204.865 121.269 204.721 121.077 204.539 120.925C204.17 120.612 203.524 120.316 202.602 120.035C200.997 119.575 199.782 119.023 198.957 118.389C198.555 118.086 198.233 117.69 198.017 117.236C197.802 116.782 197.701 116.282 197.721 115.78C197.715 115.254 197.839 114.734 198.083 114.267C198.326 113.8 198.681 113.399 199.116 113.1C200.045 112.408 201.214 112.052 202.622 112.033C203.59 112.02 204.553 112.181 205.464 112.506C206.258 112.783 206.99 113.21 207.621 113.763L207.614 116.523Z" fill="#003E90"/>
<path d="M209.831 113.848V112.219H215.438V113.848L213.985 114.126V118.013H219.509V114.126L218.059 113.848V112.219H223.663V113.848L222.213 114.126V123.794L223.663 124.072V125.691H218.054V124.072L219.505 123.794V120.095H213.981V123.794L215.433 124.072V125.691H209.831V124.072L211.272 123.794V114.126L209.831 113.848Z" fill="#003E90"/>
<path d="M103.423 139.695H68.293V190.348H103.423V139.695Z" fill="white"/>
<path d="M104.214 191.138H67.5V138.905H104.214V191.138ZM69.0865 189.559H102.628V140.487H69.0865V189.559Z" fill="#AD1A22"/>
<path d="M83.9368 143.48H72.0176V155.344H83.9368V143.48Z" fill="#003E90"/>
<path d="M84.7284 156.127H71.2227V142.684H84.7284V156.127ZM72.8092 154.548H83.1441V144.263H72.807V154.548H72.8092Z" fill="#101F69"/>
<path d="M99.6595 143.48H87.7402V155.344H99.6595V143.48Z" fill="#003E90"/>
<path d="M100.451 156.127H86.9453V142.684H100.451V156.127ZM88.5319 154.548H98.8645V144.263H88.5319V154.548Z" fill="#101F69"/>
<path d="M83.9368 159.114H72.0176V170.976H83.9368V159.114Z" fill="#003E90"/>
<path d="M84.7284 171.768H71.2227V158.327H84.7284V171.768ZM72.8092 170.189H83.1441V159.908H72.807V170.191L72.8092 170.189Z" fill="#101F69"/>
<path d="M99.6595 159.114H87.7402V170.976H99.6595V159.114Z" fill="#003E90"/>
<path d="M100.451 171.768H86.9453V158.327H100.451V171.768ZM88.5319 170.189H98.8645V159.908H88.5319V170.191V170.189Z" fill="#101F69"/>
<path d="M83.9368 174.748H72.0176V186.607H83.9368V174.748Z" fill="#003E90"/>
<path d="M84.7284 187.399H71.2227V173.961H84.7284V187.399ZM72.807 185.82H83.1419V175.54H72.807V185.82Z" fill="#101F69"/>
<path d="M99.6595 174.748H87.7402V186.607H99.6595V174.748Z" fill="#003E90"/>
<path d="M100.451 187.399H86.9453V173.961H100.451V187.399ZM88.5319 185.82H98.8645V175.54H88.5319V185.82Z" fill="#101F69"/>
<path d="M107.966 197.032H63.748V189.559H107.966V197.032ZM65.3368 195.453H106.379V191.138H65.3368V195.453Z" fill="#AD1A22"/>
<path d="M237.705 139.695H202.577V190.348H237.705V139.695Z" fill="white"/>
<path d="M238.496 191.138H201.782V138.905H238.496V191.138ZM203.369 189.559H236.91V140.487H203.369V189.559Z" fill="#AD1A22"/>
<path d="M218.221 143.48H206.3V155.344H218.221V143.48Z" fill="#003E90"/>
<path d="M219.013 156.127H205.505V142.684H219.013V156.127ZM207.091 154.548H217.426V144.263H207.091V154.548Z" fill="#101F69"/>
<path d="M233.942 143.48H222.022V155.344H233.942V143.48Z" fill="#003E90"/>
<path d="M234.733 156.127H221.228V142.684H234.733V156.127ZM222.814 154.548H233.147V144.263H222.814V154.548Z" fill="#101F69"/>
<path d="M218.221 159.114H206.3V170.976H218.221V159.114Z" fill="#003E90"/>
<path d="M219.013 171.768H205.505V158.327H219.013V171.768ZM207.091 170.189H217.426V159.908H207.091V170.191V170.189Z" fill="#101F69"/>
<path d="M233.942 159.114H222.022V170.976H233.942V159.114Z" fill="#003E90"/>
<path d="M234.733 171.768H221.228V158.327H234.733V171.768ZM222.814 170.189H233.147V159.908H222.814V170.191V170.189Z" fill="#101F69"/>
<path d="M218.221 174.748H206.3V186.607H218.221V174.748Z" fill="#003E90"/>
<path d="M219.013 187.399H205.505V173.961H219.013V187.399ZM207.091 185.82H217.426V175.54H207.091V185.82Z" fill="#101F69"/>
<path d="M233.942 174.748H222.022V186.607H233.942V174.748Z" fill="#003E90"/>
<path d="M234.733 187.399H221.228V173.961H234.733V187.399ZM222.814 185.82H233.147V175.54H222.814V185.82Z" fill="#101F69"/>
<path d="M242.25 197.032H198.032V189.559H242.25V197.032ZM199.619 195.453H240.663V191.138H199.619V195.453Z" fill="#AD1A22"/>
<path d="M130.787 212.675V139.695H175.215V212.675" fill="white"/>
<path d="M176.009 212.675H174.42V140.484H131.581V212.675H129.994V138.905H176.009V212.675Z" fill="#AD1A22"/>
<path d="M171.546 143.576H134.608V211.89H171.546V143.576Z" fill="#003E90"/>
<path d="M172.339 212.682H133.811V142.782H172.335V212.675L172.339 212.682ZM135.402 211.102H170.753V144.377H135.402V211.102Z" fill="#101F69"/>
<path d="M263.742 103.523H42.2578V101.944H263.742V103.523Z" fill="#AD1A22"/>
<path d="M166.346 188.462H139.261V207.272H166.346V188.462Z" fill="#003E90"/>
<path d="M167.14 208.062H138.468V187.675H167.14V208.062ZM140.054 206.483H165.553V189.254H140.054V206.483Z" fill="#101F69"/>
<path d="M162.958 191.836H142.652V203.898H162.958V191.836Z" fill="#003E90"/>
<path d="M163.754 204.688H141.855V191.047H163.754V204.686V204.688ZM143.449 203.109H162.168V192.628H143.449V203.109Z" fill="#101F69"/>
<path d="M166.346 148.196H139.261V183.845H166.346V148.196Z" fill="#003E90"/>
<path d="M167.14 184.634H138.468V147.406H167.14V184.634ZM140.054 183.055H165.553V148.985H140.054V183.055Z" fill="#101F69"/>
<path d="M162.958 151.57H142.652V180.471H162.958V151.57Z" fill="#003E90"/>
<path d="M163.754 181.26H141.855V150.789H163.754V181.26ZM143.449 179.681H162.168V152.359H143.449V179.681Z" fill="#101F69"/>
<path d="M53.0504 212.675H51.4639V102.733H53.0504V212.675Z" fill="#AD1A22"/>
<path d="M254.536 212.675H252.949V102.733H254.536V212.675Z" fill="#AD1A22"/>
<path d="M168.898 174.461H159.823V177.62H168.898V174.461Z" fill="white"/>
<path d="M169.689 178.409H159.027V173.671H169.689V178.409ZM160.614 176.83H168.102V175.255H160.625V176.834L160.614 176.83Z" fill="#101F69"/>
</g>
<defs>
<clipPath id="clip0_37_1200">
<rect width="244" height="161" fill="white" transform="translate(31 60)"/>
</clipPath>
</defs>
</svg>
