<svg width="306" height="221" viewBox="0 0 306 221" fill="none" xmlns="http://www.w3.org/2000/svg">
<g clip-path="url(#clip0_37_1094)">
<path d="M29 146.496V114.905C29.0045 108.035 31.7436 101.448 36.6151 96.5917C41.4867 91.7353 48.092 89.0073 54.9791 89.0073H238.64C252.985 89.0073 261.271 100.735 266.363 114.923C271.151 128.263 271.869 134.146 271.869 140.545V146.504L29 146.496Z" fill="#E53434"/>
<path d="M251.65 205.136H271.869V146.496H29V211.906H251.65V205.136Z" fill="#E53434"/>
<path d="M112.786 211.914V205.139C112.786 200.473 110.928 195.999 107.621 192.7C104.313 189.401 99.8281 187.547 95.1511 187.547C90.4742 187.547 85.9887 189.401 82.6816 192.7C79.3745 195.999 77.5166 200.473 77.5166 205.139V211.914H112.786Z" fill="#101F69"/>
<path d="M251.651 205.136H271.869V201.64C271.458 201.625 271.049 201.583 270.644 201.513C270.116 201.352 269.631 201.073 269.227 200.697C268.823 200.321 268.51 199.858 268.313 199.343C266.943 195.416 264.222 192.099 260.634 189.983C257.045 187.866 252.821 187.086 248.711 187.781C244.601 188.476 240.87 190.601 238.182 193.779C235.493 196.957 234.02 200.982 234.023 205.141V211.916H251.658L251.651 205.136Z" fill="#101F69"/>
<path d="M277.003 205.139V181.947C277.003 180.739 276.522 179.58 275.665 178.725C274.808 177.87 273.647 177.389 272.435 177.388H271.869V205.139H277.003Z" fill="#AD1A22"/>
<path d="M111.052 205.139C111.052 208.276 110.119 211.343 108.372 213.952C106.624 216.561 104.141 218.594 101.235 219.795C98.3289 220.996 95.1314 221.31 92.0465 220.698C88.9616 220.085 86.128 218.575 83.904 216.356C81.6799 214.137 80.1653 211.311 79.5517 208.233C78.9381 205.156 79.253 201.966 80.4566 199.068C81.6603 196.169 83.6986 193.691 86.3138 191.948C88.929 190.205 92.0037 189.275 95.149 189.275C99.3667 189.275 103.412 190.946 106.394 193.921C109.376 196.896 111.052 200.931 111.052 205.139Z" fill="#003E90"/>
<path d="M117.244 211.914H115.505V205.139C115.505 202.472 114.978 199.832 113.956 197.369C112.933 194.906 111.434 192.667 109.544 190.782C107.654 188.897 105.41 187.401 102.941 186.381C100.471 185.361 97.8245 184.835 95.1517 184.835C92.4789 184.835 89.8322 185.361 87.3629 186.381C84.8935 187.401 82.6498 188.897 80.7598 190.782C78.8699 192.667 77.3707 194.906 76.3478 197.369C75.325 199.832 74.7985 202.472 74.7985 205.139V211.902H73.0596V205.134C73.0596 199.289 75.3871 193.684 79.5302 189.551C83.6733 185.418 89.2925 183.096 95.1517 183.096C101.011 183.096 106.63 185.418 110.773 189.551C114.916 193.684 117.244 199.289 117.244 205.134V211.909V211.914Z" fill="#AD1A22"/>
<path d="M231.297 211.901H229.561V205.134C229.53 202.22 230.079 199.33 231.175 196.629C232.271 193.929 233.894 191.472 235.948 189.401C238.003 187.33 240.448 185.686 243.144 184.564C245.839 183.441 248.731 182.864 251.652 182.864C254.572 182.864 257.464 183.441 260.16 184.564C262.855 185.686 265.301 187.33 267.355 189.401C269.41 191.472 271.032 193.929 272.128 196.629C273.225 199.33 273.773 202.22 273.743 205.134H272.004C272.004 199.749 269.859 194.585 266.042 190.777C262.225 186.97 257.048 184.83 251.65 184.83C246.252 184.83 241.076 186.97 237.259 190.777C233.442 194.585 231.297 199.749 231.297 205.134V211.901Z" fill="#AD1A22"/>
<path d="M104.184 205.139C104.184 206.921 103.654 208.664 102.661 210.146C101.668 211.628 100.257 212.783 98.6062 213.466C96.9552 214.148 95.1385 214.326 93.3858 213.978C91.6332 213.631 90.0232 212.772 88.7596 211.512C87.496 210.251 86.6355 208.645 86.2869 206.897C85.9383 205.149 86.1172 203.336 86.8011 201.689C87.4849 200.043 88.643 198.635 90.1288 197.644C91.6147 196.654 93.3615 196.125 95.1485 196.125C97.5446 196.126 99.8424 197.076 101.537 198.766C103.231 200.456 104.183 202.748 104.184 205.139Z" fill="white"/>
<path d="M98.7348 205.139C98.7348 205.846 98.5246 206.538 98.1306 207.126C97.7366 207.714 97.1765 208.173 96.5213 208.443C95.8661 208.714 95.1452 208.785 94.4496 208.647C93.7541 208.509 93.1152 208.168 92.6137 207.668C92.1122 207.168 91.7707 206.53 91.6324 205.836C91.494 205.143 91.565 204.423 91.8364 203.77C92.1078 203.116 92.5674 202.558 93.1571 202.165C93.7467 201.772 94.44 201.562 95.1492 201.562C96.1001 201.562 97.0122 201.939 97.6846 202.609C98.3571 203.28 98.7348 204.19 98.7348 205.139Z" fill="#003E90"/>
<path d="M267.553 205.139C267.553 208.276 266.62 211.343 264.873 213.952C263.125 216.561 260.642 218.594 257.736 219.795C254.83 220.996 251.632 221.31 248.547 220.698C245.463 220.085 242.629 218.575 240.405 216.356C238.181 214.137 236.666 211.311 236.053 208.233C235.439 205.156 235.754 201.966 236.958 199.068C238.161 196.169 240.2 193.691 242.815 191.948C245.43 190.205 248.505 189.275 251.65 189.275C255.868 189.275 259.913 190.946 262.895 193.921C265.877 196.896 267.553 200.931 267.553 205.139Z" fill="#003E90"/>
<path d="M260.686 205.139C260.686 206.921 260.156 208.664 259.163 210.146C258.17 211.628 256.759 212.783 255.108 213.466C253.457 214.148 251.64 214.326 249.888 213.978C248.135 213.631 246.525 212.772 245.262 211.512C243.998 210.251 243.137 208.645 242.789 206.897C242.44 205.149 242.619 203.336 243.303 201.689C243.987 200.043 245.145 198.635 246.631 197.644C248.117 196.654 249.863 196.125 251.65 196.125C254.047 196.125 256.345 197.075 258.039 198.765C259.734 200.456 260.686 202.748 260.686 205.139Z" fill="white"/>
<path d="M257.524 205.139C257.524 206.298 257.179 207.432 256.533 208.396C255.887 209.361 254.969 210.112 253.895 210.556C252.821 211 251.639 211.116 250.499 210.89C249.359 210.663 248.311 210.105 247.489 209.285C246.667 208.465 246.107 207.42 245.881 206.283C245.654 205.145 245.77 203.966 246.215 202.895C246.66 201.823 247.413 200.907 248.38 200.263C249.347 199.619 250.483 199.275 251.646 199.275C253.205 199.275 254.7 199.893 255.802 200.992C256.905 202.092 257.524 203.583 257.524 205.139Z" fill="#003E90"/>
<path d="M253.771 205.139C253.771 205.557 253.646 205.966 253.413 206.313C253.179 206.661 252.848 206.932 252.46 207.092C252.073 207.251 251.646 207.293 251.235 207.211C250.824 207.129 250.446 206.927 250.15 206.631C249.853 206.335 249.652 205.958 249.57 205.548C249.488 205.138 249.53 204.712 249.691 204.326C249.852 203.939 250.123 203.609 250.472 203.377C250.821 203.144 251.231 203.02 251.65 203.02C251.929 203.02 252.205 203.075 252.463 203.182C252.72 203.288 252.954 203.444 253.151 203.641C253.348 203.838 253.504 204.071 253.611 204.328C253.717 204.585 253.772 204.861 253.771 205.139Z" fill="white"/>
<path d="M111.421 170.156C111.421 171.05 111.066 171.907 110.432 172.539C109.799 173.171 108.94 173.526 108.044 173.526H82.251C81.8076 173.526 81.3685 173.439 80.9589 173.269C80.5493 173.1 80.1771 172.852 79.8636 172.539C79.5502 172.226 79.3017 171.854 79.1322 171.446C78.9627 171.037 78.8757 170.599 78.876 170.156V160.418C78.8757 159.975 78.9627 159.537 79.1322 159.129C79.3017 158.72 79.5502 158.348 79.8636 158.036C80.1771 157.723 80.5493 157.474 80.9589 157.305C81.3685 157.136 81.8076 157.049 82.251 157.049H108.044C108.94 157.049 109.799 157.404 110.432 158.035C111.066 158.667 111.421 159.524 111.421 160.418V170.156Z" fill="#003E90"/>
<path d="M108.044 174.393H82.2514C81.1256 174.392 80.0464 173.945 79.2506 173.151C78.4548 172.356 78.0075 171.28 78.0068 170.157V160.418C78.0075 159.295 78.4548 158.218 79.2506 157.424C80.0464 156.63 81.1256 156.183 82.2514 156.181H108.044C109.17 156.183 110.25 156.629 111.046 157.424C111.842 158.218 112.29 159.295 112.291 160.418V170.157C112.291 171.28 111.843 172.357 111.047 173.152C110.25 173.946 109.17 174.393 108.044 174.393ZM82.2514 157.906C81.5866 157.907 80.9493 158.171 80.4795 158.64C80.0097 159.109 79.7458 159.745 79.7458 160.408V170.147C79.7458 170.81 80.0097 171.446 80.4795 171.915C80.9493 172.384 81.5866 172.648 82.2514 172.649H108.044C108.709 172.648 109.347 172.384 109.817 171.915C110.287 171.446 110.552 170.81 110.552 170.147V160.408C110.552 159.745 110.287 159.109 109.817 158.64C109.347 158.171 108.709 157.907 108.044 157.906H82.2514Z" fill="#101F69"/>
<path d="M147.163 157.049H121.373C119.507 157.049 117.995 158.557 117.995 160.418V170.159C117.995 172.02 119.507 173.528 121.373 173.528H147.163C149.028 173.528 150.541 172.02 150.541 170.159V160.418C150.541 158.557 149.028 157.049 147.163 157.049Z" fill="#003E90"/>
<path d="M147.166 174.393H121.376C120.25 174.393 119.17 173.946 118.374 173.152C117.577 172.357 117.13 171.28 117.129 170.157V160.418C117.13 159.295 117.578 158.218 118.374 157.424C119.17 156.629 120.25 156.183 121.376 156.181H147.166C148.292 156.183 149.372 156.629 150.168 157.424C150.964 158.218 151.412 159.295 151.413 160.418V170.157C151.413 171.28 150.965 172.357 150.169 173.152C149.372 173.946 148.293 174.393 147.166 174.393ZM121.376 157.906C120.711 157.907 120.073 158.171 119.603 158.64C119.133 159.109 118.869 159.745 118.868 160.408V170.147C118.869 170.81 119.133 171.446 119.603 171.915C120.073 172.384 120.711 172.648 121.376 172.649H147.166C147.831 172.648 148.469 172.384 148.939 171.915C149.409 171.446 149.674 170.81 149.674 170.147V160.408C149.674 159.745 149.409 159.109 148.939 158.64C148.469 158.171 147.831 157.907 147.166 157.906H121.376Z" fill="#101F69"/>
<path d="M186.287 157.049H160.497C158.631 157.049 157.119 158.557 157.119 160.418V170.159C157.119 172.02 158.631 173.528 160.497 173.528H186.287C188.152 173.528 189.665 172.02 189.665 170.159V160.418C189.665 158.557 188.152 157.049 186.287 157.049Z" fill="#003E90"/>
<path d="M186.29 174.393H160.497C159.371 174.393 158.291 173.946 157.495 173.152C156.698 172.357 156.251 171.28 156.25 170.157V160.418C156.251 159.295 156.699 158.218 157.495 157.424C158.292 156.629 159.371 156.183 160.497 156.181H186.29C187.416 156.183 188.495 156.629 189.292 157.424C190.088 158.218 190.536 159.295 190.537 160.418V170.157C190.536 171.28 190.089 172.357 189.292 173.152C188.496 173.946 187.416 174.393 186.29 174.393ZM160.497 157.906C159.832 157.907 159.194 158.171 158.724 158.64C158.254 159.109 157.99 159.745 157.989 160.408V170.147C157.99 170.81 158.254 171.446 158.724 171.915C159.194 172.384 159.832 172.648 160.497 172.649H186.29C186.955 172.648 187.592 172.384 188.063 171.915C188.533 171.446 188.797 170.81 188.798 170.147V160.408C188.797 159.745 188.533 159.109 188.063 158.64C187.592 158.171 186.955 157.907 186.29 157.906H160.497Z" fill="#101F69"/>
<path d="M225.409 157.049H199.619C197.753 157.049 196.241 158.557 196.241 160.418V170.159C196.241 172.02 197.753 173.528 199.619 173.528H225.409C227.275 173.528 228.787 172.02 228.787 170.159V160.418C228.787 158.557 227.275 157.049 225.409 157.049Z" fill="#003E90"/>
<path d="M225.411 174.393H199.621C198.495 174.393 197.415 173.946 196.619 173.152C195.822 172.357 195.375 171.28 195.374 170.157V160.418C195.375 159.295 195.822 158.217 196.619 157.423C197.415 156.629 198.495 156.182 199.621 156.181H225.411C226.537 156.183 227.617 156.629 228.413 157.424C229.209 158.218 229.657 159.295 229.658 160.418V170.157C229.658 171.28 229.21 172.357 228.414 173.152C227.618 173.946 226.538 174.393 225.411 174.393ZM199.621 157.906C198.956 157.907 198.318 158.171 197.848 158.64C197.378 159.109 197.114 159.745 197.113 160.408V170.147C197.114 170.81 197.378 171.446 197.848 171.915C198.318 172.384 198.956 172.648 199.621 172.649H225.411C226.076 172.648 226.714 172.384 227.184 171.915C227.654 171.446 227.919 170.81 227.919 170.147V160.408C227.919 159.745 227.654 159.109 227.184 158.64C226.714 158.171 226.076 157.907 225.411 157.906H199.621Z" fill="#101F69"/>
<path d="M249.294 151.844H238.743C238.299 151.844 237.86 151.931 237.45 152.1C237.04 152.27 236.667 152.518 236.354 152.831C236.04 153.144 235.791 153.515 235.622 153.924C235.452 154.333 235.365 154.771 235.365 155.214V170.156C235.365 170.599 235.452 171.037 235.622 171.446C235.791 171.855 236.04 172.227 236.354 172.54C236.667 172.853 237.04 173.101 237.45 173.27C237.86 173.439 238.299 173.526 238.743 173.526H249.294V151.844Z" fill="#003E90"/>
<path d="M250.164 174.393H238.743C237.617 174.393 236.537 173.946 235.741 173.152C234.944 172.357 234.497 171.28 234.496 170.157V155.219C234.497 154.096 234.945 153.019 235.741 152.224C236.538 151.43 237.617 150.983 238.743 150.982H250.164V174.398V174.393ZM238.743 152.712C238.078 152.713 237.441 152.976 236.97 153.446C236.5 153.915 236.236 154.551 236.235 155.214V170.157C236.236 170.82 236.5 171.456 236.97 171.925C237.441 172.394 238.078 172.658 238.743 172.658H248.425V152.712H238.743Z" fill="#101F69"/>
<path d="M264.534 151.844H253.982V173.526H264.534C265.429 173.526 266.289 173.171 266.922 172.539C267.555 171.907 267.911 171.05 267.911 170.156V155.219C267.912 154.776 267.825 154.337 267.656 153.928C267.486 153.518 267.237 153.146 266.924 152.833C266.61 152.52 266.237 152.271 265.827 152.101C265.417 151.932 264.978 151.844 264.534 151.844Z" fill="#003E90"/>
<path d="M264.533 174.393H253.112V150.977H264.533C265.659 150.979 266.739 151.425 267.535 152.22C268.331 153.014 268.779 154.091 268.78 155.214V170.157C268.779 171.28 268.332 172.357 267.535 173.152C266.739 173.946 265.659 174.393 264.533 174.393ZM254.851 172.658H264.533C265.198 172.658 265.836 172.394 266.306 171.925C266.776 171.456 267.04 170.82 267.041 170.157V155.219C267.04 154.555 266.776 153.919 266.306 153.45C265.836 152.981 265.198 152.718 264.533 152.717H254.851V172.663V172.658Z" fill="#101F69"/>
<path d="M230.428 209.146H116.372V207.411H230.428V209.146Z" fill="#AD1A22"/>
<path d="M235.366 191.799H111.422V190.064H235.366V191.799Z" fill="#AD1A22"/>
<path d="M268.773 122.084H29V120.349H268.234L268.773 122.084Z" fill="#AD1A22"/>
<path d="M73.9264 209.146H29V207.411H73.9264V209.146Z" fill="#AD1A22"/>
<path d="M79.4274 191.799H29V190.064H79.4274V191.799Z" fill="#AD1A22"/>
<path d="M115.566 190.931H113.827V97.8005H115.566V190.931Z" fill="#AD1A22"/>
<path d="M76.4294 190.931H74.6904V97.8005H76.4294V190.931Z" fill="#AD1A22"/>
<path d="M37.3151 190.934H35.5762V110.508C35.5762 102.123 43.1149 96.9331 50.0977 96.9331H256.279L257.749 98.6678H50.0977C43.9501 98.6678 37.3151 103.195 37.3151 110.508V190.934Z" fill="#AD1A22"/>
<path d="M154.736 208.278H152.997V97.8005H154.736V208.278Z" fill="#AD1A22"/>
<path d="M193.907 208.278H192.168V97.8005H193.907V208.278Z" fill="#AD1A22"/>
<path d="M233.078 190.931H231.339V97.8005H233.078V190.931Z" fill="#AD1A22"/>
<path d="M271.869 142.507H29V146.738H271.869V142.507Z" fill="white"/>
<path d="M111.421 114.38C111.421 115.274 111.065 116.13 110.431 116.762C109.798 117.394 108.94 117.749 108.044 117.749H82.251C81.3557 117.749 80.4972 117.393 79.8644 116.762C79.2315 116.13 78.876 115.273 78.876 114.38V104.644C78.876 103.751 79.2315 102.894 79.8644 102.262C80.4972 101.631 81.3557 101.275 82.251 101.275H108.044C108.94 101.275 109.798 101.63 110.431 102.262C111.065 102.894 111.421 103.751 111.421 104.644V114.38Z" fill="#003E90"/>
<path d="M108.044 118.617H82.2514C81.1256 118.616 80.0464 118.169 79.2506 117.374C78.4548 116.58 78.0075 115.503 78.0068 114.38V104.644C78.0075 103.521 78.4548 102.444 79.2506 101.65C80.0464 100.856 81.1256 100.409 82.2514 100.407H108.044C109.17 100.409 110.25 100.856 111.046 101.65C111.842 102.444 112.29 103.521 112.291 104.644V114.385C112.29 115.508 111.842 116.585 111.046 117.379C110.25 118.174 109.17 118.62 108.044 118.622V118.617ZM82.2514 102.137C81.9218 102.138 81.5955 102.203 81.2912 102.329C80.9869 102.455 80.7105 102.64 80.4778 102.873C80.2451 103.105 80.0607 103.382 79.9351 103.686C79.8095 103.99 79.7452 104.315 79.7458 104.644V114.385C79.7465 115.048 80.0106 115.684 80.4802 116.153C80.9499 116.622 81.5868 116.886 82.2514 116.887H108.044C108.709 116.886 109.347 116.623 109.817 116.154C110.287 115.685 110.552 115.049 110.552 114.385V104.644C110.552 103.981 110.287 103.345 109.817 102.876C109.347 102.407 108.709 102.143 108.044 102.142L82.2514 102.137Z" fill="#101F69"/>
<path d="M72.2779 114.38C72.2772 115.274 71.9212 116.13 71.2879 116.762C70.6547 117.394 69.796 117.749 68.9004 117.749H43.1099C42.2141 117.749 41.3551 117.394 40.7217 116.763C40.0883 116.131 39.7324 115.274 39.7324 114.38V111.578C39.7324 105.438 44.4423 101.27 50.0657 101.27H68.9004C69.3442 101.27 69.7837 101.358 70.1937 101.527C70.6036 101.697 70.976 101.946 71.2896 102.259C71.6033 102.572 71.852 102.944 72.0215 103.353C72.1911 103.763 72.2782 104.201 72.2779 104.644V114.38Z" fill="#003E90"/>
<path d="M68.9007 118.617H43.1102C41.9849 118.615 40.9063 118.168 40.1111 117.374C39.3158 116.579 38.8688 115.503 38.8682 114.38V111.578C38.8682 105.206 43.6834 100.403 50.071 100.403H68.9056C70.0333 100.403 71.1148 100.849 71.9121 101.645C72.7095 102.44 73.1575 103.519 73.1575 104.644V114.385C73.1562 115.508 72.7083 116.585 71.9122 117.379C71.116 118.174 70.0365 118.62 68.9105 118.622L68.9007 118.617ZM50.0661 102.137C44.6777 102.137 40.6022 106.195 40.6022 111.578V114.38C40.6029 115.044 40.8673 115.68 41.3375 116.149C41.8077 116.618 42.4453 116.882 43.1102 116.882H68.9007C69.5657 116.882 70.2032 116.618 70.6734 116.149C71.1436 115.68 71.4081 115.044 71.4087 114.38V104.644C71.4081 103.981 71.1436 103.345 70.6734 102.876C70.2032 102.407 69.5657 102.143 68.9007 102.142L50.0661 102.137Z" fill="#101F69"/>
<path d="M147.163 101.27H121.373C119.507 101.27 117.995 102.778 117.995 104.639V114.38C117.995 116.241 119.507 117.749 121.373 117.749H147.163C149.028 117.749 150.541 116.241 150.541 114.38V104.639C150.541 102.778 149.028 101.27 147.163 101.27Z" fill="#003E90"/>
<path d="M147.166 118.617H121.376C120.25 118.616 119.17 118.169 118.374 117.375C117.578 116.58 117.13 115.504 117.129 114.38V104.644C117.13 103.521 117.578 102.444 118.374 101.65C119.17 100.856 120.25 100.409 121.376 100.407H147.166C148.292 100.409 149.372 100.856 150.168 101.65C150.964 102.444 151.412 103.521 151.413 104.644V114.385C151.412 115.508 150.964 116.585 150.168 117.379C149.372 118.174 148.292 118.62 147.166 118.622V118.617ZM121.376 102.137C121.046 102.138 120.72 102.203 120.415 102.329C120.111 102.455 119.834 102.64 119.601 102.873C119.369 103.105 119.184 103.382 119.058 103.685C118.932 103.989 118.868 104.315 118.868 104.644V114.385C118.869 115.049 119.133 115.685 119.603 116.154C120.073 116.623 120.711 116.886 121.376 116.887H147.166C147.831 116.886 148.469 116.623 148.939 116.154C149.409 115.685 149.674 115.049 149.674 114.385V104.644C149.674 103.981 149.409 103.345 148.939 102.876C148.469 102.407 147.831 102.143 147.166 102.142L121.376 102.137Z" fill="#101F69"/>
<path d="M186.287 101.27H160.497C158.631 101.27 157.119 102.778 157.119 104.639V114.38C157.119 116.241 158.631 117.749 160.497 117.749H186.287C188.152 117.749 189.665 116.241 189.665 114.38V104.639C189.665 102.778 188.152 101.27 186.287 101.27Z" fill="#003E90"/>
<path d="M186.29 118.617H160.497C159.371 118.616 158.292 118.169 157.495 117.375C156.699 116.58 156.251 115.504 156.25 114.38V104.644C156.251 103.521 156.699 102.444 157.495 101.65C158.292 100.856 159.371 100.409 160.497 100.407H186.29C187.416 100.409 188.495 100.856 189.292 101.65C190.088 102.444 190.536 103.521 190.537 104.644V114.385C190.536 115.508 190.088 116.585 189.292 117.379C188.495 118.174 187.416 118.62 186.29 118.622V118.617ZM160.497 102.137C159.832 102.138 159.194 102.402 158.724 102.871C158.254 103.34 157.99 103.976 157.989 104.639V114.38C157.99 115.043 158.255 115.679 158.725 116.148C159.195 116.617 159.832 116.881 160.497 116.882H186.29C186.955 116.881 187.592 116.617 188.062 116.148C188.532 115.679 188.797 115.043 188.798 114.38V104.644C188.797 103.981 188.533 103.345 188.063 102.876C187.592 102.407 186.955 102.143 186.29 102.142L160.497 102.137Z" fill="#101F69"/>
<path d="M225.409 101.27H199.619C197.753 101.27 196.241 102.778 196.241 104.639V114.38C196.241 116.241 197.753 117.749 199.619 117.749H225.409C227.275 117.749 228.787 116.241 228.787 114.38V104.639C228.787 102.778 227.275 101.27 225.409 101.27Z" fill="#003E90"/>
<path d="M225.411 118.617H199.621C198.495 118.616 197.415 118.17 196.619 117.375C195.822 116.581 195.375 115.504 195.374 114.38V104.644C195.375 103.521 195.822 102.443 196.619 101.649C197.415 100.855 198.495 100.408 199.621 100.407H225.411C226.538 100.407 227.619 100.854 228.416 101.648C229.214 102.442 229.662 103.52 229.663 104.644V114.385C229.662 115.508 229.214 116.585 228.418 117.379C227.622 118.174 226.542 118.62 225.416 118.622L225.411 118.617ZM199.621 102.137C199.291 102.138 198.965 102.203 198.66 102.329C198.356 102.455 198.079 102.64 197.847 102.873C197.614 103.105 197.429 103.382 197.303 103.685C197.177 103.989 197.113 104.315 197.113 104.644V114.385C197.114 115.049 197.378 115.685 197.848 116.154C198.318 116.623 198.956 116.886 199.621 116.887H225.411C226.076 116.886 226.714 116.623 227.184 116.154C227.654 115.685 227.919 115.049 227.919 114.385V104.644C227.919 103.981 227.654 103.345 227.184 102.876C226.714 102.407 226.076 102.143 225.411 102.142L199.621 102.137Z" fill="#101F69"/>
<path d="M260.524 113.359C261.058 115.282 260.151 117.757 255.914 117.757H238.757C237.862 117.757 237.003 117.402 236.369 116.77C235.736 116.138 235.38 115.281 235.38 114.388V104.644C235.38 103.75 235.736 102.893 236.369 102.262C237.003 101.63 237.862 101.275 238.757 101.275H249.644C251.508 101.275 254.342 101.128 257.416 106.65C259.605 110.581 260.166 112.074 260.524 113.359Z" fill="#003E90"/>
<path d="M255.912 118.617H238.755C237.629 118.616 236.549 118.169 235.753 117.375C234.957 116.58 234.509 115.504 234.508 114.38V104.644C234.509 103.521 234.957 102.444 235.753 101.65C236.549 100.856 237.629 100.409 238.755 100.407H249.931C251.679 100.407 254.932 100.407 258.175 106.23C260.293 110.036 260.945 111.644 261.359 113.132C261.544 113.74 261.585 114.384 261.479 115.011C261.372 115.638 261.121 116.232 260.744 116.745C260.09 117.603 258.721 118.622 255.912 118.622V118.617ZM238.755 102.137C238.09 102.138 237.452 102.402 236.982 102.871C236.512 103.34 236.247 103.976 236.247 104.639V114.38C236.247 115.044 236.512 115.68 236.982 116.149C237.452 116.618 238.09 116.882 238.755 116.882H255.912C257.572 116.882 258.765 116.469 259.36 115.69C259.573 115.389 259.713 115.043 259.769 114.678C259.825 114.314 259.796 113.942 259.684 113.591C259.382 112.499 258.9 111.099 256.654 107.068C253.908 102.137 251.51 102.137 249.931 102.137H238.755Z" fill="#101F69"/>
<path d="M271.869 142.504H29V140.77H271.869V142.504Z" fill="#AD1A22"/>
<path d="M271.869 148.436H29V146.702H271.869V148.436Z" fill="#AD1A22"/>
</g>
<defs>
<clipPath id="clip0_37_1094">
<rect width="248" height="132" fill="white" transform="translate(29 89)"/>
</clipPath>
</defs>
</svg>
