<svg xmlns="http://www.w3.org/2000/svg" width="48" height="48" viewBox="0 0 48 48"><path d="M48,24A24,24,0,1,1,41,7,24,24,0,0,1,48,24Z" fill="#e53434"/><path d="M27.81,15a.79.79,0,0,0-.23-.57.83.83,0,0,0-.57-.23H21a.77.77,0,0,0-.3.06.76.76,0,0,0-.43.43.77.77,0,0,0-.06.3v1.3h7.61Z" fill="none"/><path d="M35.81,16.28h-6V15a2.8,2.8,0,0,0-2.8-2.8H21a2.8,2.8,0,0,0-1.07.21A2.65,2.65,0,0,0,19,13a2.82,2.82,0,0,0-.81,2v1.29h-6a1.85,1.85,0,0,0-1.85,1.85V32.28a1.85,1.85,0,0,0,1.85,1.86H35.81a1.85,1.85,0,0,0,1.85-1.86V18.13A1.85,1.85,0,0,0,35.81,16.28ZM20.2,15a.77.77,0,0,1,.06-.3.76.76,0,0,1,.43-.43.77.77,0,0,1,.3-.06h6a.83.83,0,0,1,.57.23.79.79,0,0,1,.23.57v1.29H20.2Z" fill="#fff"/></svg>
