<svg xmlns="http://www.w3.org/2000/svg" width="48" height="48" viewBox="0 0 48 48"><path d="M48,24a24.05,24.05,0,1,1-1.83-9.18A24,24,0,0,1,48,24Z" fill="#e53434"/><path d="M38.62,19.18H29.17a1,1,0,0,0-1,1v8.49H19.69a1,1,0,0,0-1,1v8.49H10.2a1,1,0,0,0,0,2h9.49a1,1,0,0,0,1-1V30.67h8.48a1,1,0,0,0,1-1V21.18h8.45a1,1,0,0,0,0-2Z" fill="#fff"/><path d="M13.57,35.21h1l.15,2h3L16.06,26.06H11.88L10.4,37.21h3Zm.51-6.66c.14,1.85.3,3.42.44,4.68h-1C13.6,32.24,13.79,30.68,14.08,28.55Z" fill="#fff"/><path d="M23.61,27.41a8.57,8.57,0,0,0,2.31-.2,1.38,1.38,0,0,0,.49-.3,1.27,1.27,0,0,0,.32-.47A3.81,3.81,0,0,0,27,24.77v-1a2.94,2.94,0,0,0-.35-1.62,2.12,2.12,0,0,0-1.37-.77,2.13,2.13,0,0,0,1.21-.59,2.25,2.25,0,0,0,.31-1.36,4,4,0,0,0-.43-2.1,2.13,2.13,0,0,0-1.14-.86,8.08,8.08,0,0,0-2.08-.21H20.25V27.41Zm-.46-9.21v0a3.05,3.05,0,0,1,.6.06.42.42,0,0,1,.15.11.39.39,0,0,1,.1.16,2,2,0,0,1,.1.77,3.21,3.21,0,0,1-.12,1.2q-.12.21-.54.21h-.29Zm0,4.21v0a1.42,1.42,0,0,1,.78.17,1.53,1.53,0,0,1,.16.86v1a1.47,1.47,0,0,1-.17.85,1.17,1.17,0,0,1-.77.19Z" fill="#fff"/><path d="M31.17,17.37a4.28,4.28,0,0,0,2.11.46,3.66,3.66,0,0,0,2.06-.54A2.58,2.58,0,0,0,36.42,16a8.47,8.47,0,0,0,.24-2.46v-.43H33.77v1.4a4.15,4.15,0,0,1-.1,1.17.45.45,0,0,1-.17.19.39.39,0,0,1-.25.06.45.45,0,0,1-.26,0,.43.43,0,0,1-.18-.2,4.19,4.19,0,0,1-.1-1.06V9.46a4.07,4.07,0,0,1,.1-1.1.35.35,0,0,1,.18-.2.37.37,0,0,1,.27-.05.34.34,0,0,1,.24,0,.42.42,0,0,1,.18.17,3.77,3.77,0,0,1,.09,1.06v1.94h2.88l0-1A7.54,7.54,0,0,0,36.42,8a2.38,2.38,0,0,0-1.09-1.23,4.12,4.12,0,0,0-2.12-.5,4,4,0,0,0-1.66.33,2.79,2.79,0,0,0-1.14.87,2.49,2.49,0,0,0-.49,1.17,15,15,0,0,0-.11,1.77v3.26a8.42,8.42,0,0,0,.27,2.45A2.26,2.26,0,0,0,31.17,17.37Z" fill="#fff"/></svg>
