<svg xmlns="http://www.w3.org/2000/svg" width="48" height="48" viewBox="0 0 48 48"><path d="M48,24A24,24,0,1,1,41,7,24.09,24.09,0,0,1,48,24Z" fill="#e53434"/><path d="M13,23.05v9.89c0,2.15,4.92,3.85,11,3.85s11-1.74,11-3.85V23.05L24,27.91Z" fill="#fff"/><path d="M40.47,27.15a2.38,2.38,0,0,0-.75-.51V18.26l1.13-.5L24,10.29,7.16,17.76,24,25.22l13.72-6.08v7.52a3.26,3.26,0,0,0-.38.18A2.54,2.54,0,0,0,36.43,28a2.42,2.42,0,0,0-.14,1.43,2.42,2.42,0,0,0,2,1.95,2.42,2.42,0,0,0,1.43-.14A2.48,2.48,0,0,0,41.2,28.9,2.48,2.48,0,0,0,40.47,27.15Z" fill="#fff"/></svg>
