<svg xmlns="http://www.w3.org/2000/svg" width="48" height="48" viewBox="0 0 48 48"><path d="M48,24A24,24,0,1,1,41,7,24.09,24.09,0,0,1,48,24Z" fill="#e53434"/><path d="M24.43,4.07,24,3.57l-.17.11A4.49,4.49,0,0,1,23,8.54,4,4,0,0,0,23.6,14l.33.35.22-.14a5.28,5.28,0,0,1,0-2.34,5.34,5.34,0,0,1,.95-2.15,4.21,4.21,0,0,0,.81-2.95A4.17,4.17,0,0,0,24.43,4.07Z" fill="#fff"/><path d="M34.48,20.47c-.91-.69-4.5-1.76-10.46-1.76s-9.56,1.07-10.47,1.76c.91.68,4.5,1.76,10.47,1.76S33.57,21.15,34.48,20.47Z" fill="none"/><path d="M37.17,24.5a10.94,10.94,0,0,1-2.15,5c1.66-.57,3.44-1.57,3.95-3,.17-.49.52-1.68,0-2.09A1.83,1.83,0,0,0,37.17,24.5Z" fill="none"/><path d="M40.43,22.46a4.06,4.06,0,0,0-3.24-.61A7.36,7.36,0,0,0,37,21a2,2,0,0,0,.09-.55c0-4.14-11.77-4.26-13.11-4.26s-13.12.12-13.12,4.26A2.11,2.11,0,0,0,11,21a10.44,10.44,0,0,0,2.54,9.19,11.79,11.79,0,0,1,2.64,4.46c.21,2.2,4.15,3.21,7.84,3.21s7.62-1,7.84-3.21a8.68,8.68,0,0,1,.94-2.09c2.33-.2,7.28-1.69,8.54-5.2C42.36,24.45,41.21,23,40.43,22.46ZM24,18.71c6,0,9.55,1.07,10.46,1.76-.91.68-4.5,1.76-10.46,1.76s-9.56-1.08-10.47-1.76C14.46,19.78,18.05,18.71,24,18.71Zm15,7.84C38.46,28,36.68,29,35,29.53a10.94,10.94,0,0,0,2.15-5,1.83,1.83,0,0,1,1.77,0C39.49,24.87,39.14,26.06,39,26.55Z" fill="#fff"/></svg>
