<svg xmlns="http://www.w3.org/2000/svg" width="48" height="48" viewBox="0 0 48 48"><path d="M48,24a24.05,24.05,0,1,1-1.83-9.18A24,24,0,0,1,48,24Z" fill="#e53434"/><path d="M21.58,26.07a4.43,4.43,0,0,0,1.05-2.82,4.09,4.09,0,0,0,1-2.61,5.78,5.78,0,0,0-.42-2.17A5.71,5.71,0,0,0,22,16.63a5.59,5.59,0,0,0-1.83-1.24A5.79,5.79,0,0,0,18,15h-.07a5.41,5.41,0,0,0-2.17.42,5.57,5.57,0,0,0-1.85,1.22,5.42,5.42,0,0,0-1.23,1.83,5.77,5.77,0,0,0-.45,2.17,4,4,0,0,0,1,2.61,4.37,4.37,0,0,0,1,2.87,9.43,9.43,0,0,0-6,8.63c0,.69.61,2.75,3.49,2.76H23.94c2.88,0,3.51-2,3.51-2.73a9.45,9.45,0,0,0-5.87-8.67ZM17.87,36.39l-2.31-2.25L17.3,29.7l-1-1,1.61-1.26,1.47,1.28-1,.94,1.78,4.53Zm2.19-10.34a4.06,4.06,0,0,1-2.17.63l0,0h-.09A4,4,0,0,1,15.62,26a3.94,3.94,0,0,1-1.48-1.7,4.06,4.06,0,0,1-.34-2.23A4.11,4.11,0,0,1,14.69,20a3.58,3.58,0,0,0,3.14,1.54h.07a3.59,3.59,0,0,0,1.77-.33,3.53,3.53,0,0,0,1.38-1.16,4,4,0,0,1,.88,2.08,4,4,0,0,1-1.87,3.92Z" fill="#fff"/><polygon points="41.73 12.25 34.27 12.25 34.27 19.57 41.73 19.57 39.61 15.89 41.73 12.25" fill="#fff"/><polygon points="26.48 9.45 25.47 9.45 25.47 27.11 26.48 28.18 26.48 17.63 33.31 17.63 33.31 10.32 26.48 10.32 26.48 9.45" fill="#fff"/></svg>
