<svg xmlns="http://www.w3.org/2000/svg" width="48" height="48" viewBox="0 0 48 48"><path d="M48,24A24,24,0,1,1,41,7,24,24,0,0,1,48,24Z" fill="#e53434"/><path d="M27,18.2H12.14a3.08,3.08,0,0,0-2.18.91,3,3,0,0,0-.9,2.17v9a3.07,3.07,0,0,0,3.08,3.08h.11v4.07l4.08-4.07H27a3,3,0,0,0,2.17-.9,3.08,3.08,0,0,0,.91-2.18v-9A3.11,3.11,0,0,0,27,18.2Z" fill="#fff"/><path d="M38.64,14.21a3,3,0,0,0-.67-1,3.06,3.06,0,0,0-2.19-.92H20.93a3.08,3.08,0,0,0-2.18.91,3,3,0,0,0-.9,2.17v1.31H27a4.61,4.61,0,0,1,4.61,4.62v6.16l4.06,4.05V27.44h.12a3.07,3.07,0,0,0,3.08-3.08v-9A3,3,0,0,0,38.64,14.21Z" fill="#fff"/></svg>