<svg xmlns="http://www.w3.org/2000/svg" width="48" height="48" viewBox="0 0 48 48"><path d="M48,24A24,24,0,1,1,41,7,24,24,0,0,1,48,24Z" fill="#e53434"/><path d="M27.75,23.16a4.48,4.48,0,0,0,1-2.82,4.12,4.12,0,0,0,1-2.61A5.67,5.67,0,0,0,24.12,12H24a5.67,5.67,0,0,0-5.69,5.64,4,4,0,0,0,1,2.62,4.34,4.34,0,0,0,1,2.86,9.5,9.5,0,0,0-6,8.64c0,.68.61,2.75,3.5,2.75H30.1c2.88,0,3.51-2,3.51-2.72a9.39,9.39,0,0,0-5.86-8.67ZM24,33.48l-2.27-2.24,1.75-4.46-1-1,1.57-1.27,1.47,1.28-1,1,1.77,4.52Zm0-9.72,0,0h-.09a4.11,4.11,0,0,1-2.15-.65A4.07,4.07,0,0,1,20,19.15a4,4,0,0,1,.89-2.07,3.55,3.55,0,0,0,1.37,1.18,3.48,3.48,0,0,0,1.77.36h.07a3.59,3.59,0,0,0,1.77-.33,3.5,3.5,0,0,0,1.37-1.16,4,4,0,0,1,.92,2.58,4.11,4.11,0,0,1-1.2,2.87A4.06,4.06,0,0,1,24.05,23.76Z" fill="#fff"/><path d="M42.41,24.42a7,7,0,0,0-3.14-2.5A3.21,3.21,0,0,0,40,19.83a2.91,2.91,0,0,0,.71-1.91,4.17,4.17,0,0,0-2.54-3.84,4.1,4.1,0,0,0-1.59-.32h0a4.17,4.17,0,0,0-4.17,4.13,3,3,0,0,0,.7,1.91,3.35,3.35,0,0,0,.77,2.1,7.1,7.1,0,0,0-2.61,1.86A10.64,10.64,0,0,1,35,30.24h6c2.12,0,2.57-1.49,2.57-2A6.89,6.89,0,0,0,42.41,24.42Zm-5.8,5L35,27.83l1.27-3.27-.77-.71,1.15-.93,1.08.93-.77.7,1.29,3.31Zm1.58-7.55a2.94,2.94,0,0,1-1.58.46h-.06a3.12,3.12,0,0,1-1.13-.23,2.86,2.86,0,0,1-1-.65,2.9,2.9,0,0,1-.65-1,3.11,3.11,0,0,1-.22-1.13,2.89,2.89,0,0,1,.69-1.88,2.46,2.46,0,0,0,1,.85,2.52,2.52,0,0,0,1.3.24h0a2.55,2.55,0,0,0,1.3-.23,2.59,2.59,0,0,0,1-.85,3.07,3.07,0,0,1,.64,1.53,3,3,0,0,1-1.37,2.86Z" fill="#fff"/><path d="M16.78,23.62a7.15,7.15,0,0,0-2.6-1.88A3.32,3.32,0,0,0,15,19.65a3,3,0,0,0,.71-1.91,4.28,4.28,0,0,0-.31-1.58,4.1,4.1,0,0,0-.9-1.35,4,4,0,0,0-1.34-.9,4.09,4.09,0,0,0-1.58-.32h0a4.13,4.13,0,0,0-4.16,4.13A2.9,2.9,0,0,0,8,19.63a3.24,3.24,0,0,0,.77,2.1,6.92,6.92,0,0,0-4.35,6.33,2.24,2.24,0,0,0,2.55,2h6A10.58,10.58,0,0,1,16.78,23.62ZM11.4,29.28,9.81,27.66l1.33-3.29-.77-.7,1.08-.93,1.14.94-.77.71,1.26,3.27Zm1.76-7.55a2.91,2.91,0,0,1-1.6.45H11.5A2.86,2.86,0,0,1,10.35,22a3.19,3.19,0,0,1-1-.64,3,3,0,0,1-.88-2.12h0a3,3,0,0,1,.68-1.88,2.59,2.59,0,0,0,1,.85,2.53,2.53,0,0,0,1.3.26h.06a2.53,2.53,0,0,0,1.3-.25,2.59,2.59,0,0,0,1-.85,3,3,0,0,1,.66,1.53,3,3,0,0,1-.27,1.63A3,3,0,0,1,13.16,21.73Z" fill="#fff"/></svg>
