<svg xmlns="http://www.w3.org/2000/svg" width="128" height="40" viewBox="0 0 128 40"><path d="M6 0h116c3.3 0 6 2.7 6 6v28c0 3.3-2.7 6-6 6H6c-3.3 0-6-2.7-6-6V6c0-3.3 2.7-6 6-6Z"/><path fill="#fff" d="M85.6 19.2v2.3h-1.4V23h1.4v5.1c0 1.7.8 2.4 2.8 2.4.3 0 .7 0 1-.1V29h-.7c-.9 0-1.3-.4-1.3-1.4V23h2v-1.5h-2v-2.3h-1.8Zm8.8 11.5c2.6 0 4.3-1.8 4.3-4.7s-1.6-4.7-4.3-4.7-4.3 1.8-4.3 4.7 1.6 4.7 4.3 4.7Zm0-1.6C92.8 29.1 92 28 92 26s.9-3.1 2.4-3.1 2.4 1.1 2.4 3.1-.9 3.1-2.4 3.1Zm5.6 1.4h1.8v-5.3c0-1.3 1-2.1 2.3-2.1.3 0 .8.1 1 .1v-1.8c-.2 0-.5-.1-.8-.1-1.2 0-2.2.6-2.4 1.5h-.1v-1.4H100v9.1Zm9.5-7.7c1.3 0 2.2.9 2.2 2.3h-4.6c.2-1.4 1.1-2.3 2.4-2.3Zm2.2 5.2c-.3.7-1.1 1.1-2.2 1.1-1.4 0-2.3-1-2.4-2.6v-.1h6.4v-.6c0-2.8-1.5-4.6-4-4.6s-4.2 1.8-4.2 4.7 1.6 4.7 4.2 4.7c2.1 0 3.5-1 3.9-2.6h-1.7Zm-37.8-.8c.1 2.2 2 3.6 4.7 3.6 2.9 0 4.8-1.5 4.8-3.9 0-1.9-1-2.9-3.6-3.5l-1.4-.3c-1.6-.4-2.3-.9-2.3-1.8 0-1.1 1-1.8 2.5-1.8 1.4 0 2.4.7 2.6 1.9h1.9c-.1-2.1-2-3.6-4.5-3.6-2.7 0-4.5 1.5-4.5 3.7 0 1.8 1 2.9 3.3 3.4l1.6.4c1.6.4 2.4 1 2.4 1.9 0 1.1-1.1 1.9-2.7 1.9-1.7 0-2.8-.7-3-1.9h-1.8Zm-18.5-5.9c-1.2 0-2.3.6-2.8 1.6h-.1v-1.5h-1.7v12h1.8V29h.1c.5 1 1.5 1.5 2.8 1.5 2.3 0 3.7-1.8 3.7-4.7s-1.5-4.5-3.8-4.5Zm-.5 7.7c-1.5 0-2.4-1.2-2.4-3.1s.9-3.1 2.4-3.1 2.4 1.2 2.4 3.1c0 2-.9 3.1-2.4 3.1Zm10.5-7.7c-1.2 0-2.3.6-2.8 1.6h-.1v-1.5h-1.7v12h1.8V29h.1c.5 1 1.5 1.5 2.8 1.5 2.3 0 3.7-1.8 3.7-4.7s-1.5-4.5-3.8-4.5Zm-.5 7.7c-1.5 0-2.4-1.2-2.4-3.1s.9-3.1 2.4-3.1 2.4 1.2 2.4 3.1c0 2-.9 3.1-2.4 3.1Zm-17.4 1.5h2L45 18.1h-2l-4.5 12.4h2l1.1-3.3h4.7l1.2 3.3Zm-3.6-10.2h.1l1.8 5.2H42l1.9-5.2ZM39.7 8.7v6h2.2c1.8 0 2.8-1.1 2.8-3s-1-3-2.8-3h-2.2Zm.9.9h1.1c1.2 0 2 .8 2 2.1 0 1.4-.7 2.2-2 2.2h-1.1V9.6Zm7.2 5.2c1.3 0 2.1-.9 2.1-2.3 0-1.5-.8-2.3-2.1-2.3s-2.1.9-2.1 2.3.8 2.3 2.1 2.3Zm0-.8c-.8 0-1.2-.6-1.2-1.6s.4-1.6 1.2-1.6 1.2.6 1.2 1.6-.4 1.6-1.2 1.6Zm9-3.8H56l-.8 3.4h-.1l-.9-3.4h-.9l-.9 3.4h-.1l-.8-3.4h-.9l1.2 4.5h.9l.9-3.3h.1l.9 3.3h.9l1.3-4.5Zm1.1 4.5h.9v-2.6c0-.7.4-1.1 1.1-1.1s1 .4 1 1.1v2.7h.9v-2.9c0-1.1-.6-1.7-1.6-1.7-.7 0-1.1.3-1.3.8h-.1v-.7h-.9v4.4Zm5.2 0h.9V8.4h-.9v6.3Zm4.3.1c1.3 0 2.1-.9 2.1-2.3 0-1.5-.8-2.3-2.1-2.3s-2.1.9-2.1 2.3c-.1 1.4.7 2.3 2.1 2.3Zm0-.8c-.8 0-1.2-.6-1.2-1.6s.4-1.6 1.2-1.6 1.2.6 1.2 1.6-.5 1.6-1.2 1.6Zm4.8 0c-.5 0-.8-.2-.8-.6s.3-.6.9-.7l1.1-.1v.4c-.1.6-.6 1-1.2 1Zm-.3.8c.6 0 1.1-.3 1.4-.7h.1v.6h.9v-3.1c0-1-.6-1.5-1.8-1.5-1 0-1.8.5-1.8 1.3h.9c.1-.3.4-.5.9-.5.6 0 .9.3.9.7v.4l-1.2.1c-1.1.1-1.7.5-1.7 1.3-.1.8.6 1.4 1.4 1.4Zm5.3 0c.6 0 1.1-.3 1.4-.8h.1v.7h.9V8.4h-.9v2.5h-.1c-.2-.5-.8-.8-1.4-.8-1.1 0-1.9.9-1.9 2.3.1 1.5.8 2.4 1.9 2.4Zm.3-3.9c.7 0 1.2.6 1.2 1.5s-.5 1.5-1.2 1.5c-.8 0-1.2-.6-1.2-1.5s.4-1.5 1.2-1.5Zm7.9 3.9c1.3 0 2.1-.9 2.1-2.3 0-1.5-.8-2.3-2.1-2.3s-2.1.9-2.1 2.3c-.1 1.4.7 2.3 2.1 2.3Zm0-.8c-.8 0-1.2-.6-1.2-1.6s.4-1.6 1.2-1.6 1.2.6 1.2 1.6-.5 1.6-1.2 1.6Zm3.3.7h.9v-2.6c0-.7.4-1.1 1.1-1.1s1 .4 1 1.1v2.7h.9v-2.9c0-1.1-.6-1.7-1.6-1.7-.7 0-1.1.3-1.3.8h-.1v-.7h-.9v4.4Zm7.9-5.6v1.1h-.7v.8h.7v2.6c0 .9.4 1.2 1.4 1.2h.5v-.7h-.3c-.4 0-.6-.2-.6-.7V11h1v-.8h-1V9.1h-1Zm3.1 5.6h.9v-2.6c0-.7.4-1.1 1.1-1.1.6 0 1 .4 1 1.1v2.7h.9v-2.9c0-1.1-.6-1.7-1.6-1.7-.7 0-1.2.3-1.4.8h-.1V8.4h-.9v6.3h.1Zm7.1-3.8c.7 0 1.1.5 1.1 1.2h-2.3c.1-.8.6-1.2 1.2-1.2Zm1.1 2.6c-.2.4-.5.5-1.1.5-.7 0-1.2-.5-1.2-1.3h3.2v-.3c0-1.4-.8-2.3-2-2.3-1.3 0-2.1.9-2.1 2.4s.8 2.3 2.1 2.3c1 0 1.8-.5 2-1.3h-.9Zm-79.1 6.8c0-1.7.9-3.3 2.4-4.2-.9-1.3-2.4-2.1-4-2.2-1.7-.2-3.3 1-4.2 1s-2.2-1-3.6-1c-1.8.1-3.6 1.1-4.5 2.7-1.9 3.3-.5 8.3 1.4 11 .9 1.3 2 2.8 3.4 2.8 1.4-.1 1.9-.9 3.6-.9s2.1.9 3.6.9 2.4-1.3 3.3-2.7c.7-.9 1.2-2 1.5-3.1a4.6 4.6 0 0 1-2.9-4.3Zm-2.7-8.1c.8-1 1.2-2.2 1.1-3.5-1.2.1-2.4.7-3.2 1.7-.8.9-1.2 2.1-1.1 3.4 1.2 0 2.4-.6 3.2-1.6Z"/></svg>