<svg xmlns="http://www.w3.org/2000/svg" viewBox="0 0 161.5 128.01"><defs><linearGradient id="linear-gradient" x1="54.17" y1="152.94" x2="104.17" y2="152.94" gradientTransform="translate(0 -93.99)" gradientUnits="userSpaceOnUse"><stop offset=".15" stop-color="#e4ac82"/><stop offset=".47" stop-color="#ab551f"/><stop offset=".78" stop-color="#5e0000"/></linearGradient><linearGradient id="linear-gradient-2" x1="44.75" y1="126.64" x2="118.02" y2="139.55" gradientTransform="translate(0 -93.99)" gradientUnits="userSpaceOnUse"><stop offset="0" stop-color="#e3a378"/><stop offset=".06" stop-color="#edbf9b"/><stop offset=".12" stop-color="#f7dabc"/><stop offset=".17" stop-color="#fdead1"/><stop offset=".21" stop-color="#fff0d8"/><stop offset=".65" stop-color="#b6612a"/><stop offset=".86" stop-color="#f0c69f"/><stop offset="1" stop-color="#c16e36"/></linearGradient><linearGradient id="linear-gradient-3" x1="85.7" y1="152.37" x2="78" y2="108.64" gradientTransform="translate(0 -93.99)" gradientUnits="userSpaceOnUse"><stop offset=".51" stop-color="#fff"/><stop offset=".66" stop-color="#fafafa"/><stop offset=".84" stop-color="#ececec"/><stop offset="1" stop-color="#d9d9d9"/></linearGradient><linearGradient id="linear-gradient-4" x1="58.42" y1="112.36" x2="61.59" y2="124.17" gradientTransform="translate(0 -93.99)" gradientUnits="userSpaceOnUse"><stop offset=".18" stop-color="#17479e"/><stop offset=".56" stop-color="#0b7ec9"/><stop offset=".85" stop-color="#03a1e5"/><stop offset="1" stop-color="#00aeef"/></linearGradient><linearGradient id="linear-gradient-5" x1="52.4" y1="120.92" x2="53.88" y2="129.33" gradientTransform="translate(0 -93.99)" gradientUnits="userSpaceOnUse"><stop offset=".04" stop-color="#17479e"/><stop offset=".48" stop-color="#0b7ec9"/><stop offset=".82" stop-color="#03a1e5"/><stop offset="1" stop-color="#00aeef"/></linearGradient><linearGradient id="linear-gradient-6" x1="80.13" y1="108.41" x2="83.48" y2="120.96" gradientTransform="translate(0 -93.99)" gradientUnits="userSpaceOnUse"><stop offset=".14" stop-color="#17479e"/><stop offset=".53" stop-color="#0b7ec9"/><stop offset=".84" stop-color="#03a1e5"/><stop offset="1" stop-color="#00aeef"/></linearGradient><linearGradient id="linear-gradient-7" x1="60.97" y1="144.21" x2="60.97" y2="133.24" gradientTransform="translate(0 -93.99)" gradientUnits="userSpaceOnUse"><stop offset=".01" stop-color="#282781"/><stop offset=".19" stop-color="#1b3c93"/><stop offset=".36" stop-color="#12499f"/><stop offset="1" stop-color="#007dc5"/></linearGradient><linearGradient id="linear-gradient-8" x1="102.71" y1="116.73" x2="102.71" y2="127.48" gradientTransform="translate(0 -93.99)" gradientUnits="userSpaceOnUse"><stop offset=".16" stop-color="#17479e"/><stop offset=".29" stop-color="#0f5fb0"/><stop offset=".51" stop-color="#0482cb"/><stop offset=".63" stop-color="#008fd5"/><stop offset=".91" stop-color="#00aeef"/></linearGradient><linearGradient id="linear-gradient-9" x1="109.77" y1="137.28" x2="111.22" y2="129.08" gradientTransform="translate(0 -93.99)" gradientUnits="userSpaceOnUse"><stop offset=".01" stop-color="#17479e"/><stop offset=".09" stop-color="#154da2"/><stop offset=".68" stop-color="#0670bb"/><stop offset="1" stop-color="#007dc5"/></linearGradient><linearGradient id="linear-gradient-10" x1="102.21" y1="136.72" x2="105.37" y2="148.55" gradientTransform="translate(0 -93.99)" gradientUnits="userSpaceOnUse"><stop offset=".5" stop-color="#17479e"/><stop offset="1" stop-color="#282781"/></linearGradient><linearGradient id="linear-gradient-11" x1="82.84" y1="139.22" x2="82.84" y2="150.59" gradientTransform="translate(0 -93.99)" gradientUnits="userSpaceOnUse"><stop offset=".25" stop-color="#17479e"/><stop offset="1" stop-color="#282781"/></linearGradient><linearGradient id="linear-gradient-12" x1="92.84" y1="150.33" x2="92.84" y2="135.86" gradientTransform="translate(0 -93.99)" gradientUnits="userSpaceOnUse"><stop offset=".01" stop-color="#d71920"/><stop offset="1" stop-color="#ed1c24"/></linearGradient><linearGradient id="linear-gradient-13" x1="91" y1="128.1" x2="115.71" y2="128.1" gradientTransform="translate(0 -93.99)" gradientUnits="userSpaceOnUse"><stop offset=".01" stop-color="#a70e13"/><stop offset=".15" stop-color="#bd1218"/><stop offset=".35" stop-color="#d7181f"/><stop offset=".54" stop-color="#e71b23"/><stop offset=".68" stop-color="#ed1c24"/></linearGradient><linearGradient id="linear-gradient-14" x1="60.32" y1="135.82" x2="60.32" y2="129.74" gradientTransform="translate(0 -93.99)" gradientUnits="userSpaceOnUse"><stop offset="0" stop-color="#ed1c24"/><stop offset=".81" stop-color="#f598aa"/></linearGradient><linearGradient id="linear-gradient-15" x1="72.25" y1="125.91" x2="69.47" y2="110.11" gradientTransform="translate(0 -93.99)" gradientUnits="userSpaceOnUse"><stop offset="0" stop-color="#f7b7d3"/><stop offset=".63" stop-color="#ed1c24"/><stop offset=".99" stop-color="#c4161c"/></linearGradient><linearGradient id="linear-gradient-16" x1="99.18" y1="145.37" x2="95.73" y2="112.67" gradientTransform="translate(0 -93.99)" gradientUnits="userSpaceOnUse"><stop offset="0" stop-color="#ce181e"/><stop offset=".1" stop-color="#df1a21"/><stop offset=".21" stop-color="#ea1c23"/><stop offset=".34" stop-color="#ed1c24"/><stop offset=".35" stop-color="#e41a22"/><stop offset=".41" stop-color="#be1217"/><stop offset=".47" stop-color="#a70d11"/><stop offset=".5" stop-color="#9e0b0f"/><stop offset=".52" stop-color="#b53c45"/><stop offset=".55" stop-color="#ca6873"/><stop offset=".58" stop-color="#db8b9a"/><stop offset=".61" stop-color="#e8a7b8"/><stop offset=".63" stop-color="#f1bbce"/><stop offset=".66" stop-color="#f7c7db"/><stop offset=".68" stop-color="#f9cbdf"/><stop offset=".7" stop-color="#f9c5d9"/><stop offset=".74" stop-color="#f7b5c7"/><stop offset=".77" stop-color="#f69aab"/><stop offset=".82" stop-color="#f37583"/><stop offset=".86" stop-color="#f04550"/><stop offset=".89" stop-color="#ed1c24"/><stop offset=".99" stop-color="#c4161c"/></linearGradient><linearGradient id="linear-gradient-17" x1="67.41" y1="148.28" x2="63.96" y2="115.54" gradientTransform="translate(0 -93.99)" gradientUnits="userSpaceOnUse"><stop offset=".01" stop-color="#d71920"/><stop offset=".38" stop-color="#ed1c24"/><stop offset=".46" stop-color="#f15864"/><stop offset=".54" stop-color="#f48999"/><stop offset=".61" stop-color="#f7adbf"/><stop offset=".67" stop-color="#f8c3d6"/><stop offset=".7" stop-color="#f9cbdf"/><stop offset=".72" stop-color="#f9c5d9"/><stop offset=".75" stop-color="#f7b5c7"/><stop offset=".79" stop-color="#f69aab"/><stop offset=".82" stop-color="#f37583"/><stop offset=".86" stop-color="#f04550"/><stop offset=".89" stop-color="#ed1c24"/><stop offset=".99" stop-color="#c4161c"/></linearGradient><linearGradient id="linear-gradient-18" x1="80.9" y1="113.7" x2="88.73" y2="115.08" gradientTransform="translate(0 -93.99)" gradientUnits="userSpaceOnUse"><stop offset="0" stop-color="#e3a378"/><stop offset=".06" stop-color="#edbf9b"/><stop offset=".12" stop-color="#f7dabc"/><stop offset=".17" stop-color="#fdead1"/><stop offset=".21" stop-color="#fff0d8"/><stop offset=".57" stop-color="#ab551f"/><stop offset=".83" stop-color="#ce946d"/><stop offset="1" stop-color="#ab551f"/></linearGradient><linearGradient id="linear-gradient-19" x1="84.52" y1="94.79" x2="91.42" y2="98" gradientTransform="translate(0 -93.99)" gradientUnits="userSpaceOnUse"><stop offset=".01" stop-color="#d68247"/><stop offset=".06" stop-color="#e19f6d"/><stop offset=".13" stop-color="#eec29b"/><stop offset=".19" stop-color="#f7dbbc"/><stop offset=".25" stop-color="#fdead1"/><stop offset=".28" stop-color="#fff0d8"/><stop offset="1" stop-color="#ab551f"/></linearGradient><linearGradient id="linear-gradient-20" x1="85.69" y1="94.89" x2="90.53" y2="95.74" gradientTransform="translate(0 -93.99)" gradientUnits="userSpaceOnUse"><stop offset="0" stop-color="#c1753f"/><stop offset="1" stop-color="#e3a378"/></linearGradient></defs><g id="add"><path d="M24.36 120.3a.45.45 0 0 1 0 .23.53.53 0 0 1-.13.2.76.76 0 0 1-.19.12.45.45 0 0 1-.23 0h-.45v-1a1.07 1.07 0 0 0-.58-.12c-.45 0-.82.26-.82 1.29v1.55h1.3v.43H22v4.24a.14.14 0 0 0 0 .09h.84v.4H20v-.4h.83a.12.12 0 0 0 .05-.1V123h-.68v-.39h.68v-1c0-1.55.78-2.22 1.84-2.22a2.59 2.59 0 0 1 1.55.44 1.22 1.22 0 0 1 .09.47ZM26.38 128a2.42 2.42 0 0 1-1.93-.73 2.36 2.36 0 0 1-.56-.89 2.91 2.91 0 0 1 .53-3 2.51 2.51 0 0 1 .88-.6 2.41 2.41 0 0 1 1.06-.17 2.27 2.27 0 0 1 1.06.16 2.43 2.43 0 0 1 1.43 1.51 2.53 2.53 0 0 1 .11 1.06 2.42 2.42 0 0 1-.13 1 2.26 2.26 0 0 1-.55.9 2.36 2.36 0 0 1-.87.59 2.42 2.42 0 0 1-1.03.17Zm1.46-2.65c0-1.56-.53-2.4-1.56-2.4s-1.47.81-1.47 2.4.59 2.27 1.55 2.27 1.48-.72 1.48-2.32ZM34.41 123.22c0 .47-.2.7-.64.7h-.4v-.85a.47.47 0 0 0-.33 0c-.4 0-.89.5-1.35 1.3v3.06h.84v.41h-2.75v-.41h.84a.17.17 0 0 0 0-.1v-4h-.8v-.4h1.91V124c.5-.83 1-1.23 1.66-1.23a1.52 1.52 0 0 1 1 .34.64.64 0 0 0 .02.11ZM41.23 128a1.85 1.85 0 0 1-1.07-.3 2 2 0 0 1-.72-.83l-.67 1h-.28v-7.77a.17.17 0 0 0 0-.1.09.09 0 0 0-.08-.06h-.77v-.4h2v4.18a2.06 2.06 0 0 1 .76-.79 2.11 2.11 0 0 1 1-.32 2.47 2.47 0 0 1 .93.21 2.18 2.18 0 0 1 .77.57 2.35 2.35 0 0 1 .54 1.84 2.51 2.51 0 0 1-2.41 2.77Zm1.27-2.78c0-1.44-.42-2.23-1.3-2.23a1.8 1.8 0 0 0-1.56 1.38v1.82c.13.54.64 1.38 1.45 1.38s1.41-.94 1.41-2.4ZM49.77 122.62v4.72h.81v.4h-1.83v-1.12a2.11 2.11 0 0 1-1.88 1.23c-.8 0-1.73-.28-1.73-1.55v-3.16h-.8v-.41h2v3.41c0 1 .16 1.55.92 1.55a2 2 0 0 0 1.64-1.55v-2.83a.17.17 0 0 0 0-.1H48v-.41ZM55.16 124.17h-.4a1.93 1.93 0 0 0 0-.34 1.16 1.16 0 0 0-1.25-.92 1 1 0 0 0-.34 0 .69.69 0 0 0-.3.17.83.83 0 0 0-.21.28.81.81 0 0 0-.08.34c0 .48.31.77 1.29 1.16s1.55.72 1.55 1.56a1.83 1.83 0 0 1-1.86 1.58 2.16 2.16 0 0 1-.83-.13 2.22 2.22 0 0 1-.72-.44 2.19 2.19 0 0 0-.16.57h-.39v-2h.39a1.59 1.59 0 0 0 .09.61 1.51 1.51 0 0 0 .34.52 1.38 1.38 0 0 0 .52.34 1.59 1.59 0 0 0 .61.09c.6 0 .94-.3.94-.83s-.28-.73-.94-1c-1-.44-1.87-.9-1.87-1.81s.72-1.39 1.77-1.39a2.47 2.47 0 0 1 1.4.39 1.29 1.29 0 0 0 .11-.47h.4ZM58.08 122.62v4.66a.14.14 0 0 0 0 .09H59v.4h-2.8v-.4h.8c.11 0 .12-.09.12-.14v-4.1c0-.09 0-.13-.11-.13h-.81v-.38Zm-.51-1.55c-.48 0-.64-.16-.64-.61s.16-.59.64-.59.62.16.62.59-.16.65-.62.65ZM61.67 123.52a2.43 2.43 0 0 1 .84-.72 2.49 2.49 0 0 1 1.07-.27 1.56 1.56 0 0 1 1.18.41 1.54 1.54 0 0 1 .5 1.14v3.22c0 .09 0 .14.14.14h.74v.4h-2.79v-.4h.73a.14.14 0 0 0 .14-.14v-3.11c0-.79-.24-1.26-.93-1.26a2.21 2.21 0 0 0-.89.35 2.32 2.32 0 0 0-.67.69v3.32h.72v.41h-2.71v-.41h.85a.17.17 0 0 0 0-.1v-4a.14.14 0 0 0 0-.09h-.85v-.39h1.93ZM68.1 124.84v.47c0 1.3.58 2.11 1.55 2.11a1.74 1.74 0 0 0 1.56-1.13l.28.11a2.14 2.14 0 0 1-.78 1.13 2.09 2.09 0 0 1-1.3.42 2.46 2.46 0 0 1-1-.18 2.34 2.34 0 0 1-1.41-2.46 2.79 2.79 0 0 1 .09-1 2.71 2.71 0 0 1 .52-.92 2.74 2.74 0 0 1 .85-.62 2.49 2.49 0 0 1 1-.21c1 0 2 .53 2 1.55a4.33 4.33 0 0 1 0 .72Zm0-.4h2.19a2.91 2.91 0 0 0 0-.59.92.92 0 0 0-.05-.37 1 1 0 0 0-.21-.32.79.79 0 0 0-.31-.2 1.21 1.21 0 0 0-.38 0c-.56 0-1.08.42-1.21 1.53ZM76 124.17h-.41v-.34a1.07 1.07 0 0 0-.45-.7 1.16 1.16 0 0 0-.81-.22 1 1 0 0 0-.34 0 .75.75 0 0 0-.3.17.85.85 0 0 0-.27.62c0 .48.29.77 1.29 1.16s1.55.72 1.55 1.56a1.83 1.83 0 0 1-1.87 1.58 2.16 2.16 0 0 1-.83-.13 2.22 2.22 0 0 1-.72-.44 1.88 1.88 0 0 0-.17.57h-.38v-2h.38a1.26 1.26 0 0 0 .09.61 1.44 1.44 0 0 0 .33.52 1.61 1.61 0 0 0 .52.34 1.59 1.59 0 0 0 .61.09c.59 0 1-.3 1-.83s-.28-.73-1-1c-1-.44-1.87-.9-1.87-1.81s.73-1.39 1.77-1.39a2.54 2.54 0 0 1 1.42.39 1.52 1.52 0 0 0 .1-.47H76ZM80.71 124.17h-.4a1.93 1.93 0 0 0 0-.34 1.18 1.18 0 0 0-.45-.7 1.16 1.16 0 0 0-.81-.22 1 1 0 0 0-.34 0 .75.75 0 0 0-.3.17.63.63 0 0 0-.2.28.8.8 0 0 0-.07.34c0 .48.31.77 1.29 1.16s1.55.72 1.55 1.56a1.82 1.82 0 0 1-1.85 1.58 2.16 2.16 0 0 1-1.55-.57 1.63 1.63 0 0 0-.17.57H77v-2h.3a1.4 1.4 0 0 0 .09.61 1.44 1.44 0 0 0 .33.52 1.61 1.61 0 0 0 .52.34 1.59 1.59 0 0 0 .61.09c.59 0 1-.3 1-.83s-.28-.73-1-1c-1-.44-1.85-.9-1.85-1.81s.71-1.39 1.77-1.39a2.47 2.47 0 0 1 1.4.39 1.89 1.89 0 0 0 .11-.47h.4ZM89.88 126.61l.33.14c-.16.61-.47 1.21-1.22 1.21s-.9-.35-.9-1v-.18a2.24 2.24 0 0 1-.77.82 2.09 2.09 0 0 1-1.08.34.92.92 0 0 1-.52 0 1.13 1.13 0 0 1-.45-.26 1.23 1.23 0 0 1-.3-.44 1.32 1.32 0 0 1-.08-.52c0-1.44 1.56-1.72 2.75-1.72h.45v-1c0-.73-.28-1.12-.93-1.12a2 2 0 0 0-1 .28v1a2.44 2.44 0 0 1-.54 0c-.41 0-.5-.21-.5-.59v-.42a3.54 3.54 0 0 1 2-.7c1 0 1.92.38 1.92 1.56v3c0 .26.1.4.25.4s.47-.41.59-.8Zm-1.79-1.29h-.63c-1.15 0-1.43.5-1.43 1.25s.35.79.76.79a1.69 1.69 0 0 0 .84-.4 1.61 1.61 0 0 0 .46-.81ZM92.65 123.52a2.42 2.42 0 0 1 1.92-1 1.56 1.56 0 0 1 1.18.41 1.51 1.51 0 0 1 .5 1.14v3.22c0 .09 0 .14.12.14h.75v.4h-2.7v-.4h.83a.14.14 0 0 0 0-.09v-3.11c0-.79-.22-1.26-.94-1.26a2.41 2.41 0 0 0-.88.36 2.29 2.29 0 0 0-.67.68v3.26a.14.14 0 0 0 .14.14h.73v.41h-2.9v-.41h.84a.12.12 0 0 0 .05-.1v-4h-.8v-.39h1.92ZM100.33 122.53a1.67 1.67 0 0 1 1 .23 1.82 1.82 0 0 1 .7.73v-3.42c0-.11 0-.14-.17-.15h-.7v-.41h1.91v7.77h.8v.4H102V127a2.06 2.06 0 0 1-1.85 1c-1 0-2.22-.68-2.22-2.71a2.4 2.4 0 0 1 .08-1 2.27 2.27 0 0 1 .49-.9 2.44 2.44 0 0 1 .82-.61 2.36 2.36 0 0 1 1.01-.25Zm1.68 3.74v-1.9a1.68 1.68 0 0 0-.52-1 1.8 1.8 0 0 0-1-.45c-.92 0-1.43.84-1.43 2.33s.53 2.3 1.46 2.3a1.6 1.6 0 0 0 1-.39 1.63 1.63 0 0 0 .48-.89ZM109.65 119.45v7.89h.8v.4h-2.7v-.4h.75V120a.2.2 0 0 0-.09-.09h-.74v-.4ZM112.45 124.84v.47c0 1.3.58 2.11 1.55 2.11a1.64 1.64 0 0 0 1-.33 1.7 1.7 0 0 0 .6-.8l.28.11a2.13 2.13 0 0 1-2.09 1.55 2.46 2.46 0 0 1-1-.18 2.34 2.34 0 0 1-1.43-2.46 2.79 2.79 0 0 1 .09-1 2.71 2.71 0 0 1 .52-.92 2.74 2.74 0 0 1 .85-.62 2.49 2.49 0 0 1 1-.21c1.05 0 2 .53 2 1.55a3.53 3.53 0 0 1-.08.72Zm0-.4h2.16a2.91 2.91 0 0 0 0-.59.77.77 0 0 0 0-.37 1 1 0 0 0-.21-.32.83.83 0 0 0-.32-.2.77.77 0 0 0-.37 0c-.53 0-1 .42-1.18 1.53ZM118.49 122.62v4.66a.07.07 0 1 0 .1.1h.75v.4h-2.74v-.4h.73a.13.13 0 0 0 .14-.12v-4.12c0-.09 0-.13-.11-.13h-.76v-.38Zm-.51-1.55c-.47 0-.62-.16-.62-.61s.15-.59.62-.59.64.16.64.59-.16.65-.64.65ZM123.93 124.17h-.4a1.93 1.93 0 0 0 0-.34 1.2 1.2 0 0 0-.45-.71 1.16 1.16 0 0 0-.81-.21 1 1 0 0 0-.34 0 .73.73 0 0 0-.31.17 1.1 1.1 0 0 0-.2.28 1 1 0 0 0-.07.34c0 .48.31.77 1.29 1.16s1.55.72 1.55 1.56a1.83 1.83 0 0 1-1.86 1.55 2.16 2.16 0 0 1-.83-.13 2.22 2.22 0 0 1-.72-.44 1.63 1.63 0 0 0-.17.57h-.38v-2h.39a1.59 1.59 0 0 0 .09.61 1.51 1.51 0 0 0 .34.52 1.38 1.38 0 0 0 .52.34 1.59 1.59 0 0 0 .61.09c.58 0 .94-.3.94-.83s-.28-.73-.94-1c-1-.44-1.87-.9-1.87-1.81s.72-1.39 1.77-1.39a2.47 2.47 0 0 1 1.4.39 1.53 1.53 0 0 0 .11-.47h.34ZM130.24 122.62v4.72h.8v.4h-1.91v-1.12a2 2 0 0 1-.75.88 2.08 2.08 0 0 1-1.11.35c-.81 0-1.74-.28-1.74-1.55v-3.16h-.79v-.41h1.91v3.41c0 1 .15 1.55.92 1.55a1.94 1.94 0 0 0 1.06-.52 2 2 0 0 0 .58-1v-2.83a.17.17 0 0 0 0-.1h-.84v-.41ZM136.53 123.22c0 .47-.19.7-.62.7h-.41v-.85a.5.5 0 0 0-.34 0c-.4 0-.88.5-1.35 1.3v3.06h.81v.41h-2.8v-.41h.84a.17.17 0 0 0 0-.1v-4.06h-.85v-.4h1.91v1.07c.51-.83 1-1.23 1.66-1.23a1.65 1.65 0 0 1 1 .34ZM138.16 124.84v.47c0 1.3.57 2.11 1.55 2.11a1.74 1.74 0 0 0 1.56-1.13l.28.1a2.12 2.12 0 0 1-2.09 1.56 2.46 2.46 0 0 1-1-.18 2.34 2.34 0 0 1-1.43-2.46 2.79 2.79 0 0 1 .09-1 2.73 2.73 0 0 1 .51-.91 2.59 2.59 0 0 1 .85-.62 2.43 2.43 0 0 1 1-.22c1.07 0 2 .53 2 1.55a4.33 4.33 0 0 1 0 .72Zm0-.4h2.19a2.91 2.91 0 0 0 0-.59 1.21 1.21 0 0 0 0-.38 1 1 0 0 0-.21-.32 1.09 1.09 0 0 0-.33-.19.77.77 0 0 0-.37 0c-.55 0-1.07.42-1.2 1.53Z" transform="translate(-.01 -.01)"/></g><g id="text"><path d="M11.94 104.5a.57.57 0 0 1-.22.33.54.54 0 0 1-.39.1h-.59l-5.4-.28a.4.4 0 0 1-.26-.1.47.47 0 0 1-.08-.25v-17a.33.33 0 0 1 0-.14.34.34 0 0 1 .06-.16.47.47 0 0 1 .12 0 .33.33 0 0 1 .14 0l2-.13v-1H0v1L2 87c.24 0 .31.14.31.37v17a.29.29 0 0 1 0 .13.24.24 0 0 1-.07.12.31.31 0 0 1-.11.09.33.33 0 0 1-.14 0l-1.89.17v1H14V98.5h-1.14ZM20 88.71c1.14 0 1.55-.4 1.55-1.55s-.4-1.56-1.55-1.56-1.56.41-1.56 1.56.34 1.55 1.56 1.55ZM21.45 104.77l-.11-.08a.75.75 0 0 1-.07-.12.33.33 0 0 1 0-.14V92.55l-4.94.1v1h2a.32.32 0 0 1 .26.36v10.55a.34.34 0 0 1-.36.32h-1.9v1h7.14v-1l-1.92-.11a.33.33 0 0 1-.1 0ZM34.85 93.61l1.77.07h.1a.16.16 0 0 1 .08.06.17.17 0 0 1 0 .1v.1a1.34 1.34 0 0 1-.17.51l-3 8.06-3.36-8.09a1.18 1.18 0 0 1-.14-.45.21.21 0 0 1 0-.11.21.21 0 0 1 .06-.1l.09-.06a.21.21 0 0 1 .11 0l1.73-.11v-1H25v1l1.72.17c.22 0 .34.11.45.34l5.19 12.1h.84L38 94a.5.5 0 0 1 .19-.24.57.57 0 0 1 .28-.11l1.77-.07v-1h-5.39ZM48.68 104.83c-2.64 0-4.1-2.06-4.1-5.42v-1.18h8.33a11.22 11.22 0 0 0 .17-1.83c0-2.74-2.41-4.1-5.14-4.1-3.53 0-6.34 2.5-6.34 7.16s2.83 6.77 6.21 6.77a5.46 5.46 0 0 0 5.39-4l-.73-.26a4.37 4.37 0 0 1-3.79 2.86ZM48 93.26a2.41 2.41 0 0 1 1 .11 2.23 2.23 0 0 1 .81.51 2 2 0 0 1 .53.8 2.27 2.27 0 0 1 .14 1 10 10 0 0 1-.14 1.55h-5.66c.32-2.85 1.62-3.97 3.32-3.97ZM77.91 91.4l1.18-5.6h-15.3v1.09l2 .14a.34.34 0 0 1 .34.34v17.13a.32.32 0 0 1-.09.23.3.3 0 0 1-.23.11l-2 .08V106h14.51v-6.22h-1.09l-.78 4.66a.65.65 0 0 1-.22.36.6.6 0 0 1-.41.12l-7-.28v-8.5h2.85c1.4 0 1.8 1.56 1.8 3.56h1v-8.14h-1.1c0 1.83-.34 3.56-1.73 3.56h-2.82v-8l7.76-.26c.2 0 .3.09.3.33v4.24ZM95.24 104.51v-8.25a3.88 3.88 0 0 0-.31-1.61 3.7 3.7 0 0 0-.93-1.34 4.06 4.06 0 0 0-1.42-.83 3.74 3.74 0 0 0-1.63-.16 6.16 6.16 0 0 0-2.76.69A6.32 6.32 0 0 0 86 94.84v-2.28h-4.88v1l1.92.17a.37.37 0 0 1 .24.12.47.47 0 0 1 .11.25v10.29a.41.41 0 0 1-.38.38l-1.89.17v1h7.06v-1l-1.83-.11a.38.38 0 0 1-.15 0 .2.2 0 0 1-.12-.08.22.22 0 0 1-.08-.13.17.17 0 0 1 0-.14v-8.36a6 6 0 0 1 1.83-1.79 6.21 6.21 0 0 1 2.39-.87c1.8 0 2.38 1.23 2.38 3.23v7.79a.39.39 0 0 1-.1.25.33.33 0 0 1-.24.12h-1.9v1h7.12v-1h-1.9c-.34 0-.34-.12-.34-.34ZM108.78 93.14a6.51 6.51 0 0 0-3.29-.76c-3.92 0-6 2.52-6 5.13a4.77 4.77 0 0 0 2.39 4.13 4.43 4.43 0 0 0-2.16 4 3.1 3.1 0 0 0 1.15 2.72 3.61 3.61 0 0 0-1 2.55c0 2 1.38 4.08 5.68 4.08 3.69 0 6.54-2.09 6.54-5.81a2.73 2.73 0 0 0-.1-1.27 2.64 2.64 0 0 0-.66-1.1 2.84 2.84 0 0 0-1.07-.7A2.88 2.88 0 0 0 109 106c-2.32 0-4.48.18-6.62.18-.78 0-1.1-.55-1.1-1.55a2.57 2.57 0 0 1 1.55-2.5 7.23 7.23 0 0 0 2.64.53c3.26 0 5.83-1.79 5.75-5.18a5.44 5.44 0 0 0-1.67-3.69 3.93 3.93 0 0 1 1.81-.44v1.55a3.66 3.66 0 0 0 1.18.2c.91 0 1.29-.61 1.29-1.73a3.57 3.57 0 0 0 0-.8 5.32 5.32 0 0 0-1.93-.35 6.7 6.7 0 0 0-3.12.92Zm-7 15.56a3.49 3.49 0 0 0 .65.06c2.16 0 4.52-.2 6.22-.2 1.13 0 1.86.38 1.86 1.38 0 2-1.9 3.7-5 3.7-2.44 0-4.44-.78-4.44-2.94a2.79 2.79 0 0 1 .74-2Zm3.59-7.12c-2.1 0-3.1-1.82-3.1-4.26s1.1-4 3.1-4 3 1.59 3 4.07-.87 4.19-2.97 4.19ZM119.91 104.73a.32.32 0 0 1-.13-.1.42.42 0 0 1-.09-.14.49.49 0 0 1 0-.17v-19.9l-4.77.06v1l1.71.11a.54.54 0 0 1 .18 0 .33.33 0 0 1 .24.24.54.54 0 0 1 0 .18v18.27a.47.47 0 0 1-.12.3.48.48 0 0 1-.29.15l-1.74.14v1h6.9v-1l-1.73-.14ZM127.38 88.71c1.21 0 1.55-.4 1.55-1.55s-.4-1.56-1.55-1.56-1.56.41-1.56 1.56.36 1.55 1.56 1.55ZM128.88 104.77l-.11-.08a.75.75 0 0 1-.07-.12.33.33 0 0 1 0-.14V92.55l-4.94.1v1h2c.2 0 .28.13.28.36v10.55a.33.33 0 0 1-.34.32h-1.9v1h7.2v-1l-1.93-.11a.33.33 0 0 1-.19 0ZM139.19 98.42c-2.53-1-3.31-1.8-3.31-3a2.15 2.15 0 0 1 .18-.87 2.18 2.18 0 0 1 .52-.72 2.1 2.1 0 0 1 1.66-.54 2.88 2.88 0 0 1 2.07.55 2.92 2.92 0 0 1 1.15 1.81 3 3 0 0 1 .11.89h1l-.07-4.44h-1a3.2 3.2 0 0 1-.29 1.18 6.46 6.46 0 0 0-3.58-1c-2.7 0-4.53 1.24-4.53 3.57s2.14 3.55 4.75 4.66c1.72.75 2.44 1.25 2.44 2.61s-.86 2.13-2.41 2.13a3.69 3.69 0 0 1-1.54-.27 3.84 3.84 0 0 1-1.3-.88 3.69 3.69 0 0 1-.83-1.33 3.76 3.76 0 0 1-.21-1.56h-1v5h1a5.33 5.33 0 0 1 .43-1.46 5.58 5.58 0 0 0 4 1.46c2.27 0 4.76-1.16 4.76-3.79 0-2.17-1.83-3.14-4-4ZM159.61 104.83c-.23 0-.34-.14-.34-.37v-8.59c0-2.55-2-3.73-4.4-3.73a5.78 5.78 0 0 0-2.73.68 5.56 5.56 0 0 0-2.14 1.89V84.49h-4.94v1l1.94.14a.37.37 0 0 1 .25.12.36.36 0 0 1 .11.26v18.44a.5.5 0 0 1-.13.25.37.37 0 0 1-.25.12h-1.93v1h7.17v-1h-1.86a.38.38 0 0 1-.15 0 .35.35 0 0 1-.13-.08.26.26 0 0 1-.08-.13.38.38 0 0 1 0-.15V96a5.22 5.22 0 0 1 4-2.8c1.84 0 2.59 1.48 2.59 3.37v7.88a.38.38 0 0 1 0 .15.75.75 0 0 1-.07.12.57.57 0 0 1-.13.08.17.17 0 0 1-.14 0h-1.89v1h7.13v-1Z" transform="translate(-.01 -.01)"/></g><g id="icon"><path d="M76.58 66.6 54.17 51.3l50 8.3Z" transform="translate(-.01 -.01)" fill="url(#linear-gradient)"/><path d="M44.33 35c-1.86 10.51 13 22 33.26 25.54s38.15-2 40-12.54l.85-4.82c1.87-10.51-13-21.95-33.26-25.53s-38.15 2-40 12.52Z" transform="translate(-.01 -.01)" fill="url(#linear-gradient-2)"/><path d="M118.48 43c-1.87 10.52-19.78 16.13-40 12.55S43.36 40.51 45.22 30 65 13.88 85.23 17.47 120.34 32.49 118.48 43Z" transform="translate(-.01 -.01)" fill="url(#linear-gradient-3)"/><path d="M61.62 17.56a30.57 30.57 0 0 0-10.5 4.23l18.13 6.34Z" transform="translate(-.01 -.01)" fill="url(#linear-gradient-4)"/><path d="m46.26 36.69 15.63-3.11-16.16-5.48a12.5 12.5 0 0 0-.51 1.9 11.49 11.49 0 0 0 1.04 6.69Z" transform="translate(-.01 -.01)" fill="url(#linear-gradient-5)"/><path d="M85.23 17.45a69.92 69.92 0 0 0-12.42-1.08l8.11 11.21L89 18.26a47.64 47.64 0 0 0-3.77-.81Z" transform="translate(-.01 -.01)" fill="url(#linear-gradient-6)"/><path d="M51 43.19a41.91 41.91 0 0 0 10.61 7l9.32-11Z" transform="translate(-.01 -.01)" fill="url(#linear-gradient-7)"/><path d="m102 22.74-9.14 10.75 19.7-3.87A41.92 41.92 0 0 0 102 22.74Z" transform="translate(-.01 -.01)" fill="url(#linear-gradient-8)"/><path d="M118 44.75a10.65 10.65 0 0 0 .48-1.76 11.44 11.44 0 0 0-1-6.79l-15.66 3.11Z" transform="translate(-.01 -.01)" fill="url(#linear-gradient-9)"/><path d="m112.76 51-18.34-6.2 7.76 10.58A30.18 30.18 0 0 0 112.76 51Z" transform="translate(-.01 -.01)" fill="url(#linear-gradient-10)"/><path d="M78.46 55.54A67.66 67.66 0 0 0 91 56.63l-8.23-11.37-8.08 9.49c1.24.25 2.5.55 3.77.79Z" transform="translate(-.01 -.01)" fill="url(#linear-gradient-11)"/><path d="m85.86 41.87 10.37 14.47a49.8 49.8 0 0 0 3.58-.49L90.92 43.6Z" transform="translate(-.01 -.01)" fill="url(#linear-gradient-12)"/><path d="m95.64 37.15 20.07-3.94a19.44 19.44 0 0 0-1.71-2.13l-23 4.47Z" transform="translate(-.01 -.01)" fill="url(#linear-gradient-13)"/><path d="m68 35.75-20.06 3.93a24.13 24.13 0 0 0 1.75 2.15l23-4.49Z" transform="translate(-.01 -.01)" fill="url(#linear-gradient-14)"/><path d="M77.79 31 67.53 16.71c-1.23.12-2.43.28-3.58.48l8.72 12.07Z" transform="translate(-.01 -.01)" fill="url(#linear-gradient-15)"/><path d="m86.65 35.94 12.43-14.57A64.71 64.71 0 0 0 92.3 19L79.88 33.55c-.35.77-1.28 3.2-.44 3.83a45.41 45.41 0 0 0 4.37 1.85l30.57 10.55a13.25 13.25 0 0 0 2.79-3.32Z" transform="translate(-.01 -.01)" fill="url(#linear-gradient-16)"/><path d="M64.57 51.52a70.71 70.71 0 0 0 6.79 2.35l12.43-14.59a40.71 40.71 0 0 1-4.36-1.85c-.84-.62.09-3.11.43-3.84l-30.49-10.5a13.57 13.57 0 0 0-2.85 3.33L77 36.9Z" transform="translate(-.01 -.01)" fill="url(#linear-gradient-17)"/><path d="M78.23 35.63c-.19 1.09 1.38 2.28 3.51 2.66s4-.24 4.19-1.34l5.81-33.76L84 1.86Z" transform="translate(-.01 -.01)" fill="url(#linear-gradient-18)"/><path d="M90.11.88A3.58 3.58 0 0 0 88.33.1a3.5 3.5 0 0 0-2 .16L85 .88a1.65 1.65 0 0 0-.6.41 1.41 1.41 0 0 0-.35.63c-.2 1.09 1.37 2.28 3.5 2.66s4-.24 4.19-1.34A1.54 1.54 0 0 0 91.22 2Z" transform="translate(-.01 -.01)" fill="url(#linear-gradient-19)"/><path d="M88.33.07c1.33.24 2.33 1 2.2 1.68s-1.29 1.06-2.64.82-2.31-1-2.2-1.66S87-.16 88.33.07Z" transform="translate(-.01 -.01)" fill="url(#linear-gradient-20)"/></g></svg>
