<svg xmlns="http://www.w3.org/2000/svg" xmlns:xlink="http://www.w3.org/1999/xlink" width="72" height="72" viewBox="0 0 72 72"><defs><linearGradient id="a" x1="22.17" y1="51.58" x2="61.32" y2="12.43" gradientTransform="matrix(1, 0, 0, -1, 0, 74)" gradientUnits="userSpaceOnUse"><stop offset="0.4" stop-color="#002158"/><stop offset="1" stop-color="#003d82"/></linearGradient></defs><path d="M72,36A36,36,0,1,1,61.46,10.54,36,36,0,0,1,72,36Z" fill="#003f8a"/><path d="M16.36,47h6.3v6.3Z" fill="#002158" opacity="0.5" style="isolation:isolate"/><path d="M55.46,22.19H22.4v34L38.16,71.93a36,36,0,0,0,33.73-33.3Z" opacity="0.5" fill="url(#a)" style="isolation:isolate"/><path d="M57,23.7a15.1,15.1,0,0,0-2.78-2.53c-.61-.2-.82.82-1.49.82h-30a6.21,6.21,0,0,0-6.2,6.23V44.51c0,1-.92,1.55-.05,2.51a21.84,21.84,0,0,0,1.73,1.74,6.24,6.24,0,0,0,2.06,1.46,6.4,6.4,0,0,0,2.48.51l-.3,5.43,1.69,1.69,7.13-7.13H51.4a7.56,7.56,0,0,0,7.52-7.81V28.22a6.25,6.25,0,0,0-.5-2.46A6.18,6.18,0,0,0,57,23.7Z" fill="#d9e2ee"/><path d="M51,20.31H21a6.21,6.21,0,0,0-6.2,6.22V42.82a6.23,6.23,0,0,0,.47,2.38,6.39,6.39,0,0,0,1.35,2,6.25,6.25,0,0,0,2,1.34A6.06,6.06,0,0,0,21,49H22.4v7.12L29.53,49H51a6.21,6.21,0,0,0,6.21-6.21V26.53A6.21,6.21,0,0,0,51,20.31Z" fill="#fff"/><path d="M43.6,33a4,4,0,0,1-.69-.06,3.61,3.61,0,0,1-1.83-1,3.58,3.58,0,0,1-.77-3.88,3.56,3.56,0,0,1,1.31-1.61,3.6,3.6,0,0,1,2-.6h0a3.5,3.5,0,0,1,1.35.27,3.39,3.39,0,0,1,1.16.78,3.6,3.6,0,0,1,.78,1.15,3.51,3.51,0,0,1,.27,1.36h0a3.58,3.58,0,0,1-2.2,3.3A3.6,3.6,0,0,1,43.6,33Zm0-5.13h0a1.57,1.57,0,0,0-1.44,1,1.57,1.57,0,0,0,.34,1.71,1.57,1.57,0,0,0,1.7.33,1.66,1.66,0,0,0,.71-.57,1.58,1.58,0,0,0,.26-.87h0a1.52,1.52,0,0,0-.12-.59A1.56,1.56,0,0,0,44.2,28,1.52,1.52,0,0,0,43.61,27.89Zm3.56,1.56h0Z" fill="#e53434"/><path d="M50.51,42.46a3.33,3.33,0,0,1-.7-.07,3.56,3.56,0,0,1,.7-7.06h0a3.54,3.54,0,0,1,2.52,1,3.73,3.73,0,0,1,.77,1.16,3.58,3.58,0,0,1,.27,1.36h0a3.56,3.56,0,0,1-3.56,3.57Zm0-5.13a1.57,1.57,0,0,0-.31,3.1,1.54,1.54,0,0,0,.9-.09,1.66,1.66,0,0,0,.71-.57,1.59,1.59,0,0,0,.26-.88h0a1.61,1.61,0,0,0-.12-.6,1.31,1.31,0,0,0-.34-.5,1.43,1.43,0,0,0-.5-.34A2.13,2.13,0,0,0,50.51,37.33Z" fill="#e53434"/><rect x="40.77" y="33.17" width="12.58" height="2" transform="translate(-3.8 62.36) rotate(-64.99)" fill="#e53434"/><path d="M22.41,32.28a2.55,2.55,0,0,0,1.31.7,2.5,2.5,0,0,0,1.48-.15,2.54,2.54,0,0,0,1.15-.95,2.48,2.48,0,0,0,.44-1.42h0A2.55,2.55,0,0,0,26,28.64a2.62,2.62,0,0,0-1.81-.75,2.58,2.58,0,0,0-2.37,1.59,2.55,2.55,0,0,0,.56,2.8Z" fill="none"/><path d="M24.22,35h0a2.72,2.72,0,0,0-2.66,3.23,2.7,2.7,0,0,0,2.13,2.13,2.71,2.71,0,0,0,2.44-4.57A2.73,2.73,0,0,0,24.22,35Z" fill="none"/><path d="M27.55,34.4a5.58,5.58,0,0,0-.47-.38A4.41,4.41,0,0,0,28,33a4.55,4.55,0,0,0-.57-5.76A4.56,4.56,0,0,0,20,28.71a4.51,4.51,0,0,0-.26,2.64A4.58,4.58,0,0,0,21,33.69a3.68,3.68,0,0,0,.37.32A4.7,4.7,0,0,0,26,42.08a4.76,4.76,0,0,0,2.11-1.73,4.74,4.74,0,0,0-.58-6Zm-5.7-4.92a2.58,2.58,0,0,1,2.37-1.59,2.62,2.62,0,0,1,1.81.75,2.55,2.55,0,0,1,.76,1.82h0a2.48,2.48,0,0,1-.44,1.42,2.54,2.54,0,0,1-1.15.95,2.5,2.5,0,0,1-1.48.15,2.55,2.55,0,0,1-1.31-.7,2.55,2.55,0,0,1-.56-2.8Zm4.62,9.76a2.75,2.75,0,0,1-2.78,1.15,2.7,2.7,0,0,1-2.13-2.13A2.69,2.69,0,0,1,24.22,35h0a2.73,2.73,0,0,1,1.91.79,2.73,2.73,0,0,1,.34,3.42Z" fill="#e53434"/><path d="M34.58,42.56a4.48,4.48,0,0,1-1.81-.37,4.57,4.57,0,0,1-1.53-1,4.65,4.65,0,0,1-1-1.56,4.56,4.56,0,0,1-.31-1.82V30.53a4.64,4.64,0,0,1,9.27,0V37.8a4.57,4.57,0,0,1-1.3,3.35,4.53,4.53,0,0,1-1.52,1A4.48,4.48,0,0,1,34.58,42.56Zm0-14.55a2.68,2.68,0,0,0-1.84.74,2.63,2.63,0,0,0-.8,1.81V37.8a2.68,2.68,0,0,0,.18,1.07,2.53,2.53,0,0,0,.56.89,2.73,2.73,0,0,0,.87.59,2.63,2.63,0,0,0,2.06,0,2.73,2.73,0,0,0,.87-.59,2.85,2.85,0,0,0,.56-.89,2.45,2.45,0,0,0,.17-1V30.55a2.61,2.61,0,0,0-.8-1.8A2.64,2.64,0,0,0,34.58,28Z" fill="#e53434"/></svg>
