<svg xmlns="http://www.w3.org/2000/svg" xmlns:xlink="http://www.w3.org/1999/xlink" width="72" height="72" viewBox="0 0 72 72"><defs><linearGradient id="a" x1="15.04" y1="32.99" x2="25.02" y2="32.99" gradientTransform="matrix(1, 0, 0, -1, 0, 74)" gradientUnits="userSpaceOnUse"><stop offset="0.4" stop-color="#002158"/><stop offset="1" stop-color="#003d82"/></linearGradient><linearGradient id="b" x1="24.74" y1="44.66" x2="64.91" y2="16.54" xlink:href="#a"/></defs><path d="M72,36a36,36,0,1,1-2.74-13.77A36,36,0,0,1,72,36Z" fill="#003f8a"/><path d="M25,42.78l-3,3.16L15,39.47l.3-2.94,2.51-.45Z" opacity="0.5" fill="url(#a)" style="isolation:isolate"/><path d="M40.06,10.9l-8,8,13,13L29.18,47.79,26.38,45v9.66L43,71.3a36,36,0,0,0,28.41-29Z" opacity="0.5" fill="url(#b)" style="isolation:isolate"/><path d="M41.67,14.86A5.69,5.69,0,0,1,30.4,16a5.62,5.62,0,0,1,.33-3.29,5.73,5.73,0,0,1,2.09-2.55,5.73,5.73,0,0,1,5.34-.52A5.46,5.46,0,0,1,40,10.84a5.66,5.66,0,0,1,1.67,4Z" fill="#e53434"/><path d="M40.56,14.86A4.55,4.55,0,1,1,36,10.32a4.56,4.56,0,0,1,4.56,4.54Z" fill="none" stroke="#fff" stroke-width="1.7"/><path d="M55,35.32H52.28A13.81,13.81,0,0,0,47,27.87a9,9,0,0,1,.88-2.21c.9-1.54,1.56-1.9,1.32-2.47-.14-.34-1-.62-3.8.37a17.39,17.39,0,0,0-3.57,1.75A19.58,19.58,0,0,0,36,24.47c-9,0-16.31,5.91-16.68,13.36a2.34,2.34,0,0,1-.83,1.26,2.3,2.3,0,0,1-1.42.5,1.8,1.8,0,0,1-1.26-.52,1.77,1.77,0,0,1-.52-1.25,1.33,1.33,0,0,1,1.34-1.34,1,1,0,0,1,.37.08.85.85,0,0,1,.32.21,1,1,0,0,1,.22.32,1.16,1.16,0,0,1,.07.37.81.81,0,0,1-.05.27.73.73,0,0,1-.16.23.51.51,0,0,1-.23.15.59.59,0,0,1-.27,0,.41.41,0,0,0-.29.13.42.42,0,0,0-.13.3.43.43,0,0,0,.13.3.45.45,0,0,0,.29.12,1.54,1.54,0,0,0,1.1-.45,1.61,1.61,0,0,0,.46-1.1,1.89,1.89,0,0,0-.54-1.29,1.85,1.85,0,0,0-1.29-.53,2.2,2.2,0,0,0-1.54.63,2.17,2.17,0,0,0-.64,1.53,2.61,2.61,0,0,0,2.62,2.61,3.09,3.09,0,0,0,1.24-.25,3.2,3.2,0,0,0,1.05-.73,13.51,13.51,0,0,0,6.57,10.09v4.17a1.31,1.31,0,0,0,.37.9,1.26,1.26,0,0,0,.9.37h3.63a1.24,1.24,0,0,0,.89-.37,1.26,1.26,0,0,0,.37-.9V52a19.85,19.85,0,0,0,7.83,0V53.7A1.26,1.26,0,0,0,41.19,55h3.63a1.26,1.26,0,0,0,1.26-1.26V49.52a14,14,0,0,0,6.22-8h2.76a1.26,1.26,0,0,0,.89-.37,1.24,1.24,0,0,0,.37-.89V36.6a1.23,1.23,0,0,0-.09-.5,1.42,1.42,0,0,0-.28-.41,1.19,1.19,0,0,0-.42-.28A1.43,1.43,0,0,0,55,35.32Z" fill="#fff"/><path d="M41.06,27.78h-.13a16.12,16.12,0,0,0-9.86,0,.44.44,0,0,1-.32,0,.43.43,0,0,1-.2-.24.44.44,0,0,1,0-.32.42.42,0,0,1,.24-.21,16.88,16.88,0,0,1,10.38,0,.47.47,0,0,1,.25.21.4.4,0,0,1,0,.32.45.45,0,0,1-.16.22.5.5,0,0,1-.26.08Z" fill="#e53434"/><path d="M36,49.86c-7.27,0-13.52-3.43-16.26-8.34a13.93,13.93,0,0,0,6.19,8V53.7a1.3,1.3,0,0,0,.37.89,1.26,1.26,0,0,0,.9.37h3.63a1.24,1.24,0,0,0,.89-.37,1.26,1.26,0,0,0,.37-.89V52a19.85,19.85,0,0,0,7.83,0V53.7A1.26,1.26,0,0,0,41.19,55h3.63a1.26,1.26,0,0,0,1.26-1.26V49.52a14,14,0,0,0,6.21-8C49.52,46.43,43.27,49.86,36,49.86Z" fill="#d9e2ee"/><path d="M34.76,16.41a.37.37,0,0,0-.18,0,.3.3,0,0,0-.16.08.33.33,0,0,0-.11.15.39.39,0,0,0,0,.18.5.5,0,0,0,.08.26.45.45,0,0,0,.22.16l.24.08a3.22,3.22,0,0,0,.76.09,1.93,1.93,0,0,0,2.16-1.77,1.37,1.37,0,0,0-.14-.72,1.47,1.47,0,0,0-.47-.55A2.41,2.41,0,0,0,35.79,14h-.33l.11-.77h1.5a.48.48,0,0,0,.34-.14.46.46,0,0,0,.15-.34.47.47,0,0,0-.15-.35.48.48,0,0,0-.34-.14h-1.9a.57.57,0,0,0-.33.13.53.53,0,0,0-.16.39c-.07.58-.19,1.46-.19,1.53a.45.45,0,0,0,0,.23.39.39,0,0,0,.12.19c.12.12.19.15.47.15,1,0,1.42.32,1.42.85s-.52.77-1,.77A3.22,3.22,0,0,1,34.76,16.41Z" fill="#fff"/><path d="M47,32.75a1.55,1.55,0,0,1-.25.83,1.5,1.5,0,0,1-.67.55,1.49,1.49,0,0,1-.86.08A1.47,1.47,0,0,1,44.08,33a1.49,1.49,0,0,1,.08-.86,1.44,1.44,0,0,1,.55-.67,1.5,1.5,0,0,1,1.88.18A1.5,1.5,0,0,1,47,32.75Z" fill="#e53434"/></svg>
