<svg xmlns="http://www.w3.org/2000/svg" xmlns:xlink="http://www.w3.org/1999/xlink" width="72" height="72" viewBox="0 0 72 72"><defs><linearGradient id="a" x1="16.69" y1="49.67" x2="64.61" y2="16.11" gradientTransform="matrix(1, 0, 0, -1, 0, 74)" gradientUnits="userSpaceOnUse"><stop offset="0.4" stop-color="#002158"/><stop offset="1" stop-color="#003d82"/></linearGradient></defs><path d="M72,36A36,36,0,1,1,61.46,10.54,36,36,0,0,1,72,36Z" fill="#003f8a"/><path d="M71.89,38.59l-22-22H22.13V53.73l18,18A36,36,0,0,0,71.89,38.59Z" opacity="0.5" fill="url(#a)" style="isolation:isolate"/><path d="M26.78,14.21l2.5,2.5h-2.5Z" fill="#002158" opacity="0.5" style="isolation:isolate"/><path d="M33.22,14.21l2.5,2.5H33.23Z" fill="#002158" opacity="0.5" style="isolation:isolate"/><path d="M39.67,14.21l2.5,2.5h-2.5Z" fill="#002158" opacity="0.5" style="isolation:isolate"/><path d="M46.11,14.21l2.5,2.5H46.12Z" fill="#002158" opacity="0.5" style="isolation:isolate"/><path d="M51.57,23.1H23.81V55.43H51.57Z" fill="#b6c4d3"/><path d="M51.57,18.26H23.81V24.8H51.57Z" fill="#bc2e2e"/><path d="M49.88,45.81V21.41H22.12V53.74H42" fill="#fff"/><path d="M49.88,45.81H42v7.93Z" fill="#d9e2ee"/><path d="M49.88,16.57H22.12v6.54H49.88Z" fill="#e53434"/><path d="M26.34,21.77A1.34,1.34,0,1,0,25,20.43,1.34,1.34,0,0,0,26.34,21.77Z" fill="#bc2e2e"/><path d="M27,14.71a.68.68,0,0,0-.67-.66.67.67,0,0,0-.47.2.66.66,0,0,0-.19.46v5.57a.68.68,0,0,0,.19.47.7.7,0,0,0,.47.19.67.67,0,0,0,.47-.19.65.65,0,0,0,.2-.47Z" fill="#d9e2ee"/><path d="M45.67,21.77a1.34,1.34,0,1,0-1.34-1.34A1.34,1.34,0,0,0,45.67,21.77Z" fill="#bc2e2e"/><path d="M46.33,14.71a.66.66,0,0,0-.19-.46.65.65,0,0,0-.47-.2.63.63,0,0,0-.47.2.66.66,0,0,0-.19.46v5.57a.68.68,0,0,0,.19.47.67.67,0,0,0,.47.19.65.65,0,0,0,.66-.66Z" fill="#d9e2ee"/><path d="M39.22,21.77a1.34,1.34,0,1,0-1.34-1.34A1.34,1.34,0,0,0,39.22,21.77Z" fill="#bc2e2e"/><path d="M39.89,14.71a.68.68,0,0,0-.67-.66.67.67,0,0,0-.47.2.66.66,0,0,0-.19.46v5.57a.68.68,0,0,0,.19.47.7.7,0,0,0,.47.19.67.67,0,0,0,.47-.19.65.65,0,0,0,.2-.47Z" fill="#d9e2ee"/><path d="M32.78,21.77a1.34,1.34,0,1,0-1.34-1.34A1.34,1.34,0,0,0,32.78,21.77Z" fill="#bc2e2e"/><path d="M33.44,14.71a.66.66,0,0,0-.19-.46.63.63,0,0,0-.47-.2.65.65,0,0,0-.47.2.66.66,0,0,0-.19.46v5.57a.65.65,0,0,0,.66.66.67.67,0,0,0,.47-.19.68.68,0,0,0,.19-.47Z" fill="#d9e2ee"/><rect x="39.11" y="29.98" width="2.22" height="2.23" fill="none"/><rect x="26.43" y="34.21" width="2.22" height="2.23" fill="none"/><rect x="26.43" y="29.98" width="2.22" height="2.23" fill="none"/><rect x="30.65" y="29.98" width="2.23" height="2.23" fill="none"/><rect x="34.88" y="29.98" width="2.23" height="2.23" fill="none"/><rect x="34.88" y="34.21" width="2.23" height="2.23" fill="none"/><rect x="39.11" y="34.21" width="2.22" height="2.23" fill="none"/><rect x="30.65" y="34.21" width="2.23" height="2.23" fill="none"/><rect x="34.88" y="38.43" width="2.23" height="2.23" fill="none"/><rect x="26.43" y="38.43" width="2.22" height="2.23" fill="none"/><rect x="43.33" y="29.98" width="2.23" height="2.23" fill="none"/><rect x="43.33" y="34.21" width="2.23" height="2.23" fill="none"/><rect x="39.11" y="38.43" width="2.22" height="2.23" fill="none"/><rect x="43.33" y="38.43" width="2.23" height="2.23" fill="none"/><rect x="30.65" y="38.43" width="2.23" height="2.23" fill="none"/><path d="M47.56,28.57H47V28H25v.59h-.58V42.05H25v.61H47v-.61h.58ZM34.88,34.21h2.23v2.22H34.88Zm-2,2.22H30.65V34.21h2.23Zm6.23-2.22h2.22v2.22H39.11Zm0-2V30h2.22v2.23Zm-2,0H34.88V30h2.23Zm-4.23,0H30.65V30h2.23Zm-4.23,0H26.43V30h2.22Zm0,2v2.22H26.43V34.21Zm0,4.22v2.23H26.43V38.43Zm2,0h2.23v2.23H30.65Zm4.23,0h2.23v2.23H34.88Zm4.23,0h2.22v2.23H39.11Zm4.22,0h2.23v2.23H43.33Zm0-2V34.21h2.23v2.22Zm0-4.22V30h2.23v2.23Z" fill="#b6c4d3"/><path d="M31.77,34.21a3.14,3.14,0,0,1-2.21-.91,3.17,3.17,0,0,1-.85-1.59A3.12,3.12,0,0,1,30,28.51,3.16,3.16,0,0,1,34,28.9a3.11,3.11,0,0,1,.91,2.2,3.12,3.12,0,0,1-3.11,3.11Zm0-4.23a1.12,1.12,0,0,0-1,.69,1.09,1.09,0,0,0-.07.64,1.17,1.17,0,0,0,.31.58,1.09,1.09,0,0,0,.57.3,1.17,1.17,0,0,0,.64-.06,1.12,1.12,0,0,0,.5-.41,1.16,1.16,0,0,0,.19-.62A1.13,1.13,0,0,0,31.77,30Z" fill="#e53434"/><path d="M44.44,38.42a3.05,3.05,0,0,1-.6-.06,3.12,3.12,0,0,1-1.13-5.64,3.2,3.2,0,0,1,3.93.39,3.1,3.1,0,0,1,.92,2.2A3,3,0,0,1,47,37a3.13,3.13,0,0,1-1.39,1.15A3.32,3.32,0,0,1,44.44,38.42Zm0-4.22a1.13,1.13,0,0,0-1,.68,1.12,1.12,0,0,0-.07.65,1.07,1.07,0,0,0,.31.57,1.09,1.09,0,0,0,.57.3,1.17,1.17,0,0,0,.64-.06,1.11,1.11,0,0,0,.5-.41,1.11,1.11,0,0,0-.14-1.41A1.15,1.15,0,0,0,44.44,34.2Z" fill="#e53434"/><path d="M27.54,42.65a3.11,3.11,0,0,1-2.2-.91,3.09,3.09,0,0,1-.85-1.6,3.16,3.16,0,0,1,.17-1.8,3.11,3.11,0,0,1,5.08-1,3.12,3.12,0,0,1,.39,3.93,3.09,3.09,0,0,1-1.4,1.15A3,3,0,0,1,27.54,42.65Zm0-4.23a1.08,1.08,0,0,0-.62.19,1.12,1.12,0,0,0-.41.5,1.16,1.16,0,0,0-.06.64,1.13,1.13,0,0,0,.3.57,1.09,1.09,0,0,0,.57.3,1.11,1.11,0,0,0,.65-.06,1.17,1.17,0,0,0,.5-.41,1.12,1.12,0,0,0,.18-.62,1.08,1.08,0,0,0-.32-.78A1.11,1.11,0,0,0,27.54,38.42Z" fill="#e53434"/><path d="M42,53.72l1.71,1.71h7.91V47.5l-1.7-1.69Z" fill="#a5b5c4"/></svg>
