<svg xmlns="http://www.w3.org/2000/svg" width="304" height="64" viewBox="0 0 304 64"><path fill="none" stroke="#fd0" stroke-miterlimit="10" stroke-width=".13" d="M50.98 34.85c-.08 2.56-.49 5.1-1.22 7.56a19.66 19.66 0 0 1-2.87 5.69c-2.29 3.03-5.06 4.52-6.92 5.53-.16.11-1.28.64-6.49 3.25V34.85h17.51Zm-30.97 0v22.03c-5.27-2.61-6.33-3.19-6.49-3.25-1.86-1.01-4.63-2.5-6.92-5.53a19.05 19.05 0 0 1-2.87-5.69c-.74-2.45-1.15-5-1.22-7.56h17.51Z"/><path fill="none" stroke="#000" stroke-miterlimit="10" stroke-width=".13" d="M50.98 3.45H33.42v17.99h17.56V3.45Zm-30.97 0H2.45v17.99h17.56V3.45Z"/><path fill="#131108" d="m26.72 63-.53-.27c-.8-.37-13.15-6.55-13.89-6.92C8.31 53.63.01 49.1.01 33.25V1h53.43v32.25c0 15.86-8.3 20.38-12.29 22.56-.75.43-13.15 6.55-13.89 6.92l-.53.27Z"/><path fill="#fff" d="M32.14 22.71V2.17H21.28v20.54H1.17v10.86h20.12v25.39c2.93 1.44 5.43 2.71 5.43 2.71l5.43-2.71V33.57h20.12V22.71H32.15Z"/><path fill="#e63329" d="M21.29 2.17H1.17v20.54h20.12V2.17Zm30.97 0H32.14v20.54h20.12V2.17Zm-30.97 31.4H1.17c.11 14.74 7.66 19 11.71 21.18l8.41 4.2V33.56Zm10.85 0v25.39l8.41-4.2c4.04-2.18 11.6-6.44 11.71-21.18H32.14Z"/><path fill="#131108" d="m39.06 28.3.43-.48-.53-.64-.53.64.43.48c0 .27 0 2.45-1.28 3.19.34.06.68.04 1.01-.05.08.42.21.83.37 1.22.16-.4.29-.8.37-1.22.33.06.67.08 1.01.05-1.28-.8-1.28-2.98-1.28-3.19Zm3.3-3.72.43-.48-.53-.64-.53.64.43.48c0 .27 0 2.45-1.28 3.19.34.06.68.04 1.01-.05.08.42.21.83.37 1.22.16-.4.29-.8.37-1.22.33.06.67.08 1.01.05-1.33-.75-1.28-2.93-1.28-3.19Zm3.25 3.72.43-.48-.53-.64-.53.64.43.48c0 .27 0 2.45-1.28 3.19.34.06.68.04 1.01-.05.08.42.21.83.37 1.22.16-.4.29-.8.37-1.22.33.06.67.08 1.01.05-1.28-.8-1.28-2.98-1.28-3.19Zm3.3-3.72.43-.48-.53-.64-.53.64.43.48c0 .27 0 2.45-1.28 3.19.34.06.68.04 1.01-.05.08.42.21.83.37 1.22.16-.4.29-.8.37-1.22.33.06.67.08 1.01.05-1.33-.75-1.28-2.93-1.28-3.19Zm-13.15 0 .43-.48-.53-.64-.53.64.43.48c0 .27 0 2.45-1.28 3.19.34.06.68.04 1.01-.05.08.42.21.83.37 1.22.16-.4.29-.8.37-1.22.33.06.67.08 1.01.05-1.28-.75-1.28-2.93-1.28-3.19ZM8.04 28.3l.43-.48-.53-.64-.53.64.43.48c0 .27 0 2.45-1.28 3.19.34.06.68.04 1.01-.05.08.42.21.83.37 1.22.16-.4.29-.8.37-1.22.33.06.67.08 1.01.05-1.28-.8-1.28-2.98-1.28-3.19Zm3.3-3.72.43-.48-.53-.64-.53.64.43.48c0 .27 0 2.45-1.28 3.19.34.06.68.04 1.01-.05.08.42.21.83.37 1.22.16-.4.29-.8.37-1.22.33.06.67.08 1.01.05-1.33-.75-1.33-2.93-1.28-3.19Zm3.24 3.72.43-.48-.53-.64-.53.64.43.48c0 .27 0 2.45-1.28 3.19.34.06.68.04 1.01-.05.08.42.21.83.37 1.22.16-.4.29-.8.37-1.22.33.06.67.08 1.01.05-1.28-.8-1.28-2.98-1.28-3.19Zm3.3-3.72.43-.48-.53-.64-.53.64.43.48c0 .27 0 2.45-1.28 3.19.34.06.68.04 1.01-.05.08.42.21.83.37 1.22.16-.4.29-.8.37-1.22.33.06.67.08 1.01.05-1.33-.75-1.28-2.93-1.28-3.19Zm-13.14 0 .43-.48-.53-.64-.53.64.43.48c0 .27 0 2.45-1.28 3.19.34.06.68.04 1.01-.05.08.42.21.83.37 1.22.16-.4.29-.8.37-1.22.33.06.67.08 1.01.05-1.28-.75-1.28-2.93-1.28-3.19ZM26.88 36.6l.43-.48-.53-.64-.53.64.43.48c0 .27 0 2.45-1.28 3.19.34.06.68.04 1.01-.05.08.42.21.83.37 1.22.16-.4.29-.81.37-1.22.33.06.67.08 1.01.05-1.33-.75-1.33-2.93-1.28-3.19Zm0 11.18.43-.48-.53-.64-.53.64.43.48c0 .27 0 2.45-1.28 3.19.34.06.68.04 1.01-.05.08.42.21.83.37 1.22.16-.4.29-.81.37-1.22.33.06.67.08 1.01.05-1.33-.8-1.33-2.98-1.28-3.19Zm3.03-5.59.43-.48-.53-.64-.53.64.43.48c0 .27 0 2.45-1.28 3.19.34.06.68.04 1.01-.05.08.42.21.83.37 1.22.16-.4.29-.8.37-1.22.33.06.67.08 1.01.05-1.33-.75-1.28-2.93-1.28-3.19Zm-6.12 0 .43-.48-.53-.64-.53.64.43.48c0 .27 0 2.45-1.28 3.19.34.06.68.04 1.01-.05.08.42.21.83.37 1.22.16-.4.29-.8.37-1.22.33.06.67.08 1.01.05-1.33-.75-1.28-2.93-1.28-3.19Zm6.12 11.12.43-.48-.53-.64-.53.64.43.48c0 .27 0 2.45-1.28 3.19.34.06.68.04 1.01-.05.08.42.21.83.37 1.22.16-.4.29-.81.37-1.22.33.06.67.08 1.01.05-1.33-.75-1.28-2.93-1.28-3.19Zm-6.12 0 .43-.48-.53-.64-.53.64.43.48c0 .27 0 2.45-1.28 3.19.34.06.68.04 1.01-.05.08.42.21.83.37 1.22.16-.4.29-.81.37-1.22.33.06.67.08 1.01.05-1.33-.75-1.28-2.93-1.28-3.19Zm3.09-42.04.43-.48-.53-.64-.53.64.43.48c0 .27 0 2.45-1.28 3.19.34.06.68.04 1.01-.05.08.42.21.83.37 1.22.16-.4.29-.81.37-1.22.33.06.67.08 1.01.05-1.33-.75-1.33-2.93-1.28-3.19Zm3.03-5.53.43-.48-.53-.64-.53.64.43.48c0 .27 0 2.45-1.28 3.19.34.06.68.04 1.01-.05.08.42.21.83.37 1.22.16-.4.29-.81.37-1.22.33.06.67.08 1.01.05-1.33-.8-1.28-2.98-1.28-3.19Zm-6.12 0 .43-.48-.53-.64-.53.64.43.48c0 .27 0 2.45-1.28 3.19.34.06.68.04 1.01-.05.08.42.21.83.37 1.22.16-.4.29-.81.37-1.22.33.06.67.08 1.01.05-1.33-.8-1.28-2.98-1.28-3.19Zm6.12 11.12.43-.48-.53-.64-.53.64.43.48c0 .27 0 2.45-1.28 3.19.34.06.68.04 1.01-.05.08.42.21.83.37 1.22.16-.4.29-.81.37-1.22.33.06.67.08 1.01.05-1.33-.8-1.28-2.93-1.28-3.19Zm-6.12 0 .43-.48-.53-.64-.53.64.43.48c0 .27 0 2.45-1.28 3.19.34.06.68.04 1.01-.05.08.42.21.83.37 1.22.16-.4.29-.81.37-1.22.33.06.67.08 1.01.05-1.33-.8-1.28-2.93-1.28-3.19Zm-6.87-4.58.05.27c.04.18.09.36.16.53.21.96.37 1.22.85 1.22.12 0 .24-.04.35-.1a.7.7 0 0 0 .24-.27l.11-.32c0-.05.11-.11.16-.11.16 0 .27.21.27.64 0 .11.05.43.11.85.04.25.06.5.05.75a.9.9 0 0 1-.11.53c.06.35.09.71.11 1.06.03.35-.04.7-.21 1.01.06.21.1.42.11.64 0 .2-.01.39-.05.59-.05.43-.11.53-.11.59 0 .08.01.15.05.21s.06.14.05.21c0 .05 0 .11-.05.11l-.32-.16-.37-.21A.88.88 0 0 1 18 20c-.32.32-.43.32-1.28.59-.13.03-.26.09-.37.16l-.21.11c-.16 0-.21-.21-.21-.75 0-.32.04-.64.11-.96a1.98 1.98 0 0 0-.59-.16.86.86 0 0 0-.27.05h-.05c-.05 0-.11-.05-.11-.16.02-.13.06-.25.11-.37l.16-.43c.09-.2.24-.36.43-.48.12-.11.27-.21.43-.27l.64-.11c.37-.05.59-.27.59-.53s-.16-.43-.53-.53l-.75-.27a2.42 2.42 0 0 1-.69-.32c-.43-.27-.48-.27-.59-.27s-.21.11-.21.32c0 .07 0 .13.02.2.02.06.06.12.1.17.04.05.1.09.16.12s.13.04.19.04h.09c.03 0 .05-.02.07-.04a.3.3 0 0 1 .16-.05c.03 0 .05.01.07.03s.03.05.03.07v.05l-.05.27c-.11.37-.29.71-.53 1.01l-.16.21c-.14.53-.46 1-.9 1.33a.65.65 0 0 0-.21.16.83.83 0 0 1-.16.21c-.05.05-.16.21-.32.43-.13.14-.27.26-.43.37-.21.16-.32.27-.32.32l-.16.27c-.05.05-.11.11-.16.11-.16 0-.27-.16-.37-.43q-.11-.27-.27-.27c-.11 0-.22.02-.32.05l-.21.05h-.64a4.48 4.48 0 0 0-1.12.21q-.05 0-.11-.11l-.04-.07v-.09a3 3 0 0 1 .53-1.38c.12-.21.28-.39.48-.53a.79.79 0 0 0-.47-.58l-.27-.11c-.05 0-.05-.05-.05-.11s.16-.21.37-.32c.3-.16.62-.25.96-.27.32.02.62.15.85.37.48.37.59.43.8.43a.7.7 0 0 0 .49-.21c.13-.13.2-.3.21-.49a1.53 1.53 0 0 0-.43-.9 2.2 2.2 0 0 1-.64-1.38c0-.28.08-.55.21-.8l.16-.27.04-.07v-.09c0-.11-.11-.21-.32-.21a3.56 3.56 0 0 0-1.43.58.45.45 0 0 0-.11.23c0 .04.02.08.05.11l.21.11.05.05s-.05.07-.05.11l-.32.43a4.87 4.87 0 0 1-.85.91l-.16.27c-.19.3-.45.55-.75.75-.11.11-.21.16-.21.21s-.05.11-.16.21a2.7 2.7 0 0 1-.21.37c-.12.2-.26.37-.43.53l-.48.48a3 3 0 0 0-.48 1.06c-.11.37-.21.59-.27.59s-.05-.05-.16-.11c-.32-.37-.64-.64-.8-.64-.05 0-.11.05-.21.11-.14.09-.31.15-.48.16l-.64.11a1.48 1.48 0 0 0-.96.53c-.05.05-.11.11-.16.11s-.11-.11-.11-.21v-.16l.11-.48c.08-.38.18-.75.32-1.12l.27-.53a.8.8 0 0 0 .11-.27 1 1 0 0 0-.31-.56.97.97 0 0 0-.59-.24c-.11 0-.16-.05-.16-.11s.16-.27.32-.43c.3-.25.67-.39 1.06-.43.26.02.52.09.75.21l.37.16c.12.05.24.09.37.11.37 0 .8-.37 1.28-1.17a2 2 0 0 0 .32-.85c0-.43-.21-.69-.53-.69-.28 0-.55.12-.75.32a.9.9 0 0 0-.27.53v.27c0 .16-.05.27-.16.27s-.37-.21-1.06-1.06c-.39-.4-.62-.93-.64-1.49-.59-.75-.75-1.06-.75-1.6v-.37a1.55 1.55 0 0 1-.53-1.17.61.61 0 0 1 .11-.43 1.75 1.75 0 0 1-.32-.64l-.11-.37a1.82 1.82 0 0 0-.27-.64c-.16-.21-.16-.27-.16-.32 0-.21.16-.27.75-.43 0-.13-.03-.25-.05-.37 0-.14.02-.29.05-.43l.11-.64a1.87 1.87 0 0 0-.06-1.06.82.82 0 0 0-.16-.37l-.11-.21s.01-.05.03-.07a.1.1 0 0 1 .07-.03c.4.13.76.34 1.06.64.96.8 1.17 1.12 1.33 2.13 0 .11.01.22.05.32.21.13.39.31.51.52.12.21.18.46.18.7 0 .39-.12.78-.32 1.12l-.32.53c-.11.18-.16.38-.16.59a2 2 0 0 0 .32 1.01c.27.48.48.64.75.64.43 0 .85-.8.85-1.65v-.43c0-.2.01-.39.05-.59.03-.16.05-.32.05-.48v-.69a.4.4 0 0 0-.05-.18.76.76 0 0 0-.11-.14l-.37-.43a2.81 2.81 0 0 1-.85-1.54c0-.12.01-.23.05-.34s.1-.21.18-.29c.08-.08.18-.15.28-.2a.8.8 0 0 1 .34-.07c.13 0 .25.01.37.05v-.11c0-.75.16-1.33.37-1.33h.11l.32.27.37.21.11.11q0-.21.21-.48c.08-.1.15-.21.21-.32a.47.47 0 0 0 .16-.27c.05-.05.05-.11.11-.16.05-.05.11-.11.16-.11s.11.05.16.27c.05.11.05.16.37.43l.21.21c.05.05.05.16.16.32 0 .05.05.05.05.16.09-.12.2-.23.32-.32l.27-.16c.11-.05.16-.11.21-.11l.11.11c.05.05.05.16.16.27.13.19.22.41.27.64v.37c.59.16.75.48.75 1.06a2.14 2.14 0 0 1-.69 1.44c-.32.37-.32.43-.32.64 0 1.28.9 1.97 2.45 2.02h1.12c.63 0 1.26.11 1.86.32.41.17.84.28 1.28.32.08 0 .15-.01.21-.05.05-.05.11-.11.11-.16 0-.21-.43-.43-1.81-.8-2.82-.8-3.99-1.92-3.99-3.78a2.56 2.56 0 0 1 1.73-2.41c.33-.12.68-.17 1.03-.15.58 0 1.15.1 1.7.27l.69.27c.12.04.25.06.37.05.21 0 .37-.21.37-.59 0-.21.05-.27.21-.27s.48.27.8.64c.25.33.42.71.48 1.12a1 1 0 0 1-.58.91 1.66 1.66 0 0 1-1.49.85c-.48 0-1.17-.27-2.34-.96-.43-.21-.59-.32-.8-.32-.32 0-.48.16-.48.43s.21.43.69.59c.47.11.89.35 1.22.69.65.09 1.27.33 1.81.69 1.49.48 2.45 1.49 2.45 2.66.02.25-.02.51-.11.75s-.22.46-.4.64a1.92 1.92 0 0 1-1.36.58.9.9 0 0 1-.91.11Z"/><path fill="#fd0" d="M18.63 19.79a1.24 1.24 0 0 1-.05-.43v-.16l.05-.27v-.21c0-.18-.03-.36-.11-.53l-.21-.27-.16-.32c0-.05-.05-.11-.05-.16 0-.03.01-.05.03-.07s.05-.03.07-.03q.05 0 .21.11s.05.04.07.04h.09c.11 0 .16-.16.16-.48.02-.2-.02-.4-.11-.59l-.27-.27-.21-.21c-.05-.05-.11-.11-.11-.16s.05-.11.16-.11c.13.02.25.05.37.11h.05c.05 0 .11-.05.11-.16v-.05l-.05-.37-.11-.37c-.05-.11-.05-.16-.11-.16h-.05l-.43.11h-.05a1.47 1.47 0 0 1-1.33-1.06l-.32-1.12a2.62 2.62 0 0 0-.8-1.06.74.74 0 0 0-.32-.16l-.32-.05s-.05-.01-.07-.03a.1.1 0 0 1-.03-.07c0-.05.05-.11.21-.11l.59.05c.31.04.61.11.9.21.38.14.77.23 1.17.27.17.02.35 0 .52-.04a1.24 1.24 0 0 0 .76-.67c.07-.16.11-.33.11-.51 0-.28-.07-.56-.19-.82a1.96 1.96 0 0 0-.5-.67 1.6 1.6 0 0 0-.59-.37.1.1 0 0 0-.07.03.1.1 0 0 0-.03.07v.21c0 .11-.05.16-.11.16s-.16-.11-.32-.32c-.1-.29-.29-.55-.53-.74-.25-.19-.54-.3-.85-.33-.11 0-.16.05-.16.11s.05.11.11.27l.16.32s.05.1.05.16l-.05.05a.3.3 0 0 1-.15-.05.43.43 0 0 1-.12-.11l-.27-.27-.21-.32a1.65 1.65 0 0 0-.69-.59 3.42 3.42 0 0 0-.43-.21.31.31 0 0 0-.21-.05.1.1 0 0 0-.07.03.1.1 0 0 0-.03.07v.09c0 .03.02.05.04.07.11.21.16.27.16.32a.1.1 0 0 1-.03.07.1.1 0 0 1-.07.03c-.11 0-.43-.27-.64-.64-.2-.28-.31-.61-.32-.96a1.2 1.2 0 0 1 .36-.92c.12-.12.26-.21.42-.28.16-.06.33-.09.5-.08.46.03.9.17 1.28.43l.8.48c.29.18.62.29.96.32.16-.02.32-.05.48-.11a.36.36 0 0 0 .21-.11c.05-.05.11-.05.11-.11s0-.05-.05-.05l-.11-.05-.37-.05a1.19 1.19 0 0 1-.48-.16l-.85-.43a7.02 7.02 0 0 0-.59-.32c-.11-.05-.21-.11-.21-.16s0-.05.05-.05h.09c.03 0 .05.02.07.04.19.13.41.2.64.21l.75.27c.36.11.74.18 1.12.21a.58.58 0 0 0 .58-.58 1.24 1.24 0 0 0-.32-.75l-.11-.11c-.05 0-.11.05-.11.16V4l.05.21c0 .09-.03.18-.09.25a.35.35 0 0 1-.23.12.65.65 0 0 1-.27-.05l-1.12-.37a5.13 5.13 0 0 0-1.81-.37c-.3-.02-.59.02-.87.11a2.25 2.25 0 0 0-1.28 1.16 2.3 2.3 0 0 0-.2.86c0 1.33.96 2.24 3.3 3.03 2.34.8 2.66 1.01 2.66 1.6a.8.8 0 0 1-.25.46.74.74 0 0 1-.49.18c-.14.01-.29 0-.43-.05-.05 0-.48-.11-1.17-.27a9.56 9.56 0 0 0-2.13-.27c-1.65 0-2.61.32-3.41 1.06-.21.21-.27.21-.48.21H9.5a.52.52 0 0 0-.48.32c-.11.15-.2.31-.27.48l-.09.08a.27.27 0 0 1-.12.03c-.16 0-.27-.11-.43-.53a1.8 1.8 0 0 0-.37-.53l-.32-.32-.11-.11v-.09c0-.03.02-.05.04-.07.1-.13.19-.27.27-.43q.05-.21.16-.21c.11 0 .16.11.16.48.02.17.07.33.16.48l.21.43c0 .05.11.11.16.11.16 0 .43-.43.48-.85.05-.43.11-.48.16-.48s.05 0 .05.05l.16.32c.05.1.13.19.21.27.11.05.16.11.21.11.16 0 .16-.11.21-.43v-.16l-.05-.27v-.16c0-.11.05-.16.11-.16s.11 0 .11.05l.16.16.14.11c.05.03.11.04.18.05.16 0 .21-.05.21-.16s-.05-.16-.16-.37l-.11-.21c-.16-.27-.27-.37-.37-.37h-.16l-.21.11c-.05 0-.11.05-.16.05h-.02l-.02-.01-.01-.02V9.6c.04-.25.13-.48.27-.69.18-.42.28-.87.27-1.33.05-.9.16-1.49.32-1.49s.11.05.11.27v.37c0 .09.02.18.05.27.16 0 .32-.21.48-.59.05-.12.09-.24.11-.37v-.05l-.32-.64-.32-.11s-.08-.02-.11-.05v-.43l-.05-.27-.05-.16-.11-.21c-.27.12-.5.3-.69.53-.16.16-.21.27-.27.27a.1.1 0 0 1-.07-.03.1.1 0 0 1-.03-.07c0-.09.01-.18.05-.27v-.11a1.1 1.1 0 0 0-.58-.96l-.11.16-.11.16-.21.27c-.06.1-.12.21-.16.32 0 .05-.05.16-.05.21v.11q0 .16-.05.16h-.05l-.11-.16-.21-.21-.27-.21-.16-.11-.04.07v.09a.8.8 0 0 0-.11.27v.59c0 .16-.05.21-.11.21s-.11-.05-.21-.11a.36.36 0 0 0-.27-.05c-.27 0-.43.16-.43.48 0 .32.09.64.27.9l.21.27c.05.05.16.16.16.11l.05-.37-.05-.27v-.11c0-.11.05-.16.11-.16s.16.11.21.37l.16.64.16.8c.05.24.13.47.21.69.16.32.21.53.27.59q.21.27.21.32v.02l-.01.02-.02.01h-.11c-.03 0-.05-.02-.07-.04-.05-.05-.11-.05-.21-.05h-.16c-.27 0-.32.21-.32 1.38 0 .7.11 1.4.32 2.08l.37.9c.06.13.1.28.11.43 0 1.22-1.65 3.19-3.46 4.1a1.37 1.37 0 0 0-.96 1.39v.21a.97.97 0 0 1 .59-.21c.53-.11.59-.21.69-.43l.05-.21c0-.11.05-.11.48-.32.11-.04.2-.12.27-.21.11-.16.16-.21.21-.21s.05 0 .05.05v.05l-.16.48v.11c0 .18.07.36.17.51.1.15.25.27.42.34.01-.24.09-.48.21-.69l.32-.48c.13-.23.18-.49.16-.75.01-.18 0-.36-.05-.53v-.16c0-.11.05-.16.11-.16s.11 0 .11.05l.05.32c0 .05.11.11.16.11.16 0 .37-.21.59-.59a.73.73 0 0 0 .11-.43v-.21l-.05-.27v-.05c0-.11.05-.21.16-.21s.05 0 .05.05l.11.37c.05.11.11.21.21.21s.32-.21.43-.43c.11-.21.16-.45.16-.69 0-.37.05-.48.16-.48s.05 0 .11.05l.05.21c0 .11.05.16.11.16.16-.1.29-.25.37-.43l.04-.07v-.09c0-.05-.03-.09-.05-.13a.24.24 0 0 0-.11-.09c-.16-.16-.21-.16-.21-.37s.08-.42.21-.59c.09-.13.16-.27.21-.43.21-.43.27-.53.37-.53s.11.05.11.16v.09c0 .03-.02.05-.04.07a.31.31 0 0 0-.05.21c0 .03.01.05.03.07a.1.1 0 0 0 .07.03c.11-.03.22-.06.32-.11.15-.09.31-.16.48-.21l.59-.21a1 1 0 0 1 .64 0c.12.03.25.05.37.05.04 0 .07 0 .1-.02l.09-.06.06-.09a.36.36 0 0 0 .02-.1c-.04-.2-.13-.38-.27-.53-.05-.05-.11-.11-.11-.16v-.05c0-.05.05-.05.11-.05s.37.27.64.69c1.49 2.29 1.97 2.87 2.98 3.19 1.01.32 1.28.53 1.28 1.12-.05.45-.24.88-.53 1.22-.75 1.06-.9 1.44-.9 2.13v.11c.11-.05.16-.05.21-.11.16-.05.21-.11.27-.11l.43-.11c.11 0 .27-.21.27-.37v-.05l-.05-.37v-.05c0-.14.06-.27.16-.37.05 0 .05-.05.11-.05s.11.05.16.11l.27.59c.05.21.16.37.53.53ZM4.9 7.39c-.11 0-.21.11-.21.32l-.05.32c-.03.14-.05.28-.05.43 0 .27.05.43.16.43s.27-.21.37-.43a.95.95 0 0 0 .05-.37c0-.11-.05-.27-.05-.37-.05-.21-.16-.32-.21-.32Z"/><path fill="#fd0" d="m3.46 4.89.21.21c.45.55.66 1.26.59 1.97 0 .3-.02.6-.05.9 0 .27-.05.53-.05.69 0 2.13.69 3.73 1.6 3.73.27 0 .48-.16.75-.53.05-.05.11-.11.16-.11s.11.05.11.16l.05.37.05.32.05.37.05.32v.05c0 .11-.05.16-.11.16l-.32.05c-.18.03-.34.1-.48.21-.27.16-.43.27-.43.32l-.21.37s-.01.05-.03.07a.1.1 0 0 1-.07.03c-.11 0-.27-.16-.43-.48a2.4 2.4 0 0 1-.27-.53c0-.05.05-.05.16-.05h.59s.05-.01.07-.03a.1.1 0 0 0 .03-.07.16.16 0 0 0-.05-.11l-.75-.32a1.6 1.6 0 0 1-.59-.59 2.78 2.78 0 0 1-.32-.75v-.06c0-.02.02-.04.03-.05.02-.02.03-.03.05-.03h.06q.05 0 .11.05c.06.04.14.06.21.05a.1.1 0 0 0 .07-.03.1.1 0 0 0 .03-.07c0-.05-.05-.11-.16-.16a2.03 2.03 0 0 1-.66-.61 2.26 2.26 0 0 1-.35-.83c0-.11.05-.21.11-.21h.11l.21.05c.11 0 .16-.05.16-.11s-.05-.11-.16-.16a2.4 2.4 0 0 0-.27-.16.51.51 0 0 1-.21-.27c-.1-.17-.19-.35-.27-.53l-.21-.48a2.4 2.4 0 0 1-.16-.27l-.11-.16a1 1 0 0 1 .53-.16c.21 0 .37.16.53.59.11.27.21.43.27.43s.05-.05.05-.21c0-.18-.01-.36-.05-.53a.95.95 0 0 1-.05-.37l-.05-.21-.21-.11c-.05 0-.11-.11-.16-.16a.76.76 0 0 1-.16-.37c0-.11.01-.22.05-.32.11-.36.18-.74.21-1.12v-.16h.11Zm2.02 12.34a2.77 2.77 0 0 1-.48-.11.74.74 0 0 1-.32-.16c-.2-.09-.42-.15-.64-.16-.25 0-.5.1-.69.27l.16.11.32.21.32.27c.11.05.16.11.27.11.21 0 .41-.06.59-.15s.35-.22.47-.38Zm6.6 3.09c.08-.16.18-.31.32-.43.48-.43.69-.69.69-.96v-.37c0-.21.05-.27.16-.27s.11 0 .11.05l.11.21c0 .05.05.05.16.05s.16-.05.27-.21l.16-.21s.07-.09.09-.15c.02-.06.02-.11.02-.17a.5.5 0 0 0-.05-.21c0-.05-.05-.11-.11-.27a.49.49 0 0 1-.05-.27v-.06c0-.02.02-.04.03-.05.02-.02.03-.03.05-.03h.06c.05 0 .11 0 .11.05l.16.16q.05.05.11.05s.08-.02.11-.05a.16.16 0 0 0 .05-.11l.16-.27.04-.07v-.09c0-.05-.05-.11-.16-.16l-.21-.11a1.35 1.35 0 0 1-.53-1.11v-.09c0-.03.02-.05.04-.07l.11-.27a.49.49 0 0 0 .05-.27 1 1 0 0 0-.16-.53c-.16-.21-.21-.32-.21-.37-.11-.27-.16-.32-.21-.32h-.11l-.11.05-.21.11-.21.27-.21.11c-.16.05-.27.37-.27.64 0 .43.05.59.64 1.6.19.29.32.62.37.96 0 .69-.64 1.17-1.86 1.49l-.8.21a1.4 1.4 0 0 0-.72.45c-.19.22-.31.49-.34.78.23-.13.49-.18.75-.16h.32c.08.02.17 0 .25-.03a.4.4 0 0 0 .18-.18c.14-.21.35-.38.59-.48l.27-.11.21-.11h.05c.05 0 .11 0 .11.05a.5.5 0 0 1-.16.27.72.72 0 0 0-.2.29.7.7 0 0 0-.06.35c-.16.16-.11.21.05.43Z"/><path fill="#fd0" d="M9.9 17.66c.2.13.38.29.53.48.16.21.21.27.37.27.09 0 .18-.01.27-.05l.16-.05c.27-.05.37-.11.37-.16s-.05-.11-.11-.16l-.21-.16-.21-.16a.97.97 0 0 0-.59-.21c-.21.02-.41.1-.59.21Zm5.53.96h.48a.74.74 0 0 0 .74-.64c0-.11-.11-.16-.32-.16-.43-.11-.69.16-.9.8Z"/><path fill="#131108" d="M9.1 6.8c0 .16.11.27.16.27s.16-.21.32-.48c.23-.3.39-.64.48-1.01a.1.1 0 0 0-.03-.07.1.1 0 0 0-.07-.03l-.21.16c-.19.12-.38.23-.59.32-.21.05-.27.16-.27.27v.16l.11.27.11.16Zm-1.06-.9.27.16c.05.05.11.11.11.16v.11a.77.77 0 0 0 0 .37c0 .04 0 .09-.02.13a.26.26 0 0 1-.07.11l-.11.07a.5.5 0 0 1-.13.02c-.05 0-.05-.05-.16-.21l-.37-.43a1.66 1.66 0 0 1-.27-.75v-.05c0-.11.05-.11.11-.11s.11.05.21.11l.43.32Zm.69 1.81h-.32a.6.6 0 0 0-.21-.11.36.36 0 0 0-.27-.05.29.29 0 0 0-.18.05.26.26 0 0 0-.09.16 2 2 0 0 0 .21.75l.21.53c.21.48.37.69.64.69s.27-.21.43-.59c.32-.85.53-.96.53-1.28 0-.21-.05-.27-.21-.27l-.16-.05-.27.16h-.32Z"/><path fill="#fd0" d="M8.67 8.18h-.21q-.05 0-.11.05l-.05.11.11.43.05.37c.05.21.11.27.27.27S9 9.3 9 9.09l.05-.37c0-.13.01-.25.05-.37q0-.05-.05-.11s-.07-.05-.11-.05h-.27Z"/><path fill="#131108" d="m48.75 12.28.05.27c.04.18.09.36.16.53.21.96.37 1.22.85 1.22.12 0 .24-.04.35-.1a.7.7 0 0 0 .24-.27l.11-.32c0-.05.11-.11.16-.11.16 0 .27.21.32.64 0 .16.05.43.11.85.04.26.06.53.05.8a.9.9 0 0 1-.11.48l.05.21c.04.21.06.42.05.64.06.42-.02.85-.21 1.22.05.19.09.39.11.59 0 .2-.02.39-.05.59l-.05.53v.32c.04.06.06.14.05.21 0 .04-.02.08-.05.11l-.32-.16-.37-.21a.88.88 0 0 1-.37-.32c-.2.21-.46.36-.75.43-.59.16-.8.21-.9.32l-.21.11c-.11 0-.21-.27-.21-.64 0-.36.03-.72.11-1.06a2 2 0 0 0-.64-.16.86.86 0 0 0-.27.05h-.05c-.05 0-.05-.05-.05-.16.04-.28.13-.55.27-.8.18-.34.49-.61.85-.75l.64-.11c.37-.05.59-.27.59-.53s-.16-.43-.53-.53l-.69-.27a7.62 7.62 0 0 1-.69-.32c-.21-.11-.32-.16-.37-.21l-.07-.04h-.09c-.04 0-.07 0-.1.02a.24.24 0 0 0-.09.06l-.06.09c-.02.03-.02.07-.02.1 0 .13.05.26.14.36.09.1.21.16.34.17h.09c.03 0 .05-.02.07-.04l.07-.04h.09c.04 0 .08.02.11.05.03.03.05.07.05.11-.03.38-.16.75-.37 1.06l-.21.27-.16.21a2.29 2.29 0 0 1-.9 1.33.65.65 0 0 0-.21.16.83.83 0 0 1-.16.21c-.05.05-.16.21-.32.43-.13.14-.27.26-.43.37-.21.16-.32.27-.32.32l-.16.27c-.05.05-.05.11-.16.11s-.27-.16-.37-.43q-.11-.27-.27-.27c-.11 0-.22.02-.32.05l-.21.05h-.59a2.85 2.85 0 0 0-1.12.21c-.11 0-.11-.11-.11-.27.1-.73.43-1.4.96-1.92-.11-.32-.27-.53-.48-.59-.11-.03-.22-.06-.32-.11-.05 0-.05-.05-.05-.11s.11-.21.37-.32c.28-.16.59-.25.9-.27.34 0 .66.14.9.37.48.37.59.43.8.43a.7.7 0 0 0 .49-.21c.13-.13.2-.3.21-.49a1.53 1.53 0 0 0-.43-.9 2.1 2.1 0 0 1-.64-1.44c0-.37.13-.73.37-1.01a.3.3 0 0 0 .05-.16c0-.11-.16-.16-.32-.16a1.4 1.4 0 0 0-.69.21c-.53.21-.8.48-.8.59s.05.11.11.16l.16.11.05.05-.05.11a5.43 5.43 0 0 1-1.17 1.34l-.16.27a2 2 0 0 1-.75.75c-.11.11-.21.16-.21.21a.65.65 0 0 0-.16.21c-.17.33-.38.63-.64.9l-.48.48c-.21.33-.37.69-.48 1.06-.16.43-.21.59-.32.59s-.05-.05-.11-.11c-.32-.37-.64-.64-.8-.64-.05 0-.11.05-.21.11-.14.09-.31.15-.48.16l-.64.11c-.19 0-.38.06-.54.15-.17.09-.31.22-.42.38-.05.05-.11.11-.16.11s-.11-.11-.11-.21v-.16c.05-.16.08-.32.11-.48.07-.38.18-.76.32-1.12l.32-.53a.8.8 0 0 0 .11-.27c0-.37-.37-.69-.9-.8-.11 0-.16-.05-.16-.11s.16-.21.32-.37c.25-.23.56-.38.9-.41.34-.04.67.03.97.2l.37.16c.12.05.24.09.37.11.37 0 .8-.37 1.28-1.17.18-.27.29-.58.32-.9 0-.43-.21-.69-.53-.69-.28 0-.55.12-.75.32-.14.15-.23.33-.27.53v.27c0 .16-.05.21-.16.21s-.27-.11-.59-.48c-.11-.16-.27-.32-.48-.59a1.78 1.78 0 0 1-.64-1.49c-.59-.75-.75-1.17-.75-1.6v-.37a1.44 1.44 0 0 1-.48-1.17.74.74 0 0 1 .11-.48 1.75 1.75 0 0 1-.32-.64l-.11-.37a2.42 2.42 0 0 0-.27-.64c-.16-.21-.16-.27-.16-.32 0-.16.16-.27.59-.43l.16-.05c0-.13-.03-.25-.05-.37 0-.14.02-.29.05-.43l.11-.64c.04-.19.06-.39.05-.59 0-.18-.03-.37-.11-.53a1.22 1.22 0 0 0-.16-.37c-.05-.11-.11-.16-.11-.21s.05-.11.16-.11h.09a5.75 5.75 0 0 1 1.72 1.37c.42.49.63 1.12.59 1.76.22.13.4.32.53.54.12.23.18.48.17.74a2 2 0 0 1-.32 1.01 2.2 2.2 0 0 0-.32.53c-.11.18-.16.38-.16.59.02.36.13.71.32 1.01.27.43.48.64.75.64.43 0 .85-.8.85-1.65v-.64l.05-.43.05-.48.05-.43v-.21c0-.16-.05-.21-.59-.8a2.47 2.47 0 0 1-.85-1.65.84.84 0 0 1 .24-.61.75.75 0 0 1 .28-.18 1.14 1.14 0 0 1 .7-.01v-.59l.11-.43c.11-.37.11-.43.27-.43h.11l.32.27.37.21.11.11c0-.21.05-.27.21-.48.09-.09.16-.2.21-.32l.16-.27.11-.16c.05-.11.11-.11.16-.11s.05.05.11.27c0 .05.03.09.05.13.03.04.06.07.11.09l.21.21c.2.18.33.43.37.69l.32-.32.27-.16a.57.57 0 0 0 .16-.11c.03.03.05.07.05.11.05.11.11.16.16.27.21.37.21.43.21.64v.37a.92.92 0 0 1 .74 1.06A2.2 2.2 0 0 1 42.9 7c-.27.37-.32.48-.32.75 0 1.22.9 1.92 2.45 1.97h1.12c.63 0 1.26.11 1.86.32.41.17.84.28 1.28.32.16 0 .32-.11.32-.21 0-.27-.43-.43-1.81-.85-2.82-.8-3.99-1.92-3.99-3.78a2.72 2.72 0 0 1 .85-1.85 2.63 2.63 0 0 1 1.92-.7c.58 0 1.15.1 1.7.27l.69.27c.12.04.25.06.37.05.27 0 .32-.16.37-.59 0-.21.05-.27.21-.27.33.11.61.34.8.64.24.33.39.71.43 1.12 0 .18-.07.36-.17.51a.94.94 0 0 1-.42.34 1.66 1.66 0 0 1-1.49.85 5.37 5.37 0 0 1-2.34-.96 1.4 1.4 0 0 0-.8-.32c-.32 0-.48.16-.48.43s.16.43.69.59c.8.27.96.37 1.22.69.65.09 1.27.33 1.81.69 1.54.48 2.45 1.44 2.45 2.71a1.8 1.8 0 0 1-1.8 1.92c-.48.48-.64.48-1.06.37Z"/><path fill="#fd0" d="M50.45 19.79a.7.7 0 0 1-.05-.32v-.21c.04-.21.06-.42.05-.64a.76.76 0 0 0-.11-.32l-.21-.27a.6.6 0 0 1-.16-.22.58.58 0 0 1-.06-.26q0-.11.11-.11h.05l.16.11.07.04h.09c.11 0 .16-.16.16-.48a1.03 1.03 0 0 0-.32-.85l-.21-.21-.04-.07v-.09c0-.11.05-.16.11-.16a.5.5 0 0 1 .21.05l.21.05h.05c.05 0 .11-.05.11-.16v-.05l-.05-.37c-.05-.37-.11-.53-.21-.53h-.05l-.43.11h-.05a1.53 1.53 0 0 1-1.33-1.06l-.32-1.12a2.62 2.62 0 0 0-.8-1.06.76.76 0 0 0-.37-.16l-.32-.05s-.05-.01-.07-.03a.1.1 0 0 1-.03-.07c0-.05.05-.11.16-.11.51.02 1.01.11 1.49.27.36.13.74.22 1.12.27.85 0 1.38-.43 1.38-1.17a2.59 2.59 0 0 0-.32-1.12 2.22 2.22 0 0 0-.87-.79h-.09a.1.1 0 0 0-.07.03.1.1 0 0 0-.03.07v.21c0 .11-.05.16-.11.16s-.21-.11-.32-.32a1.56 1.56 0 0 0-1.33-1.06c-.11 0-.16.05-.16.11s.05.11.11.21l.16.32.04.07v.09c0 .01 0 .03-.02.04l-.04.02a.3.3 0 0 1-.15-.05.43.43 0 0 1-.12-.11l-.27-.27-.21-.32a1.58 1.58 0 0 0-.69-.59l-.43-.21a.31.31 0 0 0-.21-.05q-.05 0-.05.05c0 .07.02.15.05.21.08.09.13.2.16.32a.1.1 0 0 1-.03.07.1.1 0 0 1-.07.03c-.11 0-.32-.21-.64-.64-.2-.28-.31-.61-.32-.96 0-.17.03-.34.09-.49.06-.16.16-.3.28-.42.12-.12.26-.21.42-.28.16-.06.32-.09.49-.09.45.03.89.18 1.28.43l.8.48c.29.17.62.28.96.32a1 1 0 0 0 .48-.11l.12-.03c.04-.02.07-.04.09-.08.05 0 .05-.05.05-.11s-.05-.11-.16-.11a4.7 4.7 0 0 1-1.7-.69c-.32-.21-.48-.32-.59-.32s-.21-.11-.21-.16l.05-.05h.11l.75.27.69.27c.38.11.77.18 1.17.21.07 0 .14 0 .21-.03a.54.54 0 0 0 .18-.11.42.42 0 0 0 .11-.18c.03-.07.04-.14.03-.21 0-.17-.04-.33-.11-.48-.11-.21-.27-.37-.32-.37s-.11.05-.11.16v.32c0 .21-.11.37-.32.37a.65.65 0 0 1-.27-.05l-1.12-.37a5.13 5.13 0 0 0-1.81-.37c-.3-.02-.59.02-.87.11a2.25 2.25 0 0 0-1.28 1.16 2.3 2.3 0 0 0-.2.86c0 1.38.96 2.24 3.35 3.03 2.39.8 2.61 1.01 2.61 1.6a.6.6 0 0 1-.07.26.72.72 0 0 1-.17.22.7.7 0 0 1-.51.16c-.14 0-.29 0-.43-.05-.11 0-.48-.11-1.17-.27a9.56 9.56 0 0 0-2.13-.27c-1.7 0-2.5.27-3.41 1.06-.06.08-.14.15-.24.18s-.2.05-.3.03h-.37a.52.52 0 0 0-.48.32l-.27.48-.09.08a.27.27 0 0 1-.12.03c-.16 0-.27-.11-.43-.53-.09-.18-.2-.36-.32-.53l-.37-.32-.11-.11c0-.05.05-.11.11-.16l.16-.21c.05-.05.11-.16.11-.21v-.16s.01-.05.03-.07.05-.03.07-.03c.11 0 .11.05.16.48.02.17.07.33.16.48l.21.43c0 .05.11.11.16.11.16 0 .43-.43.48-.85.05-.43.11-.48.16-.48s.11.05.27.32c.05.1.13.19.21.27.11.05.16.11.21.11.16 0 .21-.11.21-.43v-.16l-.05-.27v-.16c0-.11.05-.16.11-.16s.11 0 .11.05l.16.16.14.11c.05.03.11.04.18.05.16 0 .21-.05.21-.16s0-.11-.16-.37l-.11-.21c-.16-.27-.21-.37-.37-.37h-.16l-.21.11c-.05 0-.11.05-.16.05-.01 0-.03 0-.04-.02l-.02-.04c.04-.25.13-.48.27-.69.17-.42.26-.87.27-1.33l.11-.8c.05-.48.11-.69.21-.69s.05 0 .05.05l.05.27v.21c0 .14.01.29.05.43.05 0 .16-.11.27-.21l.16-.32c.05-.14.09-.28.11-.43 0-.37-.16-.59-.69-.69a.16.16 0 0 1-.11-.05v-.43l-.05-.21-.05-.16-.11-.21-.16.11c-.37.21-.43.27-.53.43-.11.16-.21.27-.27.27a.16.16 0 0 1-.11-.05l.05-.27v-.05c-.01-.2-.07-.4-.17-.58-.1-.18-.24-.32-.42-.43l-.11.16-.11.16-.21.27a.95.95 0 0 0-.21.53v.11q0 .16-.11.16h-.05l-.16-.16-.16-.21-.32-.21-.16-.11c-.14.26-.2.56-.16.85v.16c0 .16-.05.27-.11.27s-.11-.05-.21-.11a.36.36 0 0 0-.27-.05.33.33 0 0 0-.17.04c-.05.03-.1.06-.14.11a.46.46 0 0 0-.09.15.37.37 0 0 0-.02.18c-.01.31.08.61.27.85.16.21.32.43.37.43.04-.12.05-.25.05-.37l-.05-.27v-.11c0-.11.05-.16.11-.16s.16.11.21.37l.16.64.16.8c.05.24.13.47.21.69.16.32.21.53.27.59q.21.27.21.32s0 .03-.02.04l-.04.02h-.09c-.03 0-.05-.02-.07-.04-.05-.05-.11-.05-.21-.05h-.11c-.27 0-.32.21-.32 1.38.01.72.12 1.44.32 2.13l.37.9c.06.13.1.28.11.43 0 1.22-1.7 3.25-3.46 4.1-.69.32-.9.69-.96 1.6.17-.12.38-.19.59-.21.48-.16.59-.21.69-.43l.05-.21c.05-.11.11-.16.43-.32.1-.06.19-.13.27-.21.11-.16.16-.21.21-.21s.05.05.05.11v.05l-.21.48v.11c0 .18.07.36.17.51.1.15.25.27.42.34 0-.11.05-.16.05-.21.03-.18.08-.36.16-.53l.32-.48c.11-.16.16-.27.16-.75v-.69c0-.11.05-.16.11-.16s.11 0 .11.05l.05.32c0 .05.11.11.16.11.16 0 .37-.21.59-.59a.71.71 0 0 0 .11-.43c0-.18-.01-.36-.05-.53v-.11c0-.11.05-.16.11-.16s.05 0 .11.05l.11.37c.05.11.11.21.21.21.27 0 .53-.53.59-1.12 0-.37.05-.48.16-.48s.05 0 .11.05l.05.21c0 .11.05.16.11.16s.11-.05.21-.21l.16-.21.04-.07v-.09q0-.11-.16-.21a.52.52 0 0 1-.22-.37c.04-.39.19-.76.43-1.06.27-.48.32-.53.37-.53s.11.05.11.16v.09c0 .03-.02.05-.04.07a.31.31 0 0 0-.05.21c0 .05.05.11.16.11a.76.76 0 0 0 .32-.11c.15-.09.31-.16.48-.21.2-.05.4-.12.59-.21.12-.05.25-.07.37-.05a.7.7 0 0 1 .32.05c.12.03.25.05.37.05.04 0 .07 0 .1-.02l.09-.06.06-.09a.36.36 0 0 0 .02-.1.94.94 0 0 0-.27-.53c-.05-.05-.11-.11-.11-.16v-.05c0-.05.05-.05.11-.05.16 0 .37.27.64.69 1.33 2.18 1.97 2.87 2.98 3.19 1.01.32 1.28.53 1.28 1.12-.05.45-.24.88-.53 1.22-.69.96-.9 1.49-.9 2.13v.16c.11-.05.16-.05.21-.11.16-.05.21-.11.27-.11l.43-.11a.45.45 0 0 0 .19-.14.39.39 0 0 0 .07-.23v-.05l-.05-.37v-.05c0-.21.11-.37.21-.37a.1.1 0 0 1 .07.03.1.1 0 0 1 .03.07l.27.59c.32 0 .43.16.8.32ZM36.46 8.08v.43c0 .27.05.37.16.37s.27-.21.37-.43c.06-.15.1-.31.11-.48a.46.46 0 0 0-.11-.32c-.05-.21-.16-.27-.27-.27s-.21.21-.27.69Z"/><path fill="#fd0" d="m35.28 4.89.27.21c.41.49.61 1.12.59 1.76v.27l-.05.8v.69c0 2.24.64 3.73 1.6 3.73.16-.03.3-.09.43-.19a.95.95 0 0 0 .31-.35c.05-.05.11-.11.16-.11s.11.05.11.16l.05.37.05.32c0 .16.05.27.05.37.04.1.05.21.05.32 0 .16-.05.21-.43.27-.18.03-.34.1-.48.21-.27.16-.43.27-.43.32l-.21.37s-.01.05-.03.07-.05.03-.07.03c-.11 0-.21-.16-.43-.48-.1-.17-.19-.35-.27-.53 0-.05.05-.05.16-.05h.59s.05-.01.07-.03.03-.05.03-.07c0-.05-.05-.05-.05-.11l-.75-.32a1.52 1.52 0 0 1-.59-.59 1.58 1.58 0 0 1-.32-.75c0-.11.05-.21.16-.21s.05 0 .11.05c.06.04.14.06.21.05q.05 0 .11-.05t.05-.11c0-.05-.05-.11-.16-.16a2.03 2.03 0 0 1-.66-.61 2.26 2.26 0 0 1-.35-.83c0-.11.05-.21.11-.21h.11l.27.05c.11 0 .16-.05.16-.11s-.05-.11-.16-.16c-.43-.21-.53-.32-.8-.96-.14-.31-.3-.62-.48-.9a1 1 0 0 1 .53-.16c.21 0 .37.16.53.59.11.27.21.43.27.43s.05-.05.05-.21c0-.18-.01-.36-.05-.53a.95.95 0 0 1-.05-.37l-.05-.21-.21-.11a.75.75 0 0 1-.21-.26.61.61 0 0 1-.06-.33c0-.11 0-.22.05-.32l.11-.37c.05-.25.09-.49.11-.75v-.16l-.11.21Zm2.08 12.34a1.63 1.63 0 0 1-.8-.27c-.2-.09-.42-.15-.64-.16-.27.02-.53.11-.75.27l.16.11.32.21.32.27c.11.05.16.11.27.11a1.55 1.55 0 0 0 1.11-.53Zm6.55 3.09c.08-.16.18-.31.32-.43.48-.43.69-.69.69-.96v-.37c0-.21.05-.27.16-.27s.11 0 .11.05l.11.21c0 .05.05.05.16.05s.21-.11.43-.43a.5.5 0 0 0 .06-.53c0-.05-.05-.11-.11-.27a.49.49 0 0 1-.05-.27v-.06c0-.02.02-.04.03-.05.02-.02.03-.03.05-.03h.06c.05 0 .11 0 .11.05l.16.16q.05.05.11.05s.09-.03.13-.05a.24.24 0 0 0 .09-.11l.16-.27.04-.07v-.09c0-.05-.05-.11-.16-.16l-.21-.11a1.25 1.25 0 0 1-.53-1.06.5.5 0 0 1 .05-.21l.11-.27a.49.49 0 0 0 .05-.27 1.21 1.21 0 0 0-.16-.53 2.7 2.7 0 0 1-.21-.37c-.11-.27-.16-.32-.27-.32s-.11 0-.21.11l-.16.11-.21.27-.27.11c-.16.05-.27.37-.27.64 0 .37.11.59.64 1.54.18.29.31.62.37.96 0 .69-.69 1.28-1.86 1.49-1.38.27-1.7.53-1.86 1.38.23-.13.49-.18.75-.16h.32c.08.02.17 0 .25-.03a.4.4 0 0 0 .18-.18c.14-.21.35-.38.59-.48l.27-.11.21-.11h.05c.05 0 .11 0 .11.05a.5.5 0 0 1-.16.27c-.14.17-.24.37-.27.59a.4.4 0 0 0-.07.28c0 .1.05.19.13.26Z"/><path fill="#fd0" d="M41.78 17.66c.2.13.38.29.53.48.16.21.16.27.37.27.09 0 .18-.01.27-.05l.16-.05c.27-.05.37-.11.37-.16a.16.16 0 0 0-.05-.11l-.21-.16-.21-.16a.95.95 0 0 0-.53-.21.73.73 0 0 0-.36 0 .84.84 0 0 0-.33.16Zm5.48.96h.53c.16 0 .27 0 .32-.05.13-.1.24-.23.32-.37a.31.31 0 0 0 .05-.21c0-.11-.11-.16-.27-.16-.48-.11-.75.16-.96.8Z"/><path fill="#131108" d="M40.93 6.8c0 .16.11.27.16.27s.16-.27.37-.53c.21-.28.36-.61.43-.96a.1.1 0 0 0-.03-.07.1.1 0 0 0-.07-.03l-.21.16c-.17.14-.37.25-.59.32-.21.05-.27.16-.27.27v.16l.16.32.05.11Zm-1.5-1.28a.43.43 0 0 0-.21-.11.1.1 0 0 0-.07.03.1.1 0 0 0-.03.07v.05l.05.27c.05.17.12.33.21.48l.27.43a.52.52 0 0 0 .37.22c.04 0 .08-.02.11-.05l.05-.32.11-.32v-.05l-.03-.12c-.02-.04-.04-.07-.08-.09l-.27-.16-.48-.32Zm1.12 2.19h-.32a.6.6 0 0 0-.21-.11.36.36 0 0 0-.27-.05c-.04 0-.07 0-.1.02a.24.24 0 0 0-.09.06l-.06.09a.36.36 0 0 0-.02.1c.02.24.1.48.21.69.08.17.15.35.21.53.21.48.37.69.64.69s.37-.16.53-.53l.21-.75c.11-.21.32-.32.32-.53 0-.1-.06-.2-.14-.27s-.18-.11-.29-.1h-.11l-.27.16h-.27Z"/><path fill="#fd0" d="M40.5 8.18h-.21q-.05 0-.11.05t-.05.11l.11.43.05.37c.05.21.05.27.21.27.04 0 .08 0 .12-.02a.41.41 0 0 0 .11-.07l.07-.11c.02-.04.02-.08.02-.12l.05-.37c0-.13.01-.25.05-.37q0-.05-.05-.11s-.07-.05-.11-.05h-.27Z"/><path fill="#131108" d="M17.24 44.48c.13.25.2.52.21.8l.05.69c.05.69.27 1.06.69 1.06.13 0 .26-.03.37-.11l.21-.21h.05c.11 0 .16.05.16.21v.27c0 .27.02.53.05.8.04.23.06.46.05.69.03.29-.03.59-.16.85.12.32.19.67.21 1.01.03.3-.05.6-.21.85.05.19.08.39.11.59 0 .21-.01.43-.05.64-.07.26-.08.53-.05.8v.05c0 .11-.05.16-.11.16-.05 0-.09-.03-.13-.05a.24.24 0 0 1-.09-.11c-.11-.16-.16-.16-.27-.16s-.16.05-.32.59c-.11.23-.25.45-.43.64-.12.15-.23.31-.32.48-.05.21-.11.32-.11.37s-.05.05-.11.11c-.27 0-.59-.59-.96-1.76-.11-.32-.21-.48-.37-.48a.29.29 0 0 0-.18.07.43.43 0 0 0-.13.14l-.11.21c0 .05-.05.05-.11.05-.16 0-.32-.27-.48-.59-.1-.25-.16-.52-.16-.8 0-.53.37-.96 1.6-1.6a1.5 1.5 0 0 0 .05-2.49 1.52 1.52 0 0 0-.75-.37c-.04 0-.07 0-.1.02a.24.24 0 0 0-.09.06l-.06.09a.36.36 0 0 0-.02.1c0 .16.11.27.32.32.27.11.37.21.37.32-.06.23-.15.44-.27.64a2 2 0 0 1-.53.59c-.05.23-.15.45-.29.64-.14.19-.31.35-.51.48-.07.23-.18.44-.32.64l-.37.48c-.1.17-.19.35-.27.53-.05.27-.05.32-.16.32s-.43-.27-.69-.59a.95.95 0 0 1-.17-.27.84.84 0 0 1-.05-.31c-.16.16-.21.16-.59.21-.16.02-.32.06-.48.11a.87.87 0 0 1-.37.16c-.05 0-.11-.05-.11-.16v-.37c.01-.56.2-1.1.53-1.54a1.42 1.42 0 0 0-.85-.43q-.11 0-.11-.05a.58.58 0 0 1 .16-.32.98.98 0 0 1 .32-.32 1.7 1.7 0 0 1 1.01-.37c.33.04.65.13.96.27.13.06.28.1.43.11l.13-.01a.26.26 0 0 0 .11-.07l.07-.11c.01-.04.02-.09.01-.13a5.1 5.1 0 0 0-.48-1.6 3.6 3.6 0 0 1-.32-1.12 1.56 1.56 0 0 1 .64-1.38.56.56 0 0 0-.37-.11c-.19.01-.37.07-.53.16-.27.16-.37.27-.37.37s.05.11.16.16.16.11.16.27a2.07 2.07 0 0 1-.85 1.33 1.5 1.5 0 0 1-.29.73c-.16.21-.37.38-.61.49-.04.3-.17.57-.37.8-.28.35-.5.75-.64 1.17-.05.16-.11.27-.16.27a.77.77 0 0 1-.37-.32l-.27-.32a2.66 2.66 0 0 1-.21-.53.49.49 0 0 1-.27.05h-.43a2.28 2.28 0 0 0-1.03.25h-.09c-.11 0-.21-.21-.21-.53 0-.62.2-1.22.59-1.7a.98.98 0 0 1-.32-.32c-.05-.05-.11-.11-.16-.11l-.21-.11c-.05-.05-.11-.05-.11-.11s.27-.32.53-.53c.25-.19.54-.3.85-.32.27 0 .43.05.8.37.27.21.43.32.53.32s.16-.05.27-.16c.07-.07.1-.17.11-.27a1.9 1.9 0 0 0-1.81-1.49 1.08 1.08 0 0 0-1.06.64l-.21.37c-.05.11-.11.16-.16.16-.11 0-.16-.05-.53-.48l-.43-.53a1.36 1.36 0 0 1-.27-.43c-.05-.11-.05-.21-.11-.21l-.16-.16a2.65 2.65 0 0 1-.75-1.44c0-.05-.05-.11-.05-.21a2.91 2.91 0 0 1-.69-1.7.5.5 0 0 1 .05-.21c-.27-.27-.27-.32-.48-.96a3.96 3.96 0 0 0-.42-1.01c0-.11.16-.16.37-.21.1-.03.21-.05.32-.05h.32v-.48c-.01-.27.02-.54.11-.8a.95.95 0 0 0 .05-.37c0-.11-.02-.22-.05-.32l-.05-.27c0-.05-.05-.11-.05-.16a.1.1 0 0 1 .03-.07.1.1 0 0 1 .07-.03.5.5 0 0 1 .21.05c.32.16.53.32.75.43.54.38.92.95 1.06 1.6v.16c0 .09-.02.18-.05.27.02.09.06.18.11.27l.21.27c.16.2.25.44.27.69 0 .16-.05.21-.32.64-.17.21-.26.47-.27.75.01.38.12.74.32 1.06.21.37.43.53.64.53.37 0 .53-.32.59-1.22.02-.43.07-.86.16-1.28v-.21c0-.11-.05-.16-.16-.32l-.53-.59c-.48-.59-.64-.85-.64-1.28 0-.1 0-.21.04-.3.03-.1.09-.19.16-.26.07-.08.16-.13.25-.18.09-.04.2-.06.3-.06h.21v-.11c.02-.16.06-.32.11-.48.04-.24.15-.46.32-.64l.16.11c.05 0 .11.05.32.11.11.04.22.1.32.16.07-.2.16-.4.27-.59.15-.21.33-.39.53-.53.05 0 .16.05.27.21l.32.32c.08.1.15.21.21.32l.05.16c.11-.05.16-.11.21-.11.11-.11.21-.11.27-.16l.32-.16a.57.57 0 0 0 .16-.11c.05 0 .11.11.21.69.08.24.12.49.11.75a.8.8 0 0 1 .62.3c.08.09.13.2.16.31.03.11.04.23.02.35a2.4 2.4 0 0 1-.26.94c-.15.29-.35.55-.6.77a.5.5 0 0 0-.16.19.5.5 0 0 0-.06.24c0 1.49.53 1.97 2.39 2.18.98.08 1.95.3 2.87.64.47.16.95.27 1.44.32.32 0 .48-.11.48-.32 0-.32-.21-.43-1.6-.69-3.14-.64-4.42-1.76-4.42-3.83 0-.34.05-.69.18-1.01.13-.32.32-.61.56-.86s.53-.44.86-.56c.32-.13.66-.19 1.01-.18.78.05 1.53.31 2.18.75.85.48 1.01.59 1.22.59s.32-.16.32-.53c0-.21.05-.37.21-.37s.32.16.53.37a1.3 1.3 0 0 1 .38.96c.01.28-.08.56-.25.79-.18.22-.43.38-.7.44l-.16.16a1.47 1.47 0 0 1-1.23.53 2.92 2.92 0 0 1-1.49-.48l-.8-.59a1.35 1.35 0 0 0-.85-.37c-.07 0-.14 0-.21.02a.42.42 0 0 0-.18.11.42.42 0 0 0-.11.18c-.02.07-.03.14-.02.21a.79.79 0 0 0 .59.74l.75.27c.25.09.5.2.75.32a.95.95 0 0 1 .37-.05c.5 0 1 .12 1.44.37.12.03.23.08.32.16l.43.11a2.6 2.6 0 0 1 1.75 2.39 1.87 1.87 0 0 1-2.03 1.97h-.43Z"/><path fill="#fd0" d="m16.98 54.65.11-.21.27-.27c.11-.12.2-.27.25-.42.05-.16.08-.32.07-.48 0-.18-.05-.36-.11-.53a.86.86 0 0 1-.05-.32c0-.05.02-.09.05-.13a.21.21 0 0 1 .11-.08c.03 0 .05.01.07.03s.03.05.03.07l.27.27c.11.14.26.23.43.27v-.48c0-.42-.14-.82-.37-1.17-.16-.16-.21-.27-.21-.32 0-.03.01-.05.03-.07s.05-.03.07-.03c.01 0 .03 0 .04.02l.02.04c.09.08.2.13.32.16.11 0 .16-.21.16-.43a1.68 1.68 0 0 0-.37-.96c-.11-.11-.16-.21-.21-.27q-.05-.05-.05-.11c0-.05.05-.11.16-.11s.11 0 .21.11c.03.03.07.05.11.05.11 0 .16-.21.16-.69v-.53c0-.37-.05-.43-.21-.43h-.16c-.85 0-1.22-.53-1.44-1.97-.16-1.01-.53-1.76-1.01-1.92-.27-.11-.37-.16-.37-.21s.05-.11.16-.11c.11.02.22.05.32.11.56.24 1.15.39 1.76.43.19 0 .37-.02.55-.09a1.4 1.4 0 0 0 .89-1.29 2.2 2.2 0 0 0-1.23-1.92h-.05l-.11.05.05.27.05.16v.05c0 .05-.05.05-.11.05s-.11 0-.11-.05l-.32-.48a1.76 1.76 0 0 0-.51-.47c-.2-.12-.43-.2-.66-.22-.16 0-.21.05-.21.16.01.08.05.15.11.21.08.07.14.16.16.27v.05s0 .03-.02.04l-.04.02c-.11 0-.11-.05-.48-.48a2.06 2.06 0 0 0-1.28-.69c-.05 0-.11 0-.11.05l-.05.05c0 .05.05.11.11.21.05.11.21.21.21.27s-.05.05-.11.05-.32-.16-.75-.48a1.87 1.87 0 0 1-.9-1.55c-.01-.3.09-.58.29-.8.2-.22.48-.35.77-.37.41.01.8.16 1.12.43l.85.64c.39.27.85.42 1.33.43.11 0 .22 0 .32-.05l.11-.11s-.1-.06-.16-.05a1.2 1.2 0 0 1-.69-.32l-.85-.64a5.33 5.33 0 0 0-.69-.48c-.43-.21-.53-.27-.53-.32a.16.16 0 0 1 .11-.05h.09c.03 0 .05.02.07.04l.43.21c.24.12.48.26.69.43.9.59 1.38.8 1.92.8.12 0 .23-.01.34-.05.11-.04.21-.1.29-.18.08-.08.15-.18.2-.28a.8.8 0 0 0 .07-.34c0-.11 0-.22-.05-.32l-.11-.16-.11-.11-.05.05-.05.37s-.02.08-.05.11c-.05.05-.05.11-.11.16s-.16.11-.32.11c-.27 0-.59-.16-1.38-.64a4.12 4.12 0 0 0-2.13-.8 2.24 2.24 0 0 0-2.24 2.24c0 1.7 1.06 2.5 4.31 3.19 1.22.27 1.81.64 1.81 1.17s-.43.8-1.06.8c-.16.02-.32 0-.48-.05-.59-.13-1.18-.29-1.76-.48a8.39 8.39 0 0 0-2.29-.32c-1.28 0-2.13.37-2.71 1.22a.41.41 0 0 1-.16.16h-.09c-.03 0-.05-.02-.07-.04l-.21-.21c-.19-.13-.41-.2-.64-.21a.52.52 0 0 0-.37.16.57.57 0 0 0-.16.11c-.11 0-.27-.21-.43-.48A2.61 2.61 0 0 1 7.58 42c0-.16.05-.27.11-.27s.11.05.11.16l.16.48c.05.27.21.48.37.48.05 0 .16-.05.27-.21.06-.08.12-.17.16-.27.11-.32.11-.37.21-.37s.16.05.21.37c.02.09.06.18.11.27.05.11.16.21.21.32.05.11.11.11.16.11.16 0 .27-.27.27-.53v-.37c0-.11 0-.16.11-.16s.05 0 .11.11c.06.1.16.17.27.21a.8.8 0 0 0 .27.11c.05 0 .11-.05.16-.11l.04-.07v-.09c0-.05-.05-.11-.27-.32-.16-.2-.27-.44-.32-.69-.05-.16-.11-.21-.16-.21a.16.16 0 0 0-.11.05l-.21.11-.16.05h-.05s-.05-.01-.07-.03a.1.1 0 0 1-.03-.07c.08-.16.19-.31.32-.43a.58.58 0 0 0 .17-.21.5.5 0 0 0 .04-.27c0-.27.05-.53.11-.53l.05-.59a4.73 4.73 0 0 1 .32-1.28c.05 0 .11.11.11.27v.27c0 .21.05.32.11.32s.16-.11.21-.32l.16-.37a.7.7 0 0 0 .05-.32c0-.07 0-.14-.02-.21a.4.4 0 0 0-.1-.18.5.5 0 0 0-.16-.13.66.66 0 0 0-.2-.06h-.11s-.08.02-.11.05c-.11 0-.16-.11-.16-.21v-.59l-.05-.37v-.16l-.16.11-.21.16-.27.21-.21.21s-.07.05-.11.05c-.11 0-.16-.05-.16-.32v-.05c0-.21-.11-.37-.43-.8l-.11-.11-.05.11-.21.32-.21.48-.05.32a.3.3 0 0 1-.05.16c-.05 0-.11-.05-.16-.11a1.06 1.06 0 0 0-.75-.48l-.05.11c-.05.21-.11.32-.11.37v.59c0 .11-.05.16-.11.16l-.11-.11c-.05-.05-.11-.05-.21-.05-.32 0-.53.16-.53.43s.05.37.37.85c.16.21.32.37.37.37s.05-.11.05-.27l-.05-.21a.49.49 0 0 1-.05-.27c0-.11.05-.16.11-.16.16 0 .32.43.37 1.06l.05.64c.02.24.09.48.21.69.11.23.25.45.43.64.16.11.27.21.27.27a.1.1 0 0 1-.03.07.1.1 0 0 1-.07.03c-.1-.05-.21-.08-.32-.11h-.16c-.32 0-.48.21-.48.8.06.83.42 1.6 1.01 2.18l.8.64c.38.31.62.74.69 1.22 0 .48-.53 1.01-1.49 1.33l-.59.21c-.43.16-.64.43-.8 1.28.15-.06.32-.09.48-.11h.32c.09 0 .18-.03.25-.09a.35.35 0 0 0 .12-.23v-.16c0-.05.05-.11.16-.16a.53.53 0 0 0 .21-.11l.21-.16c.05 0 .05-.05.11-.05a.1.1 0 0 1 .07.03.1.1 0 0 1 .03.07v.09c0 .03-.02.05-.04.07-.07.19-.1.39-.11.59-.03.34.07.68.27.96a.5.5 0 0 1 .05-.21c.07-.17.16-.33.27-.48.24-.31.38-.68.43-1.06v-.05l-.05-.37a.36.36 0 0 1 .11-.21q.05-.05.11-.05c.05 0 .11.05.16.16.03.06.06.11.11.16.05 0 .16-.16.27-.32.05-.12.09-.24.11-.37a.36.36 0 0 0-.05-.21.31.31 0 0 1-.05-.21q0-.05.05-.11t.11-.05.11.05l.16.11.07.04h.09c.05 0 .16-.05.27-.21.12-.14.21-.3.27-.48 0-.05-.05-.05-.11-.16-.15-.1-.29-.24-.39-.39a1.4 1.4 0 0 1-.2-.51c0-.09.01-.18.05-.27l.16-.48c.11-.21.11-.37.16-.37h.05s.05.01.07.03.03.05.03.07a.5.5 0 0 1-.05.21.7.7 0 0 0-.05.32c0 .11.05.21.16.21.09 0 .18-.01.27-.05a3.7 3.7 0 0 1 1.17-.32c.23 0 .45.08.64.21l.07.04h.09q.05 0 .11-.05.05-.05.05-.11a.36.36 0 0 0-.11-.21.27.27 0 0 1-.09-.12c-.02-.05-.03-.1-.02-.15a.1.1 0 0 1 .03-.07.1.1 0 0 1 .07-.03c.27 0 .69.85 1.06 2.18.32 1.06.43 1.17 1.44 1.76.85.48 1.17.96 1.17 1.76a10.12 10.12 0 0 1-.64 3.03c-.12.29-.2.59-.21.9.03.27.08.54.16.8.05.21.11.37.11.37.32.21.37.32.43.43Z"/><path fill="#fd0" d="M12.99 52.25c.11-.21.16-.27.32-.59.2-.24.33-.54.37-.85v-.27c0-.27.05-.37.16-.37s.05 0 .11.05l.11.16c0 .05.05.05.11.05.05 0 .09-.03.13-.05a.24.24 0 0 0 .09-.11c.11-.18.18-.38.21-.59v-.49c0-.02.02-.04.03-.05s.03-.03.05-.03h.06c.05 0 .11 0 .16.16.03.06.06.11.11.16.05 0 .11-.05.16-.11l.16-.21.11-.16v-.11c0-.05-.05-.11-.11-.16a1.29 1.29 0 0 1-.4-.55 1.42 1.42 0 0 1-.08-.68c.01-.32-.02-.65-.11-.96-.09-.25-.2-.5-.32-.75a3.69 3.69 0 0 1-.21-.64c-.05-.16-.11-.21-.21-.21a.93.93 0 0 0-.33.07.9.9 0 0 0-.27.2.96.96 0 0 0-.17.29c-.03.11-.05.22-.03.34.03.48.16.95.37 1.38.22.45.37.94.43 1.44 0 .64-.27.9-1.12 1.22-.96.37-1.44.85-1.6 1.76l.07-.04h.09c.11-.05.21-.05.21-.11l.27-.05a.88.88 0 0 0 .48-.32l.05-.21s.01-.05.03-.07a.1.1 0 0 1 .07-.03l.16-.05.16-.05.05.05-.05.21c-.03.12-.04.25-.05.37a.97.97 0 0 0 .16.96ZM3.83 36.44c0 .11.05.16.05.21 0 .14-.02.29-.05.43l-.05.37c0 .31.05.62.16.9.06.12.1.24.11.37v.05s-.02.08-.05.11c-.05 0-.11-.05-.16-.11-.18-.15-.4-.25-.64-.27a.65.65 0 0 0-.27.05l.11.21.27.64.37.53.37.27c.05 0 .05.05.11.11.03.03.05.07.05.11 0 .01 0 .03-.02.04l-.04.02h-.32s-.08.02-.11.05c.04.18.09.36.16.53l.16.48.27.27.32.21s.08.05.11.09c.03.04.05.08.05.13 0 .04-.02.08-.05.11h-.16c-.05 0-.11.05-.11.16.05.24.16.46.32.64.27.37.43.48.75.48h.27c.11 0 .21.05.21.16s-.05.11-.16.16c-.21.05-.32.11-.32.21s.05.11.11.16l.16.21c.07.12.19.22.32.27a.5.5 0 0 0 .27-.16c.14-.17.32-.3.53-.37.59-.16.69-.21.69-.37a.5.5 0 0 0-.05-.21 1.39 1.39 0 0 1-.27-.85c0-.21-.05-.37-.11-.37s-.11.05-.16.16a.82.82 0 0 1-.58.37c-.59 0-1.28-.9-1.65-2.13a2.5 2.5 0 0 1-.11-.9 7.47 7.47 0 0 1 .32-1.91v-.21a3.27 3.27 0 0 0-1.17-1.38Z"/><path fill="#fd0" d="M5.06 38.84a3.6 3.6 0 0 0-.27 1.12c0 .21.05.37.16.37s.05-.05.11-.11l.21-.32c.05-.05.05-.11.11-.21a.8.8 0 0 0 .11-.27.56.56 0 0 0-.13-.35.76.76 0 0 0-.3-.23Zm1.91 7.72.11.11.16.16c.32.32.37.37.53.37.22-.03.43-.08.64-.16l.11-.11a.83.83 0 0 0-.16-.21l-.21-.16c-.14-.12-.3-.21-.48-.27-.21-.05-.37.05-.69.27Zm3.94 3.08c.12.03.23.08.32.16l.27.16.27.05c.08 0 .15-.01.21-.05l.37-.16.32-.11a.57.57 0 0 0 .16-.11.6.6 0 0 0-.21-.11 1.02 1.02 0 0 1-.27-.11c-.43-.16-.48-.21-.64-.21a1.4 1.4 0 0 0-.8.48Zm4.31 3.41c.11-.27.21-.32.59-.32s.85-.8.85-1.33c0-.05 0-.11-.05-.11a.16.16 0 0 0-.11.05c-.11.11-.21.11-.27.16l-.48.21c-.18.09-.33.23-.44.4-.11.17-.18.36-.2.56 0 .05.05.16.11.37Z"/><path fill="#131108" d="m7.88 38.2.16.27c.11.11.24.2.37.27.05 0 .05-.05.11-.16l.05-.27v-.27c0-.21-.11-.32-.59-.43-.11-.05-.16 0-.21-.11a.43.43 0 0 0-.21-.11q-.05 0-.05.05v.05l.11.27.27.43Zm1.81 0-.21.37-.11.11c-.11 0-.16-.21-.21-.43l-.05-.32c0-.16.11-.21.32-.27.21-.05.27-.05.32-.11.16-.11.27-.16.27-.21h.05c.05 0 .05.05.05.11l-.11.27-.32.48Zm-.43 1.17.27-.16s.08-.02.11-.05c.06 0 .12.04.16.09.04.05.06.11.05.18-.06.31-.19.6-.37.85-.21.43-.37.69-.59.69s-.59-.37-.9-1.06c-.06-.15-.1-.31-.11-.48 0-.21.11-.32.27-.32.08 0 .15.01.21.05l.16.11c.12.1.27.15.43.16.05.02.11.02.17.01.06 0 .11-.03.15-.07Z"/><path fill="#fd0" d="m8.83 39.8-.21-.05h-.11c-.02 0-.04.02-.05.03-.02.02-.03.03-.03.05v.06c.06.27.16.52.32.75.03.03.07.05.11.05.11 0 .21-.21.27-.53l.05-.27v-.05c0-.11-.05-.16-.11-.16h-.05"/><path fill="#131108" d="M46.94 44.27a1.57 1.57 0 0 0 1.06.64c.11 0 .27-.05.48-.05.11 0 .16-.05.21-.05s.11.05.11.11a.94.94 0 0 1-.11.32c-.06.1-.1.21-.11.32l-.05.37-.16.32-.21.21-.05.05v.21a.97.97 0 0 1-.48.9c-.05 0-.05.05-.11.11l-.05.16a1.79 1.79 0 0 1-.48 1.07c-.17.21-.31.45-.43.69-.05.16-.11.21-.21.21s-.32-.21-.37-.48c-.05.05-.05.11-.11.11l-.21.16-.32.21c-.1.06-.19.13-.27.21l-.21.21q-.05.05-.11.05c-.05 0-.16-.16-.27-.43l-.16-.59a1.57 1.57 0 0 1-.05-.53c-.02-.2.02-.4.11-.59-.32.05-.43.05-.64.11-.05 0-.11.05-.16.05-.03 0-.05-.01-.07-.03s-.03-.05-.03-.07l.05-.27.21-.59a1.5 1.5 0 0 1 1.18-.85c.15.02.29.05.43.11.08.04.17.06.27.05.09 0 .18-.03.25-.09a.35.35 0 0 0 .12-.23c0-.11-.05-.21-.16-.21a3.69 3.69 0 0 1-.64-.21c-.3-.12-.56-.32-.75-.59-.21-.27-.32-.37-.43-.37a.1.1 0 0 0-.07.03.1.1 0 0 0-.03.07v.32c-.03.55-.2 1.08-.48 1.54l-.48.85c-.19.32-.3.69-.32 1.06 0 .32.16.64.32.69l.27.05q.05 0 .11.05t.05.11c0 .05-.05.11-.11.16l-.32.37c-.2.3-.5.53-.85.64-.1.24-.25.46-.45.63-.19.17-.42.3-.67.38l-.05.11a1.3 1.3 0 0 1-.96.69h-.05a1.34 1.34 0 0 1-.59.86l-.37.27-.11.16c-.05.16-.16.27-.27.27s-.32-.16-.43-.48c-.05.05-.11.05-.16.11a1.67 1.67 0 0 1-.91.37c-.43.11-.8.27-.85.43l-.16.27-.05.05c-.11 0-.16-.11-.21-.27a3.86 3.86 0 0 1-.16-.96 2.13 2.13 0 0 1 .79-1.6v-.16a1.6 1.6 0 0 1 .52-1.19c.17-.15.36-.26.57-.33.21-.07.44-.09.66-.07h.16l.59.05h.05c.34 0 .66-.14.9-.37.17-.09.31-.23.41-.4.09-.17.14-.36.13-.56a5.32 5.32 0 0 0-.16-.69 2.18 2.18 0 0 1-.11-.8 2.88 2.88 0 0 1 1.22-2.07c.16-.11.32-.27.32-.37s0-.05-.05-.05-.11.05-.21.11c-.11.05-.21.16-.43.27l-.27.16-.32.11c-.11.05-.16.11-.16.16v.09c0 .03.02.05.04.07 0 .04.02.08.05.11 0 .05-.05.11-.11.21l-.21.37c-.16.29-.4.53-.69.69-.21.59-.48.85-.85.9a1.4 1.4 0 0 1-1.17.96c-.09.31-.28.59-.53.8-.11.11-.21.21-.21.27-.16.21-.16.27-.21.27a.67.67 0 0 1-.37-.27.65.65 0 0 1-.16-.21l-.16-.27c-.05-.11-.11-.11-.16-.11h-.11l-.37.05c-.26.06-.5.19-.69.37l-.21.32c0 .05-.05.05-.11.05-.16 0-.27-.32-.27-.9-.04-.38.05-.75.27-1.06l.48-.64c.05-.11.11-.16.11-.27a.36.36 0 0 0-.11-.21c-.11-.11-.21-.21-.27-.21l-.37-.05c-.05 0-.11 0-.11-.05s0-.05.05-.11c.12-.15.26-.28.43-.37.29-.22.64-.35 1.01-.37.32.02.63.11.9.27l.48.32c.06.04.14.06.21.05a.76.76 0 0 0 .59-.43c.14-.24.21-.52.21-.8a1.12 1.12 0 0 0-.32-.8c-.1-.1-.23-.19-.37-.24a1.26 1.26 0 0 0-.43-.08c-.33 0-.64.12-.9.32-.11.05-.16.11-.16.21l-.16.32-.11.11c-.11 0-.27-.27-.43-.59-.11-.2-.18-.41-.21-.64-.1-.27-.15-.56-.16-.85v-.48a1.94 1.94 0 0 1-.32-1.06c0-.2.03-.4.11-.59a1.12 1.12 0 0 1-.21-.75v-.21l.05-.21.05-.21A2.48 2.48 0 0 1 33.7 39a3.94 3.94 0 0 0-.26-.8c0-.11.21-.21.53-.21h.27a.7.7 0 0 1-.05-.32c.01-.23.05-.47.11-.69a.92.92 0 0 0 .11-.43c0-.21-.05-.43-.05-.53l-.16-.32-.04-.07v-.09q0-.05.11-.05a3.1 3.1 0 0 1 1.99 1.55c.11.27.16.56.14.85l-.05.37c.48.43.69.75.69 1.12-.01.26-.13.51-.32.69a1.45 1.45 0 0 0-.59 1.27c0 .9.27 1.38.75 1.38s.8-.48.85-1.17l.05-.64c.02-.22.05-.43.11-.64.04-.14.06-.28.05-.43 0-.21-.16-.53-.59-1.06-.43-.53-.64-.85-.64-1.28 0-.12.01-.23.05-.34.04-.11.1-.21.18-.29.08-.08.18-.15.28-.2a.8.8 0 0 1 .34-.07c.12 0 .23.03.32.11-.03-.27.05-.53.21-.75.05-.22.16-.42.32-.59.04 0 .08.02.11.05.05.05.16.16.21.16.06.03.11.06.16.11l.16.16c.07-.34.26-.64.53-.85.21-.21.32-.32.37-.32s.05.05.11.11l.21.27.27.32c.13.15.21.34.21.53l.16-.11.27-.16c.05-.05.11-.05.21-.16a.16.16 0 0 1 .11-.05c.05 0 .05.05.11.11l.11.37.21.43c.07.13.11.28.11.43v.11h.11c.19.04.37.14.48.3.12.16.17.35.15.55a2.46 2.46 0 0 1-1.12 1.81c-.04.16-.06.32-.05.48 0 1.33.37 1.65 2.45 1.97.47.05.93.14 1.38.27.05 0 .53.16 1.33.43.32.13.66.2 1.01.21.27 0 .37-.05.37-.21s-.32-.43-1.38-.85l-1.49-.59c-1.49-.59-2.24-1.49-2.24-2.87a2.67 2.67 0 0 1 2.77-2.77c.69.01 1.38.16 2.02.43.4.17.81.31 1.22.43.21 0 .32-.16.37-.43.05-.27.11-.37.21-.37.21 0 .43.21.59.53.15.28.22.59.21.9a1 1 0 0 1-.86 1.06 1.59 1.59 0 0 1-1.38.69c-.69 0-1.01-.16-2.18-.85a1.44 1.44 0 0 0-1.15-.3.64.64 0 0 0-.38.32.53.53 0 0 0-.06.24c0 .32.27.53.8.69.21.05.41.14.59.27a.76.76 0 0 1 .27-.05c.67.07 1.31.35 1.81.8a2.84 2.84 0 0 1 1.97 2.39 1.98 1.98 0 0 1-1.91 1.97c.05.11-.53.05-1.01-.05Z"/><path fill="#fd0" d="m46.3 48.95.05-.21.05-.27c0-.05.05-.16.21-.27.17-.25.27-.55.27-.85a.76.76 0 0 0-.11-.32l-.04-.07v-.09c0-.01 0-.03.02-.04l.04-.02v-.02l.01-.02.02-.01h.02c.05 0 .11.05.16.11.04.07.09.12.16.16.05 0 .16-.11.21-.32a.3.3 0 0 1 .05-.16 1.02 1.02 0 0 0-.16-.48l-.04-.07v-.09a.1.1 0 0 1 .03-.07.1.1 0 0 1 .07-.03c.05 0 .11.05.21.16.03.03.07.05.11.05.11 0 .16-.11.27-.37a.76.76 0 0 0 .05-.27q0-.05-.05-.05h-.27a1.44 1.44 0 0 1-.53-.14 1.4 1.4 0 0 1-.43-.34l-.48-.59-.43-.59-.37-.27c-.05-.05-.11-.11-.11-.16s.05-.11.16-.11c.31.07.62.18.9.32.54.22 1.12.35 1.7.37a1.48 1.48 0 0 0 1.49-1.43 2.14 2.14 0 0 0-.69-1.38.75.75 0 0 0-.32-.21c-.03 0-.05.01-.07.03s-.03.05-.03.07c0 .07.02.15.05.21 0 .05.05.11.05.16a.1.1 0 0 1-.03.07.1.1 0 0 1-.07.03c-.11 0-.21-.16-.32-.48-.11-.37-.32-.59-.85-.85a2.66 2.66 0 0 0-.53-.21c-.01 0-.03 0-.04.02l-.02.04c0 .08.01.15.05.21l.16.32s-.01.05-.03.07a.1.1 0 0 1-.07.03c-.11 0-.16-.05-.37-.43a1.74 1.74 0 0 0-.75-.59.49.49 0 0 0-.27-.05.16.16 0 0 0-.11.05c.04.04.06.1.05.16v.11s-.01.05-.03.07a.1.1 0 0 1-.07.03c-.26-.13-.5-.31-.69-.53-.25-.28-.4-.64-.43-1.01a1.34 1.34 0 0 1 1.33-1.22c.15 0 .29.04.43.11l.59.32.69.48c.38.26.82.42 1.28.48.18 0 .36-.04.53-.11.16-.05.27-.11.27-.16l-.05-.05-.37-.05a2.44 2.44 0 0 1-1.06-.48l-.8-.53-.69-.27s-.05-.01-.07-.03a.1.1 0 0 1-.03-.07c0-.05.05-.05.11-.05.07 0 .14.03.21.05l.64.21c.28.1.54.22.8.37.45.29.96.47 1.49.53.09 0 .18 0 .26-.04a.64.64 0 0 0 .22-.14.62.62 0 0 0 .15-.21.57.57 0 0 0 .06-.25c0-.11-.05-.32-.05-.48a.36.36 0 0 0-.11-.21q-.05-.05-.11-.05c-.05 0-.05.05-.05.16v.21c0 .32-.11.43-.48.43a4.6 4.6 0 0 1-1.54-.48 4.9 4.9 0 0 0-1.81-.43 2.4 2.4 0 0 0-2.4 2.23c0 1.01.69 1.81 2.08 2.39l1.44.59c1.22.48 1.65.85 1.65 1.33 0 .37-.37.64-.9.64a3.12 3.12 0 0 1-1.12-.27c-.98-.35-2-.55-3.03-.59a3.78 3.78 0 0 0-1.56.24c-.5.19-.94.49-1.31.88-.11.11-.16.11-.21.11s-.11 0-.27-.11a.99.99 0 0 0-.37-.11.87.87 0 0 0-.43.21l-.16.21c-.05.05-.11.11-.16.11s-.32-.21-.48-.48a.8.8 0 0 1-.16-.43c0-.11-.05-.27-.05-.48v-.32l.05-.32c0-.09.02-.18.05-.27 0-.05.05-.05.11-.05s.11.11.11.27v.16c0 .48.21.9.43.9s.32-.32.43-.9c0-.11.05-.21.11-.21s.11.11.16.32a2.4 2.4 0 0 0 .36.64c.04.03.08.05.13.05.16 0 .21-.21.32-.69.05-.21.11-.32.16-.32s.05 0 .05.05a.6.6 0 0 1 .11.21c.06.07.13.12.21.16.06.04.14.06.21.05h.09c.03 0 .05-.02.07-.04.05-.05.11-.11.11-.16l-.11-.16a1.48 1.48 0 0 1-.32-.59.82.82 0 0 0-.16-.37c-.05-.05-.05-.11-.11-.11h-.16l-.37.11h-.11c-.05 0-.05-.05-.05-.11s.05-.11.16-.21a2.45 2.45 0 0 0 .8-1.76c0-.36.11-.72.32-1.01l.11-.11c.05 0 .11.05.11.16 0 .09-.01.18-.05.27 0 .05-.05.16-.05.21v.05l.05.11.21-.05.21-.21c.13-.21.2-.45.21-.69a.45.45 0 0 0-.04-.2.66.66 0 0 0-.12-.17c-.11-.11-.16-.16-.27-.16h-.21c-.11 0-.16-.05-.16-.11l.05-.11v-.21l-.11-.43-.11-.21-.05-.16-.11.11-.27.16c-.05.05-.16.11-.21.21q-.27.32-.37.32t-.11-.05v-.05a.95.95 0 0 0 .05-.37 1.68 1.68 0 0 0-.48-1.01 1.6 1.6 0 0 0-.39.47c-.09.18-.14.39-.15.59v.21c0 .05 0 .11-.05.11a.1.1 0 0 1-.07-.03.1.1 0 0 1-.03-.07l-.21-.27a1.4 1.4 0 0 0-.27-.21c-.05 0-.05-.05-.16-.11l-.05.16a1.6 1.6 0 0 0-.21.8c0 .21-.05.32-.11.32a.16.16 0 0 1-.11-.05q-.27-.16-.37-.16c-.07 0-.14 0-.21.03a.54.54 0 0 0-.18.11c-.05.05-.09.11-.11.18s-.04.14-.03.21c.02.21.1.41.21.59.16.27.37.53.48.53s.05 0 .05-.11v-.32l-.05-.21v-.05c0-.05 0-.11.05-.11.16 0 .27.43.43 1.33.03.6.25 1.18.64 1.65l.16.16s0 .03-.02.04l-.04.02c-.05 0-.11-.05-.21-.11l-.07-.04h-.09a.46.46 0 0 0-.26.15.41.41 0 0 0-.11.28l-.16.96-.11 1.38c0 .34.03.68.11 1.01.05.37.11.64.11.8a2.19 2.19 0 0 1-1.7 2.13l-1.12.32c-.69.21-1.01.64-1.12 1.49.16-.16.21-.16.48-.21l.32-.05s.1 0 .15-.02a.27.27 0 0 0 .12-.09c.05 0 .11-.11.21-.21l.27-.32c.11-.11.21-.21.27-.21s.05.05.05.11c-.02.09-.06.18-.11.27a.6.6 0 0 0-.11.43c0 .25.1.5.27.69a.31.31 0 0 0 .05-.21c.05-.05.11-.16.27-.37.18-.23.32-.48.43-.75 0-.27.05-.37.11-.37s.05 0 .11.16q0 .05.05.11.05.05.11.05a.3.3 0 0 0 .16-.05c.1-.06.19-.13.27-.21l.16-.32a3 3 0 0 0 .11-.32v-.21c0-.05 0-.11.05-.11s.11.11.16.21q.05.11.11.11c.05 0 .11-.05.16-.05.18-.17.29-.39.32-.64v-.32l-.05-.27s.01-.05.03-.07.05-.03.07-.03c.05 0 .16.11.27.37.05.11.11.16.16.16.11 0 .16-.05.32-.27l.16-.21s.05-.1.05-.16-.02-.11-.05-.16l-.16-.21c0-.05-.05-.11-.05-.16.03-.28.12-.55.27-.8.08-.14.15-.28.21-.43.05-.05.05-.11.11-.11s.05.05.05.11v.53c0 .05.05.11.16.11h.09c.03 0 .05-.02.07-.04l.43-.16c.13-.06.25-.13.37-.21.36-.26.78-.41 1.22-.43.29.01.56.1.8.27.05.03.1.05.16.05.05 0 .11-.05.16-.11a.16.16 0 0 0 .05-.11.36.36 0 0 0-.05-.21.8.8 0 0 1-.11-.27c0-.01 0-.03.02-.04l.04-.02c.03 0 .05.01.07.03s.03.05.03.07c.05.11.16.32.37.69.23.48.63.86 1.12 1.06l.75.16c.21.05.27.16.27.43 0 .25-.06.5-.18.73-.12.22-.3.41-.51.55l-.64.37a1.2 1.2 0 0 0-.43.85c.02.3.05.61.11.9l.11-.11.27-.16.27-.27.16-.37.16-.32c.05-.16.16-.27.21-.27s.11.11.11.27v.11c.16-.11.21 0 .37.37Z"/><path fill="#fd0" d="M36.24 53.85c0-.8.32-1.17 1.49-1.76 2.34-1.17 3.57-2.24 3.57-3.09-.03-.31-.1-.62-.21-.9a2.71 2.71 0 0 1-.16-.75c.08-.51.32-.98.69-1.33l.32-.27a.95.95 0 0 0 .32-.53v-.16c0-.16.05-.21.27-.27h.16s.08-.02.11-.05c.05 0 .11.05.16.11l.11.16.11.16q.05.05.11.05s.08-.02.11-.05a.31.31 0 0 1 .21-.05h.06c.02 0 .04.02.05.03s.03.03.03.05v.06c-.07.52-.29 1-.64 1.38-.64.9-.85 1.38-.85 1.92-.02.42.12.84.37 1.17.03.03.05.07.05.11 0 .05-.05.11-.11.21q-.05.11-.11.16c-.16.21-.21.27-.32.27s-.11-.05-.16-.16l-.05-.16s-.01-.05-.03-.07-.05-.03-.07-.03l-.05.05c-.05.05-.05.11-.05.21v.27a.76.76 0 0 1-.11.32c-.05.11-.16.16-.21.27-.05.11-.11.11-.16.11s-.11-.05-.11-.16l-.11-.32s-.01-.05-.03-.07-.05-.03-.07-.03c-.05 0-.11.11-.11.27-.05.37-.11.64-.21.69l-.27.21a.43.43 0 0 1-.21.11c-.05 0-.11 0-.11-.05l-.11-.27s0-.03-.02-.04l-.04-.02c-.05 0-.11.16-.16.37.02.22-.03.43-.12.63s-.24.36-.41.49c-.18.12-.33.28-.43.48-.15-.2-.22-.44-.21-.69 0-.16 0-.27.05-.32a.8.8 0 0 0 .11-.27c0-.01 0-.03-.02-.04l-.04-.02a.16.16 0 0 0-.11.05.65.65 0 0 1-.21.16.68.68 0 0 0-.31.22.58.58 0 0 0-.12.36.88.88 0 0 1-.25.53.8.8 0 0 1-.54.22c-.59.11-.64.11-.8.32l-.05-.27Zm-1.11-17.62v.43c0 .09-.01.18-.05.27a1.57 1.57 0 0 0 .16 1.17c.1.18.15.38.16.59 0 .04-.02.08-.05.11q-.05 0-.11-.05l-.16-.21c-.11-.16-.21-.21-.48-.21h-.32c.11.27.16.43.21.59.16.53.16.59.48.85.32.27.32.32.32.43s-.05.16-.11.16h-.16c-.11 0-.16.16-.16.37.02.15.05.29.11.43.05.11.11.16.11.21l.16.16.04.07v.09c0 .11-.05.16-.11.16h-.09c-.03 0-.05-.02-.07-.04a.16.16 0 0 1-.11-.05c-.05 0-.11.05-.11.16l.05.27.11.43c0 .11.11.21.21.32.07.09.17.16.27.21l.32.16c.05 0 .05.05.05.16a.1.1 0 0 1-.03.07.1.1 0 0 1-.07.03.3.3 0 0 1-.16-.05h-.16q-.16 0-.16.16c0 .09.01.18.05.27l.05.27c.05.27.16.43.27.43.04 0 .08-.02.11-.05a2.02 2.02 0 0 1 1.86-.26c.05.03.1.05.16.05.05 0 .05-.05.05-.21l.05-.32.05-.53.05-.37v-.21c-.05.05-.11.11-.16.11-.1.12-.22.21-.36.28-.14.06-.29.1-.44.1-.8 0-1.22-.9-1.22-2.39.03-.86.12-1.71.27-2.55.04-.16.06-.32.05-.48a1.8 1.8 0 0 0-.29-.87 1.9 1.9 0 0 0-.67-.62Z"/><path fill="#fd0" d="m36.3 40.06.16-.16.16-.16c.12-.15.2-.34.21-.53a.65.65 0 0 0-.05-.27c-.05-.11-.16-.27-.27-.27s-.11.16-.11.37l-.05.27-.05.27v.48Zm-1.55 6.97c.16.05.21.11.37.32.07.11.18.2.3.26s.26.08.39.06c.09 0 .18-.01.27-.05l.21-.05.16-.05c.11 0 .16-.05.16-.11s-.16-.16-.32-.27a1.56 1.56 0 0 0-.43-.21 1.58 1.58 0 0 0-.37-.11c-.26 0-.52.07-.75.21Zm2.34 4.79a1.16 1.16 0 0 1 1.23-1.01c.32 0 .53.05.53.16s-.16.21-.48.37c-.17.07-.33.16-.48.27-.23.17-.48.29-.75.37l-.05-.16Zm6.92-4.09c.27-.05.32-.11.43-.11h.32c.05 0 .11-.05.21-.16s.16-.11.21-.16c.32-.21.37-.27.37-.32s-.16-.16-.43-.16c-.53 0-.85.27-1.12.9Z"/><path fill="#131108" d="m38.85 37.3.27.16c.11.06.22.14.32.21.27.11.37.16.37.27a2.56 2.56 0 0 0-.1.48c0 .04 0 .07-.02.1a.24.24 0 0 1-.06.09l-.09.06a.36.36 0 0 1-.1.02c-.11 0-.21-.16-.43-.53a2.9 2.9 0 0 1-.27-.69v-.05s.01-.05.03-.07a.1.1 0 0 1 .07-.03Zm2.34.63-.37.37a.66.66 0 0 0-.12.17.45.45 0 0 0-.04.2.16.16 0 0 1-.11.05h-.06c-.02 0-.04-.02-.05-.03s-.03-.03-.03-.05v-.59c0-.11.05-.16.16-.21l.37-.11.37-.21s.1-.05.16-.05a.1.1 0 0 1 .07.03.1.1 0 0 1 .03.07c0 .04-.02.08-.05.11l-.32.27Zm-1.76 1.12.27.21c.06.04.14.06.21.05.15-.02.29-.05.43-.11l.21-.11s.08-.02.11-.05c.08 0 .15.05.2.11s.07.14.07.21c-.05.34-.2.65-.43.9l-.21.37c-.16.21-.27.27-.37.27-.21 0-.32-.11-.59-.69a2.26 2.26 0 0 1-.32-.9c0-.16.11-.32.21-.32.06.04.14.06.21.05Z"/><path fill="#fd0" d="M39.65 40.01v.32s0 .07.02.1l.06.09.09.06c.03.02.07.02.1.02.16 0 .27-.21.32-.59a.8.8 0 0 0 .05-.21c0-.11-.05-.16-.21-.16h-.27c-.11 0-.16.11-.16.32"/><path fill="#131108" d="M20.49 32.29h1.65v3.41h1.97v-3.41h4.95v3.41h1.97v-3.41h1.65v-8.83h-1.92l-.05-.11a1.06 1.06 0 0 0-.9-.53c-.2 0-.39.07-.55.18-.16.11-.28.27-.36.46h-1.38a.93.93 0 0 0-.37-.46 1 1 0 0 0-1.49.46h-1.49a1.03 1.03 0 0 0-.39-.46 1.07 1.07 0 0 0-.57-.18c-.2 0-.39.06-.55.17a1 1 0 0 0-.35.46H20.5v8.83Z"/><path fill="#e63329" d="M32.04 24.2H21.18v7.45h10.86V24.2Z"/><path fill="#fd0" d="M22.3 25.91a.53.53 0 0 0-.3.09c-.09.06-.16.14-.2.24s-.05.2-.03.31c.02.1.07.2.15.27.07.07.17.13.27.15.1.02.21 0 .31-.03.1-.04.18-.11.24-.2a.53.53 0 0 0 .09-.3.55.55 0 0 0-.54-.54Z"/><path d="M22.3 27.02c-.12 0-.23-.03-.33-.1s-.17-.16-.22-.26a.56.56 0 0 1-.03-.34.59.59 0 0 1 .8-.43c.11.04.2.12.26.22s.1.21.1.33a.58.58 0 0 1-.58.58Zm0-1.06a.51.51 0 0 0-.24.07.5.5 0 0 0-.16.19.42.42 0 0 0-.02.25c.02.08.06.16.12.22s.14.1.22.12c.08.02.17 0 .25-.02a.42.42 0 0 0 .19-.16.4.4 0 0 0 .07-.24c.05-.21-.16-.43-.43-.43Z"/><path fill="#fd0" d="M30.81 25.91a.53.53 0 0 0-.3.09.52.52 0 0 0-.2.24c-.04.1-.05.2-.03.31.02.1.07.2.15.27.07.07.17.13.27.15.1.02.21 0 .31-.03.1-.04.18-.11.24-.2a.53.53 0 0 0 .09-.3.55.55 0 0 0-.54-.54Z"/><path d="M30.81 27.02c-.12 0-.23-.03-.33-.1s-.17-.16-.22-.26a.56.56 0 0 1-.03-.34.59.59 0 0 1 .8-.43c.11.04.2.12.26.22s.1.21.1.33a.58.58 0 0 1-.58.58Zm0-1.06a.51.51 0 0 0-.24.07.5.5 0 0 0-.16.19.42.42 0 0 0-.02.25c.02.08.06.16.12.22s.14.1.22.12c.08.02.17 0 .25-.02a.42.42 0 0 0 .19-.16.4.4 0 0 0 .07-.24c.05-.21-.16-.43-.43-.43Z"/><path fill="#fd0" d="M22.3 29.95a.55.55 0 0 0-.54.54.55.55 0 0 0 .54.54c.07 0 .13-.02.19-.04a.48.48 0 0 0 .16-.12c.04-.05.08-.11.1-.17s.03-.13.02-.2a.66.66 0 0 0-.01-.2.4.4 0 0 0-.1-.18.52.52 0 0 0-.17-.12.45.45 0 0 0-.2-.04Z"/><path d="M22.3 31.07a.56.56 0 0 1-.33-.1.62.62 0 0 1-.22-.26.56.56 0 0 1-.03-.34.59.59 0 0 1 .8-.43c.11.04.2.12.26.22s.1.21.1.33a.58.58 0 0 1-.58.58Zm0-1.06c-.06 0-.11 0-.16.03a.42.42 0 0 0-.14.09.42.42 0 0 0-.12.3c0 .06.01.12.04.17.03.05.06.1.11.14.04.04.1.07.16.09.06.02.12.03.18.02.11 0 .21-.05.29-.13a.41.41 0 0 0 .13-.29.47.47 0 0 0-.16-.31.47.47 0 0 0-.32-.12Z"/><path fill="#fd0" d="M30.81 29.95a.53.53 0 0 0-.3.09.52.52 0 0 0-.2.24c-.04.1-.05.2-.03.31.02.1.07.2.15.27.07.07.17.13.27.15.1.02.21.01.31-.03s.18-.11.24-.2a.53.53 0 0 0 .09-.3.55.55 0 0 0-.54-.54Z"/><path d="M30.81 31.07a.56.56 0 0 1-.33-.1.62.62 0 0 1-.22-.26.56.56 0 0 1-.03-.34.59.59 0 0 1 .8-.43c.11.04.2.12.26.22s.1.21.1.33a.58.58 0 0 1-.58.58Zm0-1.06a.51.51 0 0 0-.24.07c-.07.05-.12.11-.16.19s-.04.16-.02.25.06.16.12.22.14.1.22.12c.08.02.17 0 .25-.02a.42.42 0 0 0 .19-.16.4.4 0 0 0 .07-.24c.05-.21-.16-.43-.43-.43Z"/><path fill="#fd0" d="M23.95 28.41a3.36 3.36 0 0 0 2.66 1.33c1.01 0 1.7-.37 2.5-1.33a3.4 3.4 0 0 0-2.56-1.17 3 3 0 0 0-2.6 1.17Z"/><path fill="#131108" d="M24.43 28.41a3.12 3.12 0 0 1 4.16 0 2.64 2.64 0 0 1-2.08.9 3.24 3.24 0 0 1-2.08-.9Z"/><path fill="#fd0" d="M25.33 28.2c.35.24.75.37 1.17.37.44.02.87-.12 1.22-.37-.38-.2-.8-.31-1.22-.32-.4.04-.8.15-1.17.32Z"/><path fill="#131108" d="M32.2 24.58H21.02v.37H32.2v-.37Z"/><path d="M32.2 25H21.02v-.43H32.2V25Zm-11.12-.05H32.2v-.32H21.08v.32Z"/><path fill="#fd0" d="M22.72 24.1v1.06c0 .06.01.12.04.17.03.05.06.1.11.14.05.04.1.07.16.09.06.02.12.03.18.02.32 0 .48-.16.48-.43v-1.06c0-.43-.16-.64-.43-.64a.36.36 0 0 0-.21.05.16.16 0 0 0-.11.05c-.05.05-.05.11-.11.16a.31.31 0 0 0-.05.21m3.3 1.08v.21c0 .06.01.12.04.17.03.05.06.1.11.14.04.04.1.07.15.09.06.02.12.03.18.02.32 0 .48-.16.48-.43v-1.06c0-.43-.16-.64-.43-.64s-.48.27-.48.64m3.19-.04v1.06c0 .06.01.12.04.17.03.05.06.1.11.14.04.04.1.07.15.09.06.02.12.03.18.02.32 0 .48-.16.48-.43v-1.06c0-.43-.16-.64-.43-.64a.36.36 0 0 0-.21.05.16.16 0 0 0-.11.05c-.05.05-.05.11-.11.16a.31.31 0 0 0-.05.21m-5.85 9.17h-1.01v1.33h1.01v-1.33Zm0 1.6h-1.01v.43h1.01v-.43Zm6.92-1.6h-1.01v1.33h1.01v-1.33Zm0 1.6h-1.01v.43h1.01v-.43Z"/><path fill="#131108" d="M65.72 5.3v11.18c0 5.22 2.85 7.63 8.92 7.63 5.38 0 8.01-2.9 8.01-8.92V5.35c0-2.42 1.29-2.42 2.04-2.42h.54v-.81c-.22 0-6.72 0-7.04-.05v.81h.48c.97 0 2.31 0 2.31 2.42v10.54c0 4.52-2.04 6.94-5.86 6.94s-5.86-2.26-5.86-6.83V5.3c0-2.42 1.4-2.42 2.53-2.42h.27v-.81h-9.09v.81h.27c1.18 0 2.47 0 2.47 2.42Zm29.36 17.58h-.32c-2.58 0-2.9-1.94-2.9-4.09V5.84l14.89 17.9h1.13V6.97c0-3.76 1.45-4.09 2.8-4.09h.32v-.81h-7.74v.81h.54c.81 0 2.74.32 2.74 3.06v12.2L93.48 2.12h-6.02v.81h.27c1.67 0 2.85.86 2.85 2.9v12.96c0 2.15-.32 4.09-2.85 4.09h-.32v.81h7.69v-.81Zm31.5-18.12 7.8 18.98h1.34l7.15-19.14c.59-1.45 1.4-1.67 2.04-1.67h.16v-.81h-6.13v.81h.38c1.99 0 2.53.7 1.67 2.96l-4.73 13.23-5.59-14.09c-.43-1.13-.11-2.1 1.4-2.1h.59v-.81h-8.87v.81h.16c1.29 0 1.99.27 2.63 1.83Zm48.71 18.12h-.43c-1.51 0-2.58-.22-2.58-2.63v-6.72h2.37l6.4 10.11h5.48v-.81c-1.45-.05-2.15-.59-3.01-1.88l-5.27-8.01.16-.05c1.88-.75 4.25-2.31 4.25-5.38 0-3.6-2.37-5.38-7.15-5.38h-9.57v.81h.43c.81 0 2.26 0 2.26 2.47v15.65c0 1.34-1.24 1.83-2.26 1.83h-.43v.81h9.36v-.81Zm-3.12-19.73c.59-.11 1.45-.11 2.1-.16 2.74 0 4.57 1.83 4.57 4.68 0 3.49-1.5 5-4.84 5h-1.83V3.15Zm21.62 20.11c-2.58 0-4.57-1.77-5.16-4.89l-.81.16.54 4.68c1.57.85 3.33 1.27 5.11 1.24 3.66 0 7.63-1.99 7.63-6.45 0-3.98-2.9-5.32-5.48-6.61-2.04-1.02-4.3-2.04-4.3-4.46s1.72-3.98 4.03-3.98c2.47 0 3.6 1.67 3.98 3.87l.81-.11-.27-4.19c-1.48-.34-3-.52-4.52-.54-4.19 0-7.1 2.47-7.1 6.34s2.8 5.27 5.27 6.56c2.1 1.08 4.36 2.1 4.36 4.73 0 2.15-1.61 3.66-4.09 3.66Zm19.4-.43h-.32c-1.24 0-2.37-.22-2.37-1.88V4.82c0-1.67 1.13-1.88 2.37-1.88h.32v-.81h-8.98v.81h.32c1.24 0 2.37.22 2.37 1.88v16.13c0 1.67-1.13 1.88-2.37 1.88h-.32v.81h8.98v-.81Zm-90.7 0h-.32c-1.24 0-2.37-.22-2.37-1.88V4.82c0-1.67 1.13-1.88 2.37-1.88h.32v-.81h-8.98v.81h.32c1.24 0 2.37.22 2.37 1.88v16.13c0 1.67-1.13 1.88-2.37 1.88h-.32v.81h8.98v-.81Zm180.6 31.13c-1.24 4.46-3.28 4.73-7.69 4.73-2.47 0-4.78 0-4.78-2.69v-9.25h4.62c2.47 0 2.96 1.67 3.12 3.76h.91v-8.82h-.91c-.27 2.15-.86 3.44-3.12 3.44h-4.62V34.59H296c4.03 0 4.57 2.04 4.79 4.52l.91-.22-.05-5.7h-18.92v.97h.38c1.56 0 2.96.27 2.96 2.37V56.8c0 2.1-1.4 2.37-2.96 2.37h-.38v.97h20.05l1.24-5.97s-.75-.16-.91-.22Zm-100.65 2.79-6.61-10.05.16-.05c2.37-.91 5.38-2.9 5.38-6.72 0-4.52-2.96-6.72-8.92-6.72 0 0-11.77 0-12.04-.05v.97h.54c1.02 0 2.85 0 2.85 3.12v19.62c0 1.67-1.56 2.26-2.85 2.26h-.54v.97h11.72v-.97h-.54c-1.94 0-3.28-.22-3.28-3.28v-8.39h2.96l8.01 12.69h6.94v-1.02c-1.83-.11-2.69-.75-3.76-2.37Zm-11.83-10.32h-2.31V34.49c.87-.11 1.75-.16 2.63-.16 3.44 0 5.75 2.31 5.75 5.86 0 4.35-1.88 6.24-6.07 6.24Zm17.21-12.26h.38c1.56 0 2.96.27 2.96 2.37v20.27c0 2.1-1.4 2.37-2.96 2.37h-.38v.97h11.29v-.97h-.38c-1.56 0-2.96-.27-2.96-2.37V36.54c0-2.1 1.4-2.37 2.96-2.37h.38v-.97h-11.29v.97Zm12.52-11.34h-.43v.81h9.78v-.81h-.43c-1.4 0-2.63-.22-2.63-2.8V3.42h4.35c2.1 0 2.26 1.88 2.31 3.17h.75l.54-5.59h-.7c-.16.97-1.07 1.13-1.77 1.13h-14.25c-.75 0-1.56-.16-1.83-1.08h-.65l-.48 5.54h.75c.43-2.2.65-3.17 2.9-3.17h4.41v16.67c0 2.63-1.02 2.74-2.63 2.74Zm28.23-2.85V13.1l5.48-8.44c.54-.81 1.29-1.67 2.53-1.72v-.81h-6.13v.81h.38c2.31 0 2.04 1.24 1.13 2.63l-4.09 6.45-4.57-7.1c-.7-1.02-.59-1.94 1.13-1.94h.27v-.81h-8.87v.81h.16c1.4 0 2.1.86 3.01 2.15l5.91 8.49v6.61c0 2.26-.91 2.69-2.63 2.69h-.43v.81h9.79v-.81h-.43c-1.67 0-2.63-.22-2.63-2.96Zm25.54-18.33c-6.18 0-11.02 5-11.02 11.4s4.73 11.08 11.18 11.08 11.29-5 11.29-11.83c0-6.29-4.68-10.65-11.45-10.65Zm.54 21.34c-5.16 0-7.53-5.7-7.53-11.02 0-2.15.48-9.19 6.99-9.19 4.89 0 7.53 5.27 7.53 10.22 0 6.72-2.26 10-6.99 10Zm23.06-.16h-.27c-1.4 0-3.01 0-3.01-1.88v-7.96h3.82c2.2 0 2.53 1.72 2.53 3.06h.7V9.17h-.7c0 1.13-.27 2.53-2.04 2.53h-4.3V3.26h4.89c2.58 0 3.01 1.77 3.17 3.6.24-.02.47-.08.7-.16l-.05-4.57H288.1v.81h.32c1.24 0 2.37.22 2.37 1.88v16.13c0 1.67-1.13 1.88-2.37 1.88h-.32v.81h9.62v-.81ZM88.73 54.71c-2.15 2.8-5 4.3-9.03 4.3-7.15 0-10.11-6.29-10.11-12.96 0-7.47 3.66-12.15 9.52-12.15s7.42 3.33 8.44 6.94l.86-.11-.27-6.24A21.19 21.19 0 0 0 79 32.55a14.62 14.62 0 0 0-9.89 3.66c-2.8 2.53-4.41 6.45-4.41 10.48 0 9.09 5.59 14.19 14.25 14.19 4.3 0 8.06-1.67 10.48-4.84l-.7-1.34Zm59.46 2.1-1.02-17.9c-.21-3.82.32-4.78 3.33-4.78h.16v-.97h-7.47c-.05.27-8.66 20.48-8.66 20.48s-9.03-20.22-9.14-20.43h-7.63v.97h.32c2.15 0 3.44 1.34 3.28 3.66l-1.07 17.04c-.11 2.47-.32 4.19-3.39 4.3h-.32v.97h9.09v-.97h-.21c-2.47-.05-3.6-.38-3.44-4.09l.91-16.67s9.68 21.77 9.57 21.94h.81c.11-.22 9.36-22.42 9.36-22.42l.81 17.26.05 1.94c0 1.88-1.29 1.94-3.12 2.04h-.05v.97h11.18v-.97c-2.1-.11-3.17-.27-3.33-2.37Zm87.21-23.55h-12.04v.97h.38c1.56 0 2.96.27 2.96 2.37v20.27c0 2.1-1.4 2.37-2.96 2.37h-.38v.97h12.63c3.76 0 7.47-.86 10.11-3.49a14.28 14.28 0 0 0 4.14-10.05c0-4.03-1.34-7.42-3.98-9.84-2.63-2.42-6.4-3.55-10.86-3.55Zm0 25.75c-2.85 0-4.09-.48-4.09-3.33V34.5c.65-.05 2.04-.11 2.74-.11 7.58 0 11.29 4.09 11.29 13.01 0 5.75-3.12 11.61-9.95 11.61Zm34.46-9.03h.32c1.99 0 3.06.75 3.06 2.2v6.61a9.67 9.67 0 0 1-4.36.65c-7.15 0-10.38-6.77-10.38-13.6 0-7.42 3.76-12.04 10.05-12.04 4.68 0 6.72 1.83 7.85 6.45h.91l-.43-6.45a28.82 28.82 0 0 0-8.6-1.34c-7.15 0-14.73 4.3-14.73 13.82 0 8.98 5.75 14.73 14.68 14.73 3.21 0 6.4-.48 9.46-1.45v-7.37c0-1.45.75-2.2 2.2-2.2h.32v-.97h-10.38v.97Zm-94.19-1.88c-1.51-1.56-3.33-2.31-6.72-2.58 3.33-.54 7.1-2.15 7.04-6.29 0-3.87-3.06-5.91-8.71-5.91h-11.99v.97h.54c1.02 0 2.85 0 2.85 3.12v19.57c0 1.67-1.56 2.31-2.85 2.31h-.54v.97h13.23c5.05 0 8.92-3.39 8.92-7.63a6.2 6.2 0 0 0-1.78-4.52Zm-12.2-13.87h2.42c3.6 0 5.38 1.77 5.38 5.59 0 3.44-2.04 5.27-5.75 5.27h-2.04V34.23Zm3.6 24.89c-2.74 0-3.6-.75-3.6-3.39v-9.52h2.58c4.25 0 6.77 2.37 6.77 6.51 0 3.71-2.47 6.4-5.75 6.4Zm-54.9-2.48-8.76-23.44h-1.99l-8.55 23.28c-.65 1.67-1.77 2.69-3.44 2.69h-.11v1.02h8.23v-1.02h-.38c-1.99 0-3.33-.65-2.47-3.17l1.94-5.43h8.49l2.15 5.91c.59 1.88-.16 2.74-2.2 2.74h-.21v1.02h10.43v-1.02h-.11c-1.4 0-2.37-.75-3.01-2.58Zm-15-7.42 3.76-10.54 3.76 10.54h-7.53Zm66.24-30.32s-.54-.11-.7-.16c-.97 3.55-2.63 3.76-6.13 3.76-1.99 0-3.82 0-3.82-2.15v-7.42h3.66c1.99 0 2.37 1.34 2.47 3.01h.75V8.9h-.75c-.16 1.72-.7 2.74-2.47 2.74h-3.66V3.26h4.3c3.23 0 3.66 1.61 3.82 3.6.26-.03.51-.08.75-.16l-.05-4.57h-15.11v.81h.32c1.24 0 2.37.22 2.37 1.88v16.13c0 1.67-1.13 1.88-2.37 1.88h-.32v.81h15.97l.97-4.73Z"/></svg>