<svg width="306" height="221" viewBox="0 0 306 221" fill="none" xmlns="http://www.w3.org/2000/svg">
<path d="M179.245 219.239C178.998 218.555 177.954 217.485 173.664 215.924C172.106 215.356 162.563 212.253 162.563 212.253H154.809V220.997L179.232 220.975L179.245 219.239Z" fill="#E53434"/>
<path d="M179.245 220.995H154.812V219.241H179.245V220.995Z" fill="#AD1A22"/>
<path d="M125.672 219.239C125.918 218.555 126.962 217.485 131.252 215.924C132.813 215.356 142.353 212.253 142.353 212.253H150.108L150.095 220.997L125.672 220.975V219.239Z" fill="#E53434"/>
<path d="M150.108 220.995H125.672V219.241H150.108V220.995Z" fill="#AD1A22"/>
<path d="M108.934 90.5896C108.934 90.5896 109.348 86.4349 109.463 84.3254C109.579 82.2159 108.318 81.6231 107.227 83.1447C106.107 84.7108 104.831 85.3925 104.011 84.3798C103.191 83.367 101.081 78.4515 99.5072 79.8817C97.9336 81.3119 99.5441 85.6346 101.337 88.2801C102.407 89.8731 103.76 91.2553 105.329 92.3583" fill="white"/>
<path d="M104.855 93.1018C103.186 91.9371 101.746 90.4713 100.61 88.779C98.8197 86.1237 96.7734 81.1833 98.9207 79.2319C99.1138 79.0443 99.348 78.9046 99.6046 78.824C99.8611 78.7434 100.133 78.724 100.398 78.7675C101.735 78.975 102.775 80.5929 103.994 82.6901C104.205 83.0827 104.44 83.4622 104.698 83.8264C104.826 83.9869 104.917 83.9869 104.944 83.982C105.176 83.982 105.772 83.6831 106.523 82.6333C107.237 81.6452 108.155 81.2081 109.002 81.5094C109.918 81.833 110.418 82.9025 110.34 84.3723C110.224 86.4793 109.822 90.5081 109.805 90.6786L108.069 90.5032C108.069 90.4612 108.48 86.3434 108.594 84.2759C108.635 83.5077 108.446 83.1915 108.394 83.1471C108.419 83.1767 108.209 83.2805 107.943 83.6559C106.99 84.9849 105.973 85.7062 104.988 85.7334C104.668 85.7442 104.35 85.677 104.061 85.5376C103.772 85.3982 103.52 85.1908 103.329 84.933C103.013 84.4992 102.726 84.0446 102.472 83.572C102.033 82.831 100.709 80.5411 100.115 80.5016C99.1719 81.3686 100.147 84.965 102.058 87.7958C103.065 89.2893 104.333 90.5881 105.801 91.6295L104.853 93.1115L104.855 93.1018Z" fill="#003E90"/>
<path d="M148.433 125.352C125.45 125.352 105.456 111.976 99.8145 92.825L109.874 89.8411C114.208 104.556 130.067 114.829 148.433 114.829V125.352Z" fill="#003E90"/>
<path d="M196.066 90.5896C196.066 90.5896 195.652 86.4349 195.537 84.3254C195.421 82.2159 196.682 81.6231 197.77 83.1447C198.893 84.7108 200.166 85.3925 200.989 84.3798C201.811 83.367 203.919 78.4515 205.493 79.8817C207.066 81.3119 205.453 85.6346 203.663 88.2801C202.592 89.8735 201.238 91.2558 199.669 92.3583" fill="white"/>
<path d="M200.142 93.1017L199.193 91.6196C200.662 90.5787 201.931 89.2799 202.939 87.786C204.85 84.9552 205.823 81.3636 204.909 80.5213C204.293 80.5213 202.966 82.8111 202.53 83.562C202.275 84.0347 201.988 84.4894 201.671 84.923C201.481 85.183 201.23 85.3921 200.941 85.5317C200.651 85.6713 200.332 85.7372 200.011 85.7234C199.026 85.6962 198.019 84.9823 197.056 83.646C196.788 83.2705 196.578 83.1668 196.529 83.1519C196.421 83.5102 196.378 83.8851 196.403 84.2585C196.517 86.326 196.928 90.4339 196.93 90.4857L195.192 90.6611C195.175 90.4907 194.776 86.4619 194.66 84.3549C194.579 82.8852 195.081 81.8157 195.995 81.4921C196.842 81.1907 197.76 81.6155 198.474 82.6159C199.228 83.6657 199.821 83.9572 200.053 83.9646C200.087 83.9646 200.174 83.9646 200.299 83.809C200.556 83.4443 200.791 83.0648 201.003 82.6727C202.235 80.5756 203.259 78.9676 204.599 78.7502C204.864 78.7067 205.136 78.726 205.392 78.8067C205.649 78.8873 205.883 79.0269 206.076 79.2146C208.224 81.166 206.177 86.1062 204.385 88.7616C203.249 90.4545 201.81 91.9204 200.139 93.0843L200.142 93.1017Z" fill="#003E90"/>
<path d="M156.564 125.352V114.829C174.933 114.829 190.794 104.556 195.126 89.8411L205.185 92.825C199.541 111.976 179.547 125.352 156.564 125.352Z" fill="#003E90"/>
<path d="M140.459 115.75H164.498L152.469 150.616L140.459 115.75Z" fill="white"/>
<path d="M166.097 89.0285H138.814V86.2175C138.863 82.6203 140.321 79.1868 142.874 76.6601C145.427 74.1334 148.869 72.7168 152.456 72.7168C156.042 72.7168 159.484 74.1334 162.037 76.6601C164.59 79.1868 166.049 82.6203 166.097 86.2175V89.0285Z" fill="#003E90"/>
<path d="M140.459 115.75H131.39V162.31H156.978L140.459 115.75Z" fill="#003E90"/>
<path d="M164.499 115.75H173.568V162.31L147.94 162.203L164.499 115.75Z" fill="#003E90"/>
<path d="M152.449 117.902L157.677 122.15L153.946 125.008L156.564 138.201L152.469 149.594L148.376 138.066L150.913 125.008L147.224 122.15L152.449 117.902Z" fill="#E53434"/>
<path d="M152.479 118.191L144.688 111.806V99.3684H160.455V111.806L152.479 118.191Z" fill="white"/>
<path d="M152.469 119.317L143.813 112.223V98.4915H161.33V112.228L152.464 119.317H152.469ZM145.574 111.388L152.496 117.069L159.594 111.388V100.25H145.574V111.393V111.388Z" fill="#003E90"/>
<path d="M141.284 90.6069V97.9037C141.284 100.875 142.461 103.725 144.556 105.826C146.651 107.928 149.492 109.108 152.454 109.108C155.417 109.108 158.258 107.928 160.353 105.826C162.448 103.725 163.624 100.875 163.624 97.9037V90.6069" fill="white"/>
<path d="M152.452 109.983C149.26 109.976 146.201 108.701 143.944 106.438C141.687 104.174 140.417 101.105 140.41 97.9037V90.6069H142.159V97.9037C142.159 100.643 143.243 103.27 145.174 105.206C147.105 107.143 149.724 108.231 152.455 108.231C155.185 108.231 157.804 107.143 159.735 105.206C161.666 103.27 162.75 100.643 162.75 97.9037V90.6069H164.499V97.9037C164.492 101.106 163.221 104.175 160.963 106.439C158.705 108.703 155.645 109.977 152.452 109.983Z" fill="#003E90"/>
<path d="M168.969 93.2398H135.946C135.25 93.2398 134.583 92.9627 134.091 92.4694C133.6 91.976 133.323 91.3069 133.323 90.6092C133.323 89.9115 133.6 89.2423 134.091 88.749C134.583 88.2556 135.25 87.9785 135.946 87.9785H168.969C169.664 87.9785 170.331 88.2556 170.823 88.749C171.315 89.2423 171.591 89.9115 171.591 90.6092C171.591 91.3069 171.315 91.976 170.823 92.4694C170.331 92.9627 169.664 93.2398 168.969 93.2398Z" fill="#003E90"/>
<path d="M199.674 29.1526C199.674 13.5364 178.545 0.876953 152.486 0.876953C126.428 0.876953 105.299 13.5364 105.299 29.1526C105.299 43.0396 122.012 54.5801 144.04 56.9663L152.486 65.0979L160.935 56.9663C182.96 54.5801 199.674 43.0396 199.674 29.1526Z" fill="white"/>
<path d="M152.486 66.4045L143.621 57.801C120.892 55.2395 104.435 43.2273 104.435 29.1475C104.435 13.0719 125.992 0 152.494 0C178.996 0 200.555 13.0769 200.555 29.1475C200.555 43.2273 184.096 55.2346 161.366 57.801L152.501 66.4045H152.486ZM152.486 1.75376C126.95 1.75376 106.176 14.0452 106.176 29.1525C106.176 42.38 122.138 53.7105 144.133 56.0941L144.463 56.1312L152.486 63.7886L160.509 56.1312L160.839 56.0941C182.835 53.7105 198.8 42.38 198.8 29.1525C198.8 14.0452 178.023 1.75376 152.486 1.75376Z" fill="#003E90"/>
<path d="M147.018 101.997C147.69 102.791 148.529 103.427 149.475 103.859C150.42 104.291 151.449 104.509 152.488 104.496C153.527 104.484 154.55 104.241 155.485 103.787C156.42 103.332 157.244 102.676 157.897 101.866" fill="white"/>
<path d="M152.403 105.376C151.253 105.371 150.118 105.118 149.075 104.634C148.032 104.15 147.105 103.446 146.357 102.57C146.282 102.483 146.225 102.382 146.189 102.273C146.153 102.164 146.139 102.048 146.147 101.934C146.155 101.819 146.186 101.707 146.237 101.604C146.288 101.502 146.359 101.41 146.446 101.335C146.533 101.259 146.633 101.202 146.742 101.166C146.851 101.129 146.966 101.115 147.08 101.123C147.194 101.132 147.306 101.162 147.409 101.214C147.511 101.265 147.602 101.337 147.677 101.424C148.267 102.122 149.003 102.681 149.833 103.061C150.663 103.441 151.566 103.633 152.478 103.622C153.391 103.611 154.289 103.397 155.11 102.997C155.93 102.597 156.652 102.02 157.225 101.307C157.296 101.214 157.386 101.135 157.488 101.077C157.591 101.019 157.704 100.982 157.821 100.969C157.938 100.956 158.056 100.967 158.169 101C158.282 101.034 158.387 101.09 158.477 101.166C158.568 101.241 158.642 101.334 158.696 101.439C158.75 101.544 158.782 101.659 158.791 101.776C158.799 101.894 158.784 102.012 158.746 102.124C158.708 102.236 158.648 102.339 158.569 102.427C157.822 103.342 156.884 104.081 155.819 104.591C154.755 105.1 153.592 105.369 152.413 105.376H152.403Z" fill="#003E90"/>
<path d="M169.446 213.661H154.833L153.085 160.887H169.446V213.661Z" fill="#003E90"/>
<path d="M135.47 213.661H150.083L151.831 160.887H135.47V213.661Z" fill="#003E90"/>
<path d="M157.801 161.487H147.188V171.99H157.801V161.487Z" fill="#003E90"/>
<path d="M169.446 164.014H159.965C157.727 163.998 155.586 163.091 154.013 161.494C152.44 159.896 151.564 157.738 151.575 155.492H153.324C153.312 157.274 154.005 158.988 155.252 160.257C156.499 161.526 158.196 162.248 159.973 162.263H169.453V164.014H169.446Z" fill="#101F69"/>
<path d="M144.951 164.014H135.47V162.263H144.951C146.727 162.248 148.425 161.526 149.671 160.257C150.918 158.988 151.611 157.274 151.599 155.492V150.616H153.348V155.492C153.36 157.738 152.483 159.896 150.91 161.494C149.337 163.091 147.196 163.998 144.958 164.014H144.951Z" fill="#101F69"/>
<path d="M153.215 151.767L151.77 150.784L166.486 128.983L162.972 124.85L167.68 123.151L163.93 116.714L165.439 115.827L170.253 124.085L165.944 125.641L168.677 128.862L153.215 151.767Z" fill="#101F69"/>
<path d="M151.77 151.767L136.307 128.862L139.043 125.641L134.731 124.085L139.548 115.827L141.058 116.714L137.305 123.151L142.013 124.85L138.499 128.983L153.215 150.784L151.77 151.767Z" fill="#101F69"/>
<path d="M160.536 111.739L152.449 118.191L156.682 121.861L164.287 115.844L160.536 111.739Z" fill="white"/>
<path d="M156.658 122.998L151.08 118.161L160.632 110.543L165.557 115.945L156.648 122.998H156.658ZM153.818 118.218L156.707 120.723L163.006 115.738L160.443 112.934L153.818 118.218Z" fill="#003E90"/>
<path d="M144.412 111.739L152.499 118.191L148.268 121.861L140.664 115.844L144.412 111.739Z" fill="white"/>
<path d="M148.292 122.998L139.383 115.953L144.308 110.551L153.858 118.168L148.282 123.005L148.292 122.998ZM141.946 115.738L148.246 120.723L151.134 118.218L144.51 112.934L141.946 115.738Z" fill="#003E90"/>
<path d="M166.1 88.0304H138.814V86.2766H166.1V88.0304Z" fill="#101F69"/>
<path d="M169.446 213.661H154.812V211.907H169.446V213.661Z" fill="#101F69"/>
<path d="M150.107 213.661H135.47V211.907H150.107V213.661Z" fill="#101F69"/>
<path d="M145.468 152.022H134.955V153.776H145.468V152.022Z" fill="#101F69"/>
<path d="M169.946 152.022H159.434V153.776H169.946V152.022Z" fill="#101F69"/>
<mask id="mask0_37_1323" style="mask-type:alpha" maskUnits="userSpaceOnUse" x="108" y="4" width="89" height="51">
<ellipse cx="152.422" cy="29.1475" rx="43.8335" ry="24.9483" fill="#D9D9D9"/>
</mask>
<g mask="url(#mask0_37_1323)">
<path d="M156.855 54.0835V33.5642H196.3V24.773H156.855V4.23633H148.128V24.773H108.668V33.5642H148.128V54.0835H156.855Z" fill="#E53434"/>
<path d="M196.301 10.1201L175.455 20.8775L196.301 20.8751V10.1201Z" fill="#003E90"/>
<path d="M188.935 4.23633H160.188V19.0695L188.935 4.23633Z" fill="#003E90"/>
<path d="M196.3 4.23633H193.517L161.233 20.8776H168.037L196.3 6.31124V4.23633Z" fill="#E53434"/>
<path d="M108.673 10.1201L129.521 20.8775L108.673 20.8751V10.1201Z" fill="#003E90"/>
<path d="M116.038 4.23633H144.786V19.0695L116.038 4.23633Z" fill="#003E90"/>
<path d="M108.673 4.25854V7.76366L134.113 20.8776H140.918L108.673 4.25854Z" fill="#E53434"/>
<path d="M108.673 48.2071L129.521 37.4497L108.673 37.4546V48.2071Z" fill="#003E90"/>
<path d="M116.038 54.0909H144.786V39.2603L116.038 54.0909Z" fill="#003E90"/>
<path d="M108.673 54.091H111.456L143.742 37.4497H136.938L108.673 52.0185V54.091Z" fill="#E53434"/>
<path d="M196.301 48.2071L175.455 37.4497L196.301 37.4546V48.2071Z" fill="#003E90"/>
<path d="M188.935 54.0909H160.188V39.2603L188.935 54.0909Z" fill="#003E90"/>
<path d="M196.3 54.0712V50.5612L170.857 37.4497H164.056L196.3 54.0712Z" fill="#E53434"/>
</g>
</svg>
