<svg width="306" height="221" viewBox="0 0 306 221" fill="none" xmlns="http://www.w3.org/2000/svg">
<g clip-path="url(#clip0_37_1095)">
<path d="M120.288 210.971V68.2003C120.289 67.18 120.693 66.2018 121.411 65.4803C122.129 64.7589 123.103 64.3532 124.118 64.3525H191.228C192.243 64.3532 193.217 64.7589 193.935 65.4803C194.653 66.2018 195.057 67.18 195.058 68.2003V210.971H120.288Z" fill="#E53434"/>
<path d="M116.346 221V214.818C116.346 213.798 116.749 212.819 117.468 212.097C118.186 211.376 119.16 210.97 120.176 210.97H195.17C195.673 210.97 196.17 211.07 196.635 211.263C197.099 211.457 197.522 211.74 197.877 212.098C198.232 212.455 198.514 212.879 198.707 213.346C198.899 213.813 198.997 214.313 198.997 214.818V221H116.346Z" fill="#003E90"/>
<path d="M123.955 45.8291V64.3178H191.387V45.8291H123.955Z" fill="#E53434"/>
<path d="M183.173 59.4571H132.149V50.6924H183.173V59.4571Z" fill="white"/>
<path d="M184.125 60.4135H131.199V49.749H184.125V60.4135ZM133.098 58.511H182.231V51.6488H133.093V58.511H133.098Z" fill="#AD1A22"/>
<path d="M195.061 45.8156V39.0927C189.948 32.0804 175.153 27.0027 157.675 27.0027C140.196 27.0027 125.401 32.0938 120.291 39.0927V45.8183L195.061 45.8156Z" fill="#E53434"/>
<path d="M193.012 43.7739H122.331V39.9556L122.598 39.6876C129.103 33.1549 142.532 29.0981 157.64 29.0981C172.789 29.0981 186.232 33.171 192.724 39.7251L192.991 39.9931V43.7739H193.012ZM124.227 41.8714H191.118V40.7836C184.944 34.8243 171.88 30.9899 157.653 30.9899C143.426 30.9899 130.415 34.8109 124.227 40.7487V41.8714V41.8714Z" fill="#AD1A22"/>
<path d="M146.848 79.1621H135.104V96.3057H146.848V79.1621Z" fill="#003E90"/>
<path d="M147.792 97.257H134.157V78.2136H147.792V97.2623V97.257ZM136.056 95.3545H145.906V80.1107H136.056V95.3626V95.3545Z" fill="#101F69"/>
<path d="M163.544 79.1621H151.801V96.3057H163.544V79.1621Z" fill="#003E90"/>
<path d="M164.489 97.257H150.854V78.2136H164.489V97.2623V97.257ZM152.754 95.3545H162.601V80.1107H152.754V95.3626V95.3545Z" fill="#101F69"/>
<path d="M180.242 79.1621H168.498V96.3057H180.242V79.1621Z" fill="#003E90"/>
<path d="M181.191 97.257H167.554V78.2136H181.191V97.2623V97.257ZM169.455 95.3545H179.305V80.1107H169.455V95.3626V95.3545Z" fill="#101F69"/>
<path d="M146.848 101.298H135.104V118.441H146.848V101.298Z" fill="#003E90"/>
<path d="M147.792 119.392H134.157V100.346H147.792V119.392V119.392ZM136.056 117.49H145.906V102.249H136.056V117.49Z" fill="#101F69"/>
<path d="M163.544 101.298H151.801V118.441H163.544V101.298Z" fill="#003E90"/>
<path d="M164.489 119.392H150.854V100.346H164.489V119.392V119.392ZM152.754 117.49H162.601V102.249H152.754V117.49Z" fill="#101F69"/>
<path d="M180.242 101.298H168.498V118.441H180.242V101.298Z" fill="#003E90"/>
<path d="M181.191 119.392H167.554V100.346H181.191V119.392V119.392ZM169.455 117.49H179.305V102.249H169.455V117.49Z" fill="#101F69"/>
<path d="M146.848 123.431H135.104V140.58H146.848V123.431Z" fill="#003E90"/>
<path d="M147.792 141.531H134.157V122.479H147.792V141.531ZM136.056 139.628H145.906V124.382H136.056V139.628Z" fill="#101F69"/>
<path d="M163.544 123.431H151.801V140.58H163.544V123.431Z" fill="#003E90"/>
<path d="M164.489 141.531H150.854V122.479H164.489V141.531ZM152.754 139.628H162.601V124.382H152.754V139.628Z" fill="#101F69"/>
<path d="M180.242 123.431H168.498V140.58H180.242V123.431Z" fill="#003E90"/>
<path d="M181.191 141.531H167.554V122.479H181.191V141.531ZM169.455 139.628H179.305V124.382H169.455V139.628Z" fill="#101F69"/>
<path d="M146.848 145.569H135.104V162.718H146.848V145.569Z" fill="#003E90"/>
<path d="M147.792 163.666H134.157V144.615H147.792V163.666ZM136.056 161.764H145.906V146.517H136.056V161.764Z" fill="#101F69"/>
<path d="M163.544 145.569H151.801V162.718H163.544V145.569Z" fill="#003E90"/>
<path d="M164.489 163.666H150.854V144.615H164.489V163.666ZM152.754 161.764H162.601V146.517H152.754V161.764Z" fill="#101F69"/>
<path d="M180.242 145.569H168.498V162.718H180.242V145.569Z" fill="#003E90"/>
<path d="M181.191 163.666H167.554V144.615H181.191V163.666ZM169.455 161.764H179.305V146.517H169.455V161.764Z" fill="#101F69"/>
<path d="M146.848 167.704H135.104V184.851H146.848V167.704Z" fill="#003E90"/>
<path d="M147.792 185.799H134.157V166.75H147.792V185.799ZM136.056 183.897H145.906V168.653H136.056V183.897Z" fill="#101F69"/>
<path d="M163.544 167.704H151.801V184.851H163.544V167.704Z" fill="#003E90"/>
<path d="M164.489 185.799H150.854V166.75H164.489V185.799ZM152.754 183.897H162.601V168.653H152.754V183.897Z" fill="#101F69"/>
<path d="M180.242 167.704H168.498V184.851H180.242V167.704Z" fill="#003E90"/>
<path d="M181.191 185.799H167.554V166.75H181.191V185.799ZM169.455 183.897H179.305V168.653H169.455V183.897Z" fill="#101F69"/>
<path d="M188.417 210.973H186.525V72.9349H128.82V210.973H126.927V71.0325H188.417V210.973Z" fill="#AD1A22"/>
<path d="M181.191 204.955H134.157V191.689H181.191V204.955ZM136.051 203.053H179.297V193.591H136.048V203.053H136.051Z" fill="#AD1A22"/>
<path d="M191.39 64.3551H123.955V62.4526H191.39V64.3551Z" fill="#AD1A22"/>
<path d="M191.39 47.7101H123.955V45.8049H191.39V47.7101Z" fill="#AD1A22"/>
<path d="M162.422 40.5663H152.9L151.713 36.7614L151.961 36.3863C152.608 35.4737 153.463 34.7297 154.455 34.2164C155.446 33.7031 156.545 33.4353 157.661 33.4353C158.776 33.4353 159.875 33.7031 160.867 34.2164C161.858 34.7297 162.713 35.4737 163.361 36.3863L163.609 36.7614L162.422 40.5663ZM154.289 38.6639H161.029L161.523 37.0856C161.039 36.5347 160.444 36.0934 159.777 35.7912C159.11 35.4889 158.387 35.3327 157.655 35.3327C156.924 35.3327 156.201 35.4889 155.534 35.7912C154.867 36.0934 154.272 36.5347 153.788 37.0856L154.279 38.6639H154.289Z" fill="#AD1A22"/>
<path d="M158.608 39.2803H156.714V32.3296H158.608V39.2803Z" fill="#AD1A22"/>
<path d="M111.27 102.568L104.642 94.4838C105.784 92.8364 106.406 90.8826 106.429 88.8756C106.429 80.4351 94.9069 73.6023 80.6907 73.6023C66.4745 73.6023 54.9521 80.4431 54.9521 88.8756C54.9521 97.308 66.4745 104.149 80.6907 104.149C87.308 104.149 93.3386 102.664 97.8995 100.229L111.27 102.568Z" stroke="#064188" stroke-width="2"/>
<path d="M64.3672 85.8209V84.7705H67.9546V85.8209L67.0264 86.0004V88.5138H70.5631V86.0004L69.6322 85.8209V84.7705H73.2223V85.8209L72.2941 86.0004V92.2491L73.2223 92.4286V93.487H69.6403V92.4393L70.5711 92.2598V89.8696H67.0344V92.2598L67.9626 92.4393V93.487H64.3672V92.4393L65.29 92.2598V86.0111L64.3672 85.8209Z" fill="#064188"/>
<path d="M77.0284 93.6023C76.615 93.6205 76.2024 93.5498 75.8183 93.395C75.4343 93.2402 75.0875 93.0048 74.8013 92.7046C74.2385 92.0837 73.9398 91.2662 73.9691 90.427V90.1885C73.9379 89.3255 74.2226 88.4809 74.7693 87.8145C75.3005 87.2458 76.0345 86.9118 76.8104 86.8857C77.5863 86.8596 78.3408 87.1435 78.9088 87.6752C79.4162 88.2691 79.6752 89.0373 79.6316 89.8188V90.77H75.7721V90.8048C75.7893 91.1943 75.939 91.566 76.1962 91.8579C76.328 91.9965 76.4879 92.105 76.6651 92.1762C76.8422 92.2474 77.0325 92.2795 77.2231 92.2705C77.5463 92.278 77.8688 92.2383 78.1806 92.1526C78.4707 92.0594 78.7505 91.9364 79.0155 91.7855L79.4849 92.8573C79.174 93.0942 78.8248 93.2755 78.4527 93.3932C77.9927 93.5415 77.5114 93.6122 77.0284 93.6023V93.6023ZM76.8737 88.2432C76.7262 88.2378 76.5796 88.2687 76.4467 88.3331C76.3137 88.3976 76.1985 88.4936 76.1109 88.613C75.9096 88.9004 75.7905 89.2377 75.7668 89.5883L75.7828 89.6178H77.9166V89.4624C77.9312 89.1448 77.8371 88.8318 77.6499 88.5755C77.557 88.4603 77.4382 88.3691 77.3032 88.3094C77.1682 88.2498 77.0209 88.2234 76.8737 88.2325V88.2432Z" fill="#064188"/>
<path d="M80.2529 85.1993V84.1489H82.9201V92.2491L83.7603 92.4287V93.4871H80.3436V92.4393L81.1811 92.2598V85.3895L80.2529 85.1993Z" fill="#064188"/>
<path d="M84.1396 85.1993V84.1489H86.8069V92.2491L87.647 92.4287V93.4871H84.2303V92.4393L85.0705 92.2598V85.3895L84.1396 85.1993Z" fill="#064188"/>
<path d="M88.1052 90.1805C88.068 89.3175 88.3535 88.4716 88.9053 87.8092C89.4995 87.2193 90.3011 86.8884 91.1365 86.8884C91.9718 86.8884 92.7734 87.2193 93.3676 87.8092C93.9203 88.4722 94.2058 89.3192 94.1677 90.1832V90.3091C94.2073 91.1742 93.9217 92.0225 93.3676 92.6859C92.7728 93.2745 91.9714 93.6044 91.1365 93.6044C90.3015 93.6044 89.5001 93.2745 88.9053 92.6859C88.3513 92.0225 88.0657 91.1742 88.1052 90.3091V90.1805ZM89.8442 90.3065C89.8222 90.7988 89.9289 91.2885 90.1536 91.7266C90.2533 91.9013 90.4001 92.0443 90.577 92.139C90.7539 92.2338 90.9538 92.2766 91.1538 92.2625C91.3512 92.2736 91.5477 92.2293 91.7215 92.1347C91.8953 92.04 92.0395 91.8988 92.138 91.7266C92.3642 91.2899 92.4719 90.801 92.4501 90.3091V90.1832C92.4707 89.6954 92.3621 89.2109 92.1353 88.7791C92.036 88.6053 91.8901 88.4629 91.7142 88.3682C91.5384 88.2734 91.3396 88.2302 91.1405 88.2432C90.9424 88.2298 90.7445 88.273 90.5699 88.3678C90.3952 88.4627 90.2509 88.6053 90.1536 88.7791C89.9312 89.2124 89.8246 89.6962 89.8442 90.1832V90.3065Z" fill="#064188"/>
<path d="M96.9978 90.4725H95.2588V84.7705H96.9978V90.4725ZM96.9978 93.4763H95.2588V91.9436H96.9978V93.4763Z" fill="#064188"/>
</g>
<defs>
<clipPath id="clip0_37_1095">
<rect width="145" height="194" fill="white" transform="translate(54 27)"/>
</clipPath>
</defs>
</svg>
