<svg xmlns="http://www.w3.org/2000/svg" width="48" height="48" viewBox="0 0 48 48"><path d="M48,24a24.05,24.05,0,1,1-1.83-9.18A24,24,0,0,1,48,24Z" fill="#e53434"/><path d="M36.32,23.58c-.57-.13-.85-1.54-.93-1.73-.41-1.14-.84-1.78-1.15-1.61-.6.33-.16,1.71.34,2.71.34.65,1.63,2,1.71,2.24.37,1.14-.68,1.53-1.5,3.07-.6,1.15-.23,2.1-.93,3.08-.25.34-.7.54-1,.85-1.79,2.15-3.41,3.58-4.1,3.08A3,3,0,0,1,28,32.19c.42-.77,1.19-1.88.52-2.46-1-.83-.16-1.61-.94-2.3-1.54-1.47-4,.47-5.18-.18a4.89,4.89,0,0,1-2.74-4.32c.13-2.79,1.54-2.31,2.31-3.56s2.94-1.6,4.84-1.72,2.81,1.79,3.47,1.79.55-.87,1.54-.7,2,1,2.41.38.39-1.38-.51-1.42-1.36-1.26-1.91-1.19-.69.82-1,.36c-.49-.77-.76-.16-1,.09s-1.06-.53-1.49-.91c-.92-.77-.77-.86-1.59-.77-1.63.13-1.61,1.48-2.23,1.54s-2.44.07-2.51-.77,1.18-1.14,1.8-1,1.31-.6.62-1-1.94-1.39-1.69-1.83a1.28,1.28,0,0,1,.93-.46,1.6,1.6,0,0,1,.53.09,1.43,1.43,0,0,1,.44.3,1.57,1.57,0,0,0,.84.57,1.62,1.62,0,0,0,1-.06c.83-.24.66-.41.25-.89s-.83-1.08.24-1.36l.64-.16A14.14,14.14,0,0,0,9.85,22.94a.41.41,0,0,0,.21,0c.66-.13,1.15,1.2,1.48,1.79a3.9,3.9,0,0,0,1.75,1.54c1.09.47.86,1.06,1.12,1.58S16.06,29,17,29.27a3.2,3.2,0,0,1,2,1.47c.39.68-.49,1.09-.77,1.54s-.07.91-.07,1.76-1.22.7-1.54.7-.05.59-.29,1a1.06,1.06,0,0,0,0,.18,14.19,14.19,0,0,0,22-11.9A13.67,13.67,0,0,0,38,22C37.48,22.9,36.78,23.69,36.32,23.58Z" fill="none"/><path d="M24,7.29A16.71,16.71,0,1,0,40.71,24,16.73,16.73,0,0,0,24,7.29Zm0,30.92a14.17,14.17,0,0,1-7.74-2.31,1.06,1.06,0,0,1,0-.18c.24-.39,0-1,.29-1s1.54.16,1.54-.7-.2-1.3.07-1.76,1.16-.86.77-1.54a3.2,3.2,0,0,0-2-1.47c-1-.28-2.35-.87-2.61-1.39s0-1.11-1.12-1.58a3.9,3.9,0,0,1-1.75-1.54c-.33-.59-.82-1.92-1.48-1.79a.41.41,0,0,1-.21,0A14.14,14.14,0,0,1,27.53,10.25l-.64.16c-1.07.28-.66.88-.24,1.36s.58.65-.25.89a1.62,1.62,0,0,1-1,.06,1.57,1.57,0,0,1-.84-.57,1.43,1.43,0,0,0-.44-.3,1.6,1.6,0,0,0-.53-.09,1.28,1.28,0,0,0-.93.46c-.25.44,1,1.45,1.69,1.83s0,1.08-.62,1-1.87.19-1.8,1,1.88.82,2.51.77.6-1.41,2.23-1.54c.82-.09.67,0,1.59.77.43.38,1.21,1.15,1.49.91s.55-.86,1-.09c.3.46.44-.29,1-.36s1,1.16,1.91,1.19.93.84.51,1.42-1.43-.21-2.41-.38-.88.7-1.54.7-1.56-1.91-3.47-1.79-4.07.46-4.84,1.72-2.18.77-2.31,3.56a4.89,4.89,0,0,0,2.74,4.32c1.17.65,3.64-1.29,5.18.18.78.69,0,1.47.94,2.3.67.58-.1,1.69-.52,2.46a3,3,0,0,0,.86,3.08c.69.5,2.31-.93,4.1-3.08.25-.31.7-.51,1-.85.7-1,.33-1.93.93-3.08.82-1.54,1.87-1.93,1.5-3.07-.08-.27-1.37-1.59-1.71-2.24-.5-1-.94-2.38-.34-2.71.31-.17.74.47,1.15,1.61.08.19.36,1.6.93,1.73S37.48,22.9,38,22a13.67,13.67,0,0,1,.17,2A14.23,14.23,0,0,1,24,38.21Z" fill="#fff"/></svg>
