<svg xmlns="http://www.w3.org/2000/svg" width="140" height="40" viewBox="0 0 140 40"><defs><linearGradient id="a" x1="23.83" x2="7.05" y1="226.72" y2="243.5" gradientTransform="translate(0 -218)" gradientUnits="userSpaceOnUse"><stop offset="0" stop-color="#00a0ff"/><stop offset="0" stop-color="#00a1ff"/><stop offset=".26" stop-color="#00beff"/><stop offset=".51" stop-color="#00d2ff"/><stop offset=".76" stop-color="#00dfff"/><stop offset="1" stop-color="#00e3ff"/></linearGradient><linearGradient id="b" x1="35.86" x2="11.66" y1="238.05" y2="238.05" gradientTransform="translate(0 -218)" gradientUnits="userSpaceOnUse"><stop offset="0" stop-color="#ffe000"/><stop offset=".41" stop-color="#ffbd00"/><stop offset=".78" stop-color="orange"/><stop offset="1" stop-color="#ff9c00"/></linearGradient><linearGradient id="c" x1="26.83" x2="4.07" y1="240.27" y2="263.03" gradientTransform="translate(0 -218)" gradientUnits="userSpaceOnUse"><stop offset="0" stop-color="#ff3a44"/><stop offset="1" stop-color="#c31162"/></linearGradient><linearGradient id="d" x1="9.28" x2="19.44" y1="218.23" y2="228.39" gradientTransform="translate(0 -218)" gradientUnits="userSpaceOnUse"><stop offset="0" stop-color="#32a071"/><stop offset=".07" stop-color="#2da771"/><stop offset=".48" stop-color="#15cf74"/><stop offset=".8" stop-color="#06e775"/><stop offset="1" stop-color="#00f076"/></linearGradient></defs><path d="M6 0h128c3.3 0 6 2.7 6 6v28c0 3.3-2.7 6-6 6H6c-3.3 0-6-2.7-6-6V6c0-3.3 2.7-6 6-6Z"/><path fill="#fff" d="M70.2 21.8c-2.4 0-4.3 1.8-4.3 4.3s1.9 4.3 4.3 4.3 4.3-1.8 4.3-4.3c-.1-2.6-2-4.3-4.3-4.3Zm0 6.8c-1.3 0-2.4-1.1-2.4-2.6s1.1-2.6 2.4-2.6 2.4 1 2.4 2.6c0 1.5-1.1 2.6-2.4 2.6Zm-9.4-6.8c-2.4 0-4.3 1.8-4.3 4.3s1.9 4.3 4.3 4.3 4.3-1.8 4.3-4.3-1.9-4.3-4.3-4.3Zm0 6.8c-1.3 0-2.4-1.1-2.4-2.6s1.1-2.6 2.4-2.6 2.4 1 2.4 2.6c.1 1.5-1.1 2.6-2.4 2.6Zm-11-5.5v1.8h4.3c-.1 1-.5 1.8-1 2.3-.6.6-1.6 1.3-3.3 1.3-2.7 0-4.7-2.1-4.7-4.8a4.72 4.72 0 0 1 8-3.5l1.3-1.3a6.4 6.4 0 0 0-4.5-1.8c-3.6 0-6.7 3-6.7 6.6s3.1 6.6 6.7 6.6c2 0 3.4-.6 4.6-1.9 1.2-1.2 1.6-2.9 1.6-4.2 0-.4 0-.8-.1-1.1h-6.2Zm45.3 1.4c-.4-.9-1.4-2.7-3.6-2.7s-4 1.7-4 4.3c0 2.4 1.8 4.3 4.2 4.3 1.9 0 3.1-1.2 3.5-1.9l-1.4-1c-.5.7-1.1 1.2-2.1 1.2-.9 0-1.6-.4-2.1-1.3l5.7-2.4-.2-.5Zm-5.8 1.4c0-1.6 1.3-2.5 2.2-2.5.7 0 1.4.4 1.6.9l-3.8 1.6ZM84.7 30h1.9V17.5h-1.9V30Zm-3.1-7.3c-.5-.5-1.3-1-2.3-1-2.1 0-4.1 1.9-4.1 4.3s1.9 4.2 4.1 4.2c1 0 1.8-.5 2.2-1h.1v.6c0 1.6-.9 2.5-2.3 2.5-1.1 0-1.9-.8-2.1-1.5l-1.6.7c.5 1.1 1.7 2.5 3.8 2.5s4-1.3 4-4.4V22h-1.8v.7Zm-2.1 5.9c-1.3 0-2.4-1.1-2.4-2.6s1.1-2.6 2.4-2.6 2.3 1.1 2.3 2.6c-.1 1.5-1.1 2.6-2.3 2.6Zm24.3-11.1h-4.5V30h1.9v-4.7h2.6c2.1 0 4.1-1.5 4.1-3.9s-2-3.9-4.1-3.9Zm.1 6h-2.7v-4.3h2.7c1.4 0 2.2 1.2 2.2 2.1 0 1.1-.8 2.2-2.2 2.2Zm11.5-1.8c-1.4 0-2.8.6-3.3 1.9l1.7.7c.4-.7 1-.9 1.7-.9 1 0 1.9.6 2 1.6v.1c-.3-.2-1.1-.5-1.9-.5-1.8 0-3.6 1-3.6 2.8 0 1.7 1.5 2.8 3.1 2.8 1.3 0 1.9-.6 2.4-1.2h.1v1h1.8v-4.8c-.2-2.2-1.8-3.5-4-3.5Zm-.2 6.9c-.6 0-1.5-.3-1.5-1.1 0-1 1.1-1.3 2-1.3.8 0 1.2.2 1.7.4-.1 1.2-1.1 2-2.2 2Zm10.6-6.6-2.1 5.4h-.1l-2.2-5.4h-2l3.3 7.6-1.9 4.2h1.9l5.1-11.8h-2ZM109 30h1.9V17.5H109V30ZM49.4 10.2c0 .8-.2 1.5-.7 2-.6.6-1.3.9-2.2.9s-1.6-.3-2.2-.9c-.6-.6-.9-1.3-.9-2.2s.3-1.6.9-2.2a2.94 2.94 0 0 1 3.4-.6c.4.2.7.4.9.7l-.5.5c-.4-.5-.9-.7-1.6-.7-.6 0-1.2.2-1.6.7-.5.4-.7 1-.7 1.7s.2 1.3.7 1.7 1 .7 1.6.7c.7 0 1.2-.2 1.7-.7.3-.3.5-.7.5-1.2h-2.2v-.8h2.9v.4Zm4.7-2.5h-2.7v1.9h2.5v.7h-2.5v1.9h2.7v.8h-3.5V7h3.5v.7Zm3.2 5.3h-.8V7.7h-1.7V7H59v.7h-1.7V13Zm4.7 0V7h.8v6H62Zm4.2 0h-.8V7.7h-1.7V7h4.1v.7h-1.7V13h.1Zm9.4-.8c-.6.6-1.3.9-2.2.9s-1.6-.3-2.2-.9c-.6-.6-.9-1.3-.9-2.2s.3-1.6.9-2.2c.6-.6 1.3-.9 2.2-.9s1.6.3 2.2.9c.6.6.9 1.3.9 2.2s-.3 1.6-.9 2.2Zm-3.8-.5c.4.4 1 .7 1.6.7s1.2-.2 1.6-.7c.4-.4.7-1 .7-1.7s-.2-1.3-.7-1.7c-.4-.5-1-.7-1.6-.7s-1.2.2-1.6.7a2.41 2.41 0 0 0 0 3.4Zm5.8 1.3V7h.9l2.9 4.7V7h.8v6h-.8l-3.1-4.9V13h-.7Z"/><path fill="#fff" fill-rule="evenodd" d="M73.4 7c-.9 0-1.6.3-2.1.9-.6.6-.9 1.3-.9 2.2s.3 1.6.9 2.2c.6.6 1.3.9 2.1.9.9 0 1.6-.3 2.1-.9.6-.6.9-1.3.9-2.2 0-.8-.3-1.6-.9-2.2-.5-.6-1.2-.9-2.1-.9Zm-2.2.7c.6-.6 1.4-.9 2.3-.9s1.7.3 2.3.9c.6.6.9 1.4.9 2.3s-.3 1.7-.9 2.3-1.4.9-2.3.9-1.7-.3-2.3-.9c-.6-.6-.9-1.4-.9-2.3 0-.9.3-1.7.9-2.3ZM46.5 7c-.8 0-1.6.3-2.1.9-.6.6-.9 1.3-.9 2.2s.3 1.6.9 2.2c.6.6 1.3.9 2.1.9.9 0 1.6-.3 2.1-.9.5-.5.7-1.1.7-1.9V10h-2.7v.5h2.2v.1c0 .5-.2 1-.5 1.3-.5.5-1.1.7-1.7.7-.7 0-1.2-.2-1.7-.7s-.7-1.1-.7-1.8.2-1.3.7-1.8 1.1-.7 1.7-.7c.7 0 1.2.2 1.6.7l.4-.4c-.2-.2-.5-.4-.8-.6-.5-.3-.9-.3-1.3-.3Zm-2.3.7c.6-.6 1.4-.9 2.3-.9.4 0 .9.1 1.3.3.4.2.7.4 1 .7l.1.1-.7.7-.1-.1c-.4-.4-.9-.7-1.6-.7-.6 0-1.1.2-1.6.6-.4.4-.7 1-.7 1.7s.2 1.2.7 1.7c.4.4 1 .6 1.6.6s1.2-.2 1.6-.6c.2-.3.4-.6.5-1h-2.2V9.7h3.1v.6c0 .9-.3 1.6-.8 2.1-.6.6-1.3.9-2.3.9-.9 0-1.7-.3-2.3-.9-.6-.6-.9-1.4-.9-2.3.1-1 .4-1.8 1-2.4Zm6.3-.8h3.7v.9h-2.7v1.7H54v.9h-2.5v1.7h2.7v.9h-3.7V6.9Zm.2.2v5.8H54v-.5h-2.7v-2.1h2.5v-.6h-2.5V7.6H54v-.5h-3.3Zm4.1-.2h4.3v.9h-1.7v5.3h-1V7.8h-1.7v-.9h.1Zm.2.2v.5h1.7v5.3h.6V7.6H59v-.5h-4Zm6.9-.2h1v6.2h-1V6.9Zm.2.2v5.8h.6V7.1h-.6Zm1.5-.2h4.3v.9h-1.7v5.3h-1V7.8h-1.7v-.9h.1Zm.2.2v.5h1.7v5.3h.6V7.6h1.7v-.5h-4Zm13.7-.2h1.1l2.8 4.5V6.9h1v6.2h-1l-2.9-4.7V13h-1V6.9Zm.2.2v5.8h.6V8h.2l3.1 4.9h.6V7.1h-.6v4.7h-.2l-2.9-4.7h-.8Zm-6 1.1c.5-.5 1-.7 1.7-.7s1.2.2 1.7.7.7 1.1.7 1.8-.2 1.3-.7 1.8-1 .7-1.7.7-1.2-.2-1.7-.7c-.4-.5-.7-1.1-.7-1.8s.3-1.3.7-1.8Zm.2.1c-.4.4-.6 1-.6 1.7s.2 1.2.6 1.7c.4.4.9.6 1.6.6.6 0 1.1-.2 1.6-.6.4-.4.6-1 .6-1.7s-.2-1.2-.6-1.7c-.4-.4-.9-.6-1.6-.6-.7 0-1.2.2-1.6.6Z"/><path fill="url(#a)" d="M12.5 7.5c-.3.3-.5.8-.5 1.4V31c0 .6.2 1.1.5 1.4l.1.1L25 20.1v-.2L12.5 7.5Z"/><path fill="url(#b)" d="M29.1 24.3 25 20.2v-.3l4.1-4.1.1.1 4.9 2.8c1.4.8 1.4 2.1 0 2.9l-5 2.7Z"/><path fill="url(#c)" d="M29.1 24.2 24.9 20 12.5 32.5c.5.5 1.2.5 2.1.1l14.5-8.4Z"/><path fill="url(#d)" d="M29.1 15.8 14.5 7.5c-.9-.5-1.6-.4-2.1.1L24.9 20l4.2-4.2Z"/></svg>