<svg xmlns="http://www.w3.org/2000/svg" xmlns:xlink="http://www.w3.org/1999/xlink" width="72" height="72" viewBox="0 0 72 72"><defs><linearGradient id="a" x1="22.31" y1="48.7" x2="59.96" y2="11.05" gradientTransform="matrix(1, 0, 0, -1, 0, 74)" gradientUnits="userSpaceOnUse"><stop offset="0.4" stop-color="#002158"/><stop offset="1" stop-color="#003d82"/></linearGradient></defs><path d="M72,36A36,36,0,1,1,61.46,10.54,36,36,0,0,1,72,36Z" fill="#003f8a"/><path d="M40.57,14V32h-25V48.13l23.7,23.71A36,36,0,0,0,71,44.46Z" opacity="0.5" fill="url(#a)" style="isolation:isolate"/><path d="M26.56,47a9.72,9.72,0,0,0,5.65,1.81H49.54A3,3,0,0,0,52.43,45a3,3,0,0,0-1-1.52h0a3,3,0,0,0,1.86-.65,3,3,0,0,0,1-1.66,3,3,0,0,0-.21-2,3,3,0,0,0-1.38-1.4,3,3,0,0,0,1.74-1,3,3,0,0,0,0-3.8,3,3,0,0,0-1.74-1,3,3,0,0,0,1.38-1.4,3,3,0,0,0,.21-2,3,3,0,0,0-1-1.66,3,3,0,0,0-1.86-.65H40.16a7.27,7.27,0,0,0,1.33-4.2V16a2.75,2.75,0,0,0-2.74-2.75A2.77,2.77,0,0,0,36,16v.17a15.27,15.27,0,0,1-9.46,14.1Z" fill="#fff"/><path d="M45.72,46.05H31.77a10.2,10.2,0,0,1-5.24-1.43V47a9.73,9.73,0,0,0,5.66,1.81H45.71Z" fill="#d9e2ee"/><path d="M25.19,29H16.57a1.36,1.36,0,0,0-1.36,1.36V47.15a1.36,1.36,0,0,0,1.36,1.36h8.62a1.36,1.36,0,0,0,1.36-1.36V30.36A1.36,1.36,0,0,0,25.19,29Z" fill="#e53434"/><path d="M25.33,45.22H16.46a1.52,1.52,0,0,1-.72-.19,1.44,1.44,0,0,1-.51-.53v2.65a1.35,1.35,0,0,0,.4,1,1.33,1.33,0,0,0,1,.4h8.62a1.33,1.33,0,0,0,1-.4,1.35,1.35,0,0,0,.4-1V44.5a1.55,1.55,0,0,1-.52.53A1.52,1.52,0,0,1,25.33,45.22Z" fill="#bc2e2e"/><path d="M22.37,42a1.5,1.5,0,0,1-.25.83,1.44,1.44,0,0,1-.67.55,1.41,1.41,0,0,1-.86.09,1.51,1.51,0,0,1-1.17-1.17,1.53,1.53,0,0,1,.08-.87,1.63,1.63,0,0,1,.55-.67,1.55,1.55,0,0,1,.83-.25,1.5,1.5,0,0,1,1.06.44A1.48,1.48,0,0,1,22.37,42Z" fill="#fff"/><path d="M40.19,15.94v6.12a7.25,7.25,0,0,1-1.33,4.2h1.3a7.24,7.24,0,0,0,1.33-4.19V16a2.92,2.92,0,0,0-.2-1.05,2.8,2.8,0,0,0-.6-.89,2.71,2.71,0,0,0-.89-.59,2.68,2.68,0,0,0-1-.21,2.74,2.74,0,0,0-.64.08,2.74,2.74,0,0,1,1.48,1A2.71,2.71,0,0,1,40.19,15.94Z" fill="#d9e2ee"/><path d="M52.82,37.82a3,3,0,0,0,1.74-1,3,3,0,0,0,0-3.8,3,3,0,0,0-1.74-1,3,3,0,0,0,1.59-3.36,3,3,0,0,0-2.91-2.31h-.84a12.37,12.37,0,0,1,.84,3.17,21.4,21.4,0,0,1-.12,6.19c-1,6.21-4,10.42-7.12,10.42-.13,0-.24.18-.37.14v2.6h5.65a3,3,0,0,0,2.81-2,3,3,0,0,0-.91-3.32h.05a3,3,0,0,0,1.86-.65,3,3,0,0,0,1-1.66,3,3,0,0,0-.21-2,3,3,0,0,0-1.38-1.4Z" fill="#d9e2ee"/></svg>
