<svg xmlns="http://www.w3.org/2000/svg" xmlns:xlink="http://www.w3.org/1999/xlink" width="72" height="72" viewBox="0 0 72 72"><defs><linearGradient id="a" x1="21.99" y1="51.64" x2="61.27" y2="12.36" gradientTransform="matrix(1, 0, 0, -1, 0, 74)" gradientUnits="userSpaceOnUse"><stop offset="0.4" stop-color="#002158"/><stop offset="1" stop-color="#003d82"/></linearGradient></defs><path d="M72,36a36,36,0,1,1-2.74-13.77A36,36,0,0,1,72,36Z" fill="#003f8a"/><path d="M22.94,48.08,35.46,60.61l-1.61,1.61L43,71.33A36,36,0,0,0,71.2,43.57L36,8.36Z" opacity="0.5" fill="url(#a)" style="isolation:isolate"/><path d="M26.06,34.65c-.55.27-4.56,2.44-4.33,6.07a36.47,36.47,0,0,0,1.19,7.41L28,46.76" fill="#d9e2ee"/><path d="M44,46.76l5.07,1.37a36.47,36.47,0,0,0,1.19-7.41c.23-3.63-3.8-5.8-4.33-6.07" fill="#b6c4d3"/><path d="M36,49.88a7.34,7.34,0,0,0,0,13.7,7.35,7.35,0,0,0,0-13.7Z" fill="#fff"/><path d="M36,51.19a3.19,3.19,0,0,0-2-.1,3.16,3.16,0,0,0-1.66,1.09A3.22,3.22,0,0,0,31.67,54a3.21,3.21,0,0,0,2.13,3.12,3.22,3.22,0,0,0,2,0A3.14,3.14,0,0,0,37.41,56,3.19,3.19,0,0,0,36,51.19Z" fill="#e53434"/><path d="M36,8.33c-2,2.33-9.95,12.33-9.95,24.12A50.5,50.5,0,0,0,28,46.76H44A50.49,50.49,0,0,0,46,32.45C46,20.66,38,10.66,36,8.33Z" fill="#fff"/><path d="M36,8.33,36,8.39c3.18,5,7.41,13.49,7.41,23a62.5,62.5,0,0,1-1.8,15.35H44A50.15,50.15,0,0,0,46,32.45C46,20.66,38,10.66,36,8.33Z" fill="#d9e2ee"/><path d="M36,38.12a2.15,2.15,0,0,1-1.17-.36,2.07,2.07,0,0,1-.78-.95,2.12,2.12,0,0,1-.12-1.22,2.13,2.13,0,0,1,1.66-1.66,2.12,2.12,0,0,1,1.22.12,2.07,2.07,0,0,1,.95.78A2.11,2.11,0,0,1,36,38.12Zm0-8a2.15,2.15,0,0,1-1.17-.36,2.07,2.07,0,0,1-.78-.95,2.12,2.12,0,0,1-.12-1.22,2.13,2.13,0,0,1,1.66-1.66,2.12,2.12,0,0,1,1.22.12,2.07,2.07,0,0,1,.95.78A2.11,2.11,0,0,1,36,30.09Zm0-8a2.15,2.15,0,0,1-1.17-.36,2.07,2.07,0,0,1-.78-.95,2.12,2.12,0,0,1-.12-1.22,2.13,2.13,0,0,1,1.66-1.66,2.12,2.12,0,0,1,1.22.12,2.07,2.07,0,0,1,.95.78A2.11,2.11,0,0,1,36,22.06Z" fill="#e53434"/></svg>
