<svg xmlns="http://www.w3.org/2000/svg" xmlns:xlink="http://www.w3.org/1999/xlink" style="display:none"><symbol id="arrow-down-icon"><path d="M8.58.74L5 4.32 1.42.74.24 1.92 5 6.68l4.76-4.76L8.58.74z"/></symbol><symbol id="arrow-right-icon"><path d="M21 11.47L15 5.4a.75.75 0 10-1.1 1.06l4.79 4.79H3.5a.75.75 0 000 1.5h15.19l-4.79 4.79a.75.75 0 000 1.06.75.75 0 001.06 0L21 12.53a.75.75 0 000-1.06z"/></symbol><symbol id="arrow-up-icon"><path d="M18.68 14l-3.21-3.21-2-2a2.13 2.13 0 00-3 0L5.32 14a1.08 1.08 0 00.76 1.84h11.84a1.08 1.08 0 00.76-1.84z"/></symbol><symbol id="chat"><path d="M12 2c5.52 0 10 4.48 10 10s-4.48 10-10 10H4c-.53 0-1.04-.21-1.41-.59C2.21 21.03 2 20.53 2 20v-8C2 6.48 6.48 2 12 2zm0 12H9c-.27 0-.52.11-.71.29-.19.19-.29.44-.29.71s.11.52.29.71c.19.19.44.29.71.29h3c.27 0 .52-.11.71-.29s.29-.44.29-.71-.11-.52-.29-.71S12.27 14 12 14zm3-4H9c-.25 0-.5.1-.69.27a.94.94 0 00-.31.67c-.01.25.07.51.23.7.16.2.4.32.65.35H15c.25 0 .5-.1.69-.27.19-.17.3-.41.31-.67.01-.25-.07-.51-.23-.7a.98.98 0 00-.65-.35H15z"/></symbol><symbol id="checkbox"><path d="M5.57 3c-.8 0-1.56.32-2.12.88S2.57 5.21 2.57 6v12c0 .8.32 1.56.88 2.12s1.33.88 2.12.88h12c.8 0 1.56-.32 2.12-.88s.88-1.33.88-2.12v-5c0-.27-.11-.52-.29-.71s-.44-.29-.71-.29-.52.11-.71.29-.29.44-.29.71v5c0 .27-.11.52-.29.71s-.44.29-.71.29h-12c-.27 0-.52-.11-.71-.29a.99.99 0 01-.29-.71V6c0-.27.11-.52.29-.71A.99.99 0 015.57 5h8c.27 0 .52-.11.71-.29.19-.19.29-.44.29-.71s-.11-.52-.29-.71a.99.99 0 00-.71-.29h-8zm15.36 3.05a1.004 1.004 0 00.38-1.36.998.998 0 00-.61-.47 1.01 1.01 0 00-.76.09c-.35.2-.69.42-1.03.65-.85.57-1.67 1.19-2.46 1.85-1.64 1.37-3.61 3.29-5.24 5.72-.5-.67-1.09-1.27-1.75-1.78-.43-.33-.9-.66-1.41-.85-.25-.09-.53-.08-.77.03s-.43.31-.52.56a1 1 0 00.59 1.28c.03 0 .37.15.88.54.58.45 1.38 1.24 2.15 2.56.09.15.22.28.37.36.15.09.33.13.5.13.18 0 .35-.05.5-.14.15-.09.28-.22.36-.37 1.58-2.79 3.79-5 5.61-6.52a25.367 25.367 0 013.2-2.29z" fill="#e3373a" fill-rule="evenodd"/></symbol><symbol id="clipboard-text-icon"><path d="M9.64 6.7h4.71a1.88 1.88 0 001.88-1.88v-.94A1.87 1.87 0 0014.35 2h-4.7a1.89 1.89 0 00-1.89 1.88v.94A1.88 1.88 0 009.64 6.7z"/><path d="M18.34 4.17a.75.75 0 00-1.1.65 2.9 2.9 0 01-2.89 2.89h-4.7a2.9 2.9 0 01-2.89-2.89.75.75 0 00-1.1-.65 4.47 4.47 0 00-2.37 3.95v9.41A4.48 4.48 0 007.76 22h8.48a4.48 4.48 0 004.47-4.47V8.12a4.47 4.47 0 00-2.37-3.95zM12.38 17H8a.75.75 0 010-1.5h4.38a.75.75 0 010 1.5zM15 13H8a.75.75 0 010-1.5h7a.75.75 0 010 1.5z"/></symbol><symbol id="close-icon"><path d="M13.06 12l5.08-5.08a.75.75 0 00-1.06-1.06L12 10.94 6.92 5.86a.75.75 0 00-1.06 1.06L10.94 12l-5.08 5.08a.74.74 0 000 1.06.71.71 0 00.53.22.74.74 0 00.53-.22L12 13.06l5.08 5.08a.74.74 0 00.53.22.73.73 0 00.53-.22.74.74 0 000-1.06z"/></symbol><symbol id="facebook-icon" viewBox="0 0 24 24"><path d="M12 2a10 10 0 00-1.56 19.88v-7H7.9V12h2.54V9.8a3.53 3.53 0 013.78-3.89 15.68 15.68 0 012.23.19v2.46h-1.26a1.45 1.45 0 00-1.63 1.56V12h2.77l-.44 2.89h-2.33v7A10 10 0 0012 2z"/></symbol><symbol id="heart-icon"><path d="M10.55 20L12 21.35 13.45 20C18.62 15.34 22 12.27 22 8.5A5.45 5.45 0 0016.5 3 6 6 0 0012 5.09 6 6 0 007.5 3 5.45 5.45 0 002 8.5c0 3.78 3.39 6.85 8.54 11.5zm7.56-7.36C19.46 11 20 9.73 20 8.5A3.44 3.44 0 0016.5 5a4 4 0 00-3 1.39L12 8.17l-1.52-1.78A4 4 0 007.5 5 3.44 3.44 0 004 8.5a6.64 6.64 0 001.89 4.16 46.65 46.65 0 005 5l1.09 1 .85-.76a49.76 49.76 0 005.28-5.23z" fill-rule="evenodd"/></symbol><symbol id="home-icon"><path d="M17.26 5.26l-5.15-3.61a4.46 4.46 0 00-5 .12l-4.5 3.5A4.76 4.76 0 00.92 8.63v6.18a4.26 4.26 0 004.25 4.26h9.65a4.26 4.26 0 004.26-4.25V8.75a4.69 4.69 0 00-1.82-3.49zm.32 9.56a2.75 2.75 0 01-2.76 2.75H5.17a2.76 2.76 0 01-2.75-2.76V8.63a3.21 3.21 0 011.07-2.17L8 3a3 3 0 013.27-.08l5.13 3.57a3.18 3.18 0 011.18 2.26z"/><path d="M10 11.74a.76.76 0 00-.75.75V15a.75.75 0 101.5 0v-2.5a.76.76 0 00-.75-.76z"/></symbol><symbol id="instagram-icon" viewBox="0 0 24 24"><path d="M21 8.3a6.47 6.47 0 00-.42-2.21 4.59 4.59 0 00-2.64-2.63A6.21 6.21 0 0015.71 3H8.29a6.31 6.31 0 00-2.19.42 4.6 4.6 0 00-2.63 2.67 6.8 6.8 0 00-.42 2.18v7.42a6.81 6.81 0 00.42 2.19 4.59 4.59 0 002.64 2.63 6.48 6.48 0 002.18.49H12c2.44 0 2.76 0 3.71-.06a6.31 6.31 0 002.19-.42 4.57 4.57 0 002.63-2.63 6.81 6.81 0 00.47-2.17c0-1 .05-1.26.05-3.71S21 9.26 21 8.3zm-9 8.3a4.62 4.62 0 114.62-4.6A4.62 4.62 0 0112 16.6zm4.8-8.34a1.08 1.08 0 111.08-1.08 1.08 1.08 0 01-1.08 1.08z"/><path d="M12 15a3 3 0 10-3-3 3 3 0 003 3z"/></symbol><symbol id="linkedin-icon" viewBox="0 0 24 24"><path d="M20 3H4a1 1 0 00-1 1v16a1 1 0 001 1h16a1 1 0 001-1V4a1 1 0 00-1-1zM8.34 18.34H5.67V9.75h2.67zM7 8.57A1.55 1.55 0 118.55 7 1.55 1.55 0 017 8.57zm11.34 9.77h-2.67v-4.18c0-1 0-2.28-1.39-2.28s-1.6 1.09-1.6 2.21v4.25H10V9.75h2.56v1.17a2.82 2.82 0 012.52-1.39c2.71 0 3.21 1.78 3.21 4.1v4.71z"/></symbol><symbol id="mail"><path d="M19.25 3.67a1.848 1.848 0 011.84 1.84v11a1.848 1.848 0 01-1.84 1.84H4.58a1.848 1.848 0 01-1.84-1.84v-.92h1.83v.92h14.67V6.8l-6.36 6.36c-.26.26-.61.4-.97.4s-.71-.14-.97-.4L4.57 6.79v.54H2.74V5.5a1.848 1.848 0 011.84-1.84h14.67zM6.42 11.92c.23 0 .46.09.63.25.17.16.27.38.29.61.01.23-.06.46-.21.64s-.36.29-.59.32H1.85c-.23 0-.46-.09-.63-.25a.95.95 0 01-.29-.61c-.01-.23.06-.46.21-.64s.36-.29.59-.32h4.69zM5.5 9.17c.24 0 .48.1.65.27.17.17.27.41.27.65s-.1.48-.27.65c-.17.17-.41.27-.65.27H2.75c-.24 0-.48-.1-.65-.27-.17-.17-.27-.41-.27-.65s.1-.48.27-.65c.17-.17.41-.27.65-.27H5.5z"/></symbol><symbol id="menu-board-icon"><path d="M20.9 9.85l.59 9.89a.71.71 0 01-.18.53.69.69 0 01-.53.23h-2.73l2.16-10.65zM22 6a2.34 2.34 0 01-.06.74l-7.38 13.55A2.23 2.23 0 0112.38 22h8.4A2.21 2.21 0 0023 19.62zM11.45 2.24a.76.76 0 00-.55-.91.76.76 0 00-.91.55L9.49 4H11zM18.05 2.21a.75.75 0 10-1.47-.31L16.13 4h1.54z"/><path d="M21.82 5.33A2.21 2.21 0 0019.75 4h-2.08l-.56 2.59a.76.76 0 01-.73.59.44.44 0 01-.16 0 .77.77 0 01-.58-.89L16.13 4H11l-.63 2.6a.75.75 0 01-.73.57h-.18a.75.75 0 01-.55-.91l.54-2.25h-2a2.24 2.24 0 00-2.14 1.51L1.1 19.07A2.26 2.26 0 003.24 22h13.14a2.23 2.23 0 002.18-1.71l3.37-13.53A2.34 2.34 0 0022 6a2 2 0 00-.18-.67zM14.7 16.75h-8a.75.75 0 110-1.5h8a.75.75 0 010 1.5zm1-4h-8a.75.75 0 110-1.5h8a.75.75 0 010 1.5z"/></symbol><symbol id="menu-icon"><path d="M21 7.75H3a.75.75 0 010-1.5h18a.75.75 0 010 1.5zM21 12.75H3a.75.75 0 010-1.5h18a.75.75 0 010 1.5zM21 17.75H3a.75.75 0 010-1.5h18a.75.75 0 010 1.5z"/></symbol><symbol id="messages-icon" viewBox="0 0 24 24"><path d="M13.2 6H6.8a6.06 6.06 0 00-.75 0c-2.69.23-4 1.82-4 4.75v4c0 4 1.6 4.79 4.79 4.79h.4a.92.92 0 01.64.32L9 21.48a1.13 1.13 0 001.92 0l1.2-1.6a.81.81 0 01.64-.32h.4c2.93 0 4.52-1.34 4.75-4a6.06 6.06 0 000-.75v-4Q18 6 13.2 6zm-6.69 8a1 1 0 111-1 1 1 0 01-1 1zM10 14a1 1 0 111-1 1 1 0 01-1 1zm3.5 0a1 1 0 111-1 1 1 0 01-1 1z"/><path d="M17.2 2h-6.4c-2 0-3.35.62-4.1 1.86a.44.44 0 00.41.65h6.09c4 0 6.29 2.29 6.29 6.29v3.7a.44.44 0 00.65.41C21.38 14.16 22 12.8 22 10.8v-4Q22 2 17.2 2z"/></symbol><symbol id="messenger-icon" viewBox="0 0 32 32"><path d="M16.05 3c7.69 0 14 5.47 14 12.19A11.27 11.27 0 0126.8 23a4.9 4.9 0 001.32 4.65.82.82 0 01-.58 1.35 9.11 9.11 0 01-6.27-2.51 15.47 15.47 0 01-5.22.89c-7.68 0-14-5.47-14-12.19S8.37 3 16.05 3zm6.46 14.62a2.44 2.44 0 10-2.46-2.43 2.45 2.45 0 002.46 2.43zm-6.56 0a2.44 2.44 0 10-2.47-2.43A2.45 2.45 0 0016 17.62zm-6.57 0a2.44 2.44 0 10-2.46-2.43 2.45 2.45 0 002.46 2.43z"/></symbol><symbol id="mobile-icon"><path d="M16.5 2h-9a2.25 2.25 0 00-2.25 2.25v16.5A2.25 2.25 0 007.5 23h9a2.25 2.25 0 002.25-2.25V4.25A2.25 2.25 0 0016.5 2zm-9 1.5h9a.75.75 0 01.75.75V5H6.75v-.75a.75.75 0 01.75-.75zm9 18h-9a.75.75 0 01-.75-.75V20h10.5v.75a.75.75 0 01-.75.75z"/></symbol><symbol id="phone-icon"><path d="M20.81 15.35l-4.39-1.88a1.52 1.52 0 00-.73-.12 1.44 1.44 0 00-.69.25l-2.35 1.56a7.09 7.09 0 01-3.3-3.28L10.9 9.5a1.44 1.44 0 00.25-.69 1.52 1.52 0 00-.15-.73L9.15 3.69A1.47 1.47 0 008.51 3a1.5 1.5 0 00-.93-.19A5.26 5.26 0 003 8a13.52 13.52 0 0013.5 13.5 5.26 5.26 0 005.21-4.58 1.5 1.5 0 00-.19-.93 1.47 1.47 0 00-.71-.64z"/></symbol><symbol id="quotes-icon"><path d="M24 2.43q-4.84-.78-7.19 1.86t-2.35 7.76v9.69H24v-9.69h-4.91a5.67 5.67 0 01.7-4.17 3.74 3.74 0 013.65-1.39zm-14.46 0q-4.83-.78-7.19 1.86T0 12.05v9.69h9.54v-9.69H4.63a5.72 5.72 0 01.7-4.17A3.75 3.75 0 019 6.49z"/></symbol><symbol id="skype-icon" viewBox="0 0 24 24"><path d="M12 17.42c-2.95 0-4.3-1.53-4.3-2.64a1 1 0 01.3-.71.94.94 0 01.71-.26c1.26 0 .93 1.92 3.29 1.92 1.2 0 1.91-.74 1.91-1.43 0-.41-.24-.89-1-1.08l-2.63-.67c-2.1-.55-2.47-1.74-2.47-2.84 0-2.29 2.07-3.13 4-3.13 1.81 0 4 1 4 2.4a1 1 0 01-1.06.91c-1.08 0-.9-1.54-3.06-1.54-1.08 0-1.65.51-1.65 1.23s.84 1 1.58 1.12l1.94.45c2.12.48 2.69 1.75 2.69 3 0 1.87-1.42 3.31-4.23 3.31zm8.13-4A8.14 8.14 0 0020.3 12a8.48 8.48 0 00-2.95-6.47 8.22 8.22 0 00-6.79-1.86A4.89 4.89 0 008.11 3a5 5 0 00-4.27 2.52 5.11 5.11 0 000 5A8.48 8.48 0 006.11 18a8.22 8.22 0 007.33 2.36 4.88 4.88 0 006.72-1.86 5.11 5.11 0 00.01-5.03z"/></symbol><symbol id="telegram-icon" viewBox="0 0 24 24"><path d="M21.75 12A9.75 9.75 0 1112 2.25 9.76 9.76 0 0121.75 12zm-12.86-.9c-.92.42-1.87.84-2.73 1.34-.45.34.15.58.71.81l.26.11.21.06a2.36 2.36 0 001.94.09c1-.59 1.94-1.28 2.88-2l.93-.67c.27-.17.86-.57.64 0a22.79 22.79 0 01-1.63 1.63c-.38.36-.76.71-1.13 1.09s-.66.81-.3 1.19c.83.6 1.68 1.19 2.52 1.78l.82.57a.83.83 0 001.3-.52c0-.28.09-.56.13-.83.25-1.52.51-3.05.73-4.58 0-.24.06-.48.1-.72.08-.58.16-1.16.19-1.74s-.75-.46-1.13-.33c-2 .77-3.89 1.6-5.82 2.44z" fill-rule="evenodd"/></symbol><symbol id="viber-icon" viewBox="0 0 24 24"><path d="M11.49 1.5c-1.65 0-5.2.3-7.18 2.16-1.47 1.49-2 3.7-2 6.43S2.15 17.92 7 19.32v2.12s0 .84.52 1 1.06-.44 1.7-1.14l1.2-1.38a18.44 18.44 0 006.11-.46c.67-.22 4.44-.71 5.05-5.83.63-5.27-.31-8.6-2-10.1-.51-.48-2.57-2-7.16-2h-.89zm0 1.49h.76C16.18 3 18 4.21 18.48 4.61c1.43 1.26 2.16 4.25 1.62 8.66S16.54 17.81 16 18a16.76 16.76 0 01-5.27.45S8.62 21 8 21.69a.31.31 0 01-.3.13c-.11 0-.14-.16-.13-.36v-3.51c-4.09-1.16-3.85-5.52-3.81-7.79S4.21 6 5.46 4.75C7.13 3.21 10.14 3 11.54 3zm.31 2.27a.27.27 0 000 .53 4.71 4.71 0 013.5 1.39A5.12 5.12 0 0116.71 11a.26.26 0 00.25.26.26.26 0 00.26-.26 5.72 5.72 0 00-1.55-4.2 5.24 5.24 0 00-3.82-1.54zm-3.38.61a.82.82 0 00-.53.1 4.11 4.11 0 00-1 .82 1.63 1.63 0 00-.4.83 1.3 1.3 0 000 .48 11.89 11.89 0 001 2.27 13.3 13.3 0 002 2.78 13.16 13.16 0 002.72 2 12.21 12.21 0 002.23 1 1.4 1.4 0 00.34.05A1.58 1.58 0 0016 16a4 4 0 00.8-1 .77.77 0 00-.16-1 11.6 11.6 0 00-1.84-1.35.84.84 0 00-1.06.15l-.38.5a.68.68 0 01-.56.21 5.09 5.09 0 01-3.38-3.46.69.69 0 01.21-.57l.48-.4a.87.87 0 00.1-1.08A11.1 11.1 0 008.9 6.13a.76.76 0 00-.43-.27zm3.83.77a.27.27 0 000 .53 3.21 3.21 0 012.27 1 3.11 3.11 0 01.77 2.25.26.26 0 00.25.26.26.26 0 00.26-.26 3.59 3.59 0 00-3.53-3.8zm.42 1.42a.27.27 0 000 .54c.85 0 1.26.48 1.31 1.38a.26.26 0 00.26.25.25.25 0 00.24-.28 1.77 1.77 0 00-1.79-1.89z"/></symbol><symbol id="whatsapp-icon" viewBox="0 0 24 24"><path d="M18.39 5.58A9 9 0 004.26 16.41L3 21.06l4.76-1.25A9.05 9.05 0 0012 20.9a9 9 0 006.39-15.32zM12 19.39a7.42 7.42 0 01-3.79-1L8 18.18l-2.82.75.75-2.76-.17-.28a7.46 7.46 0 116.24 3.5zm4.09-5.59c-.22-.11-1.33-.66-1.53-.73s-.36-.11-.51.11-.58.73-.71.88-.26.17-.48.06A6.22 6.22 0 0111.09 13a7.29 7.29 0 01-1.25-1.55c-.13-.23 0-.35.1-.46a4.53 4.53 0 00.34-.39 1.45 1.45 0 00.22-.38.38.38 0 000-.39c-.05-.11-.5-1.22-.69-1.67s-.36-.37-.5-.38h-.45a.85.85 0 00-.6.28 2.52 2.52 0 00-.78 1.87 4.41 4.41 0 00.91 2.33 10 10 0 003.83 3.38c.54.23 1 .37 1.28.48a3.07 3.07 0 001.42.08 2.3 2.3 0 001.51-1.06 1.82 1.82 0 00.13-1.07c-.05-.07-.21-.16-.43-.27z" fill-rule="evenodd"/></symbol><symbol id="youtube-icon" viewBox="0 0 24 24"><path d="M21.59 7.2a2.5 2.5 0 00-1.76-1.76C18.27 5 12 5 12 5s-6.26 0-7.83.4A2.6 2.6 0 002.4 7.18 26.63 26.63 0 002 12a26.11 26.11 0 00.4 4.81 2.53 2.53 0 001.77 1.77C5.74 19 12 19 12 19s6.26 0 7.83-.4a2.52 2.52 0 001.76-1.76A26 26 0 0022 12a24.93 24.93 0 00-.41-4.8zM10 15V9l5.21 3z"/></symbol></svg>