<svg xmlns="http://www.w3.org/2000/svg" xmlns:xlink="http://www.w3.org/1999/xlink" style="display:none"><symbol id="arrow-down-icon"><path d="M8.58.74 5 4.32 1.42.74.24 1.92 5 6.68l4.76-4.76L8.58.74Z"/></symbol><symbol id="arrow-right-icon"><path d="M21 11.47 15 5.4a.75.75 0 1 0-1.1 1.06l4.79 4.79H3.5a.75.75 0 0 0 0 1.5h15.19l-4.79 4.79a.75.75 0 0 0 0 1.06.75.75 0 0 0 1.06 0L21 12.53a.75.75 0 0 0 0-1.06Z"/></symbol><symbol id="arrow-up-icon"><path d="m18.68 14-3.21-3.21-2-2a2.13 2.13 0 0 0-3 0L5.32 14a1.08 1.08 0 0 0 .76 1.84h11.84a1.08 1.08 0 0 0 .76-1.84Z"/></symbol><symbol id="clipboard-text-icon"><path d="M9.64 6.7h4.71a1.88 1.88 0 0 0 1.88-1.88v-.94A1.87 1.87 0 0 0 14.35 2h-4.7a1.89 1.89 0 0 0-1.89 1.88v.94A1.88 1.88 0 0 0 9.64 6.7Z"/><path d="M18.34 4.17a.75.75 0 0 0-1.1.65 2.9 2.9 0 0 1-2.89 2.89h-4.7a2.9 2.9 0 0 1-2.89-2.89.75.75 0 0 0-1.1-.65 4.47 4.47 0 0 0-2.37 3.95v9.41A4.48 4.48 0 0 0 7.76 22h8.48a4.48 4.48 0 0 0 4.47-4.47V8.12a4.47 4.47 0 0 0-2.37-3.95ZM12.38 17H8a.75.75 0 0 1 0-1.5h4.38a.75.75 0 0 1 0 1.5ZM15 13H8a.75.75 0 0 1 0-1.5h7a.75.75 0 0 1 0 1.5Z"/></symbol><symbol id="close-icon"><path d="m13.06 12 5.08-5.08a.75.75 0 0 0-1.06-1.06L12 10.94 6.92 5.86a.75.75 0 0 0-1.06 1.06L10.94 12l-5.08 5.08a.74.74 0 0 0 0 1.06.71.71 0 0 0 .53.22.74.74 0 0 0 .53-.22L12 13.06l5.08 5.08a.74.74 0 0 0 .53.22.73.73 0 0 0 .53-.22.74.74 0 0 0 0-1.06Z"/></symbol><symbol id="facebook-icon"><path d="M12 2a10 10 0 0 0-1.56 19.88v-7H7.9V12h2.54V9.8a3.53 3.53 0 0 1 3.78-3.89 15.68 15.68 0 0 1 2.23.19v2.46h-1.26a1.45 1.45 0 0 0-1.63 1.56V12h2.77l-.44 2.89h-2.33v7A10 10 0 0 0 12 2Z"/></symbol><symbol id="heart-icon"><path d="M10.55 20 12 21.35 13.45 20C18.62 15.34 22 12.27 22 8.5A5.45 5.45 0 0 0 16.5 3 6 6 0 0 0 12 5.09 6 6 0 0 0 7.5 3 5.45 5.45 0 0 0 2 8.5c0 3.78 3.39 6.85 8.54 11.5Zm7.56-7.36C19.46 11 20 9.73 20 8.5A3.44 3.44 0 0 0 16.5 5a4 4 0 0 0-3 1.39L12 8.17l-1.52-1.78A4 4 0 0 0 7.5 5 3.44 3.44 0 0 0 4 8.5a6.64 6.64 0 0 0 1.89 4.16 46.65 46.65 0 0 0 5 5l1.09 1 .85-.76a49.76 49.76 0 0 0 5.28-5.23Z" fill-rule="evenodd"/></symbol><symbol id="home-icon"><path d="m17.26 5.26-5.15-3.61a4.46 4.46 0 0 0-5 .12l-4.5 3.5A4.76 4.76 0 0 0 .92 8.63v6.18a4.26 4.26 0 0 0 4.25 4.26h9.65a4.26 4.26 0 0 0 4.26-4.25V8.75a4.69 4.69 0 0 0-1.82-3.49Zm.32 9.56a2.75 2.75 0 0 1-2.76 2.75H5.17a2.76 2.76 0 0 1-2.75-2.76V8.63a3.21 3.21 0 0 1 1.07-2.17L8 3a3 3 0 0 1 3.27-.08l5.13 3.57a3.18 3.18 0 0 1 1.18 2.26Z"/><path d="M10 11.74a.76.76 0 0 0-.75.75V15a.75.75 0 1 0 1.5 0v-2.5a.76.76 0 0 0-.75-.76Z"/></symbol><symbol id="instagram-icon"><path d="M21 8.3a6.47 6.47 0 0 0-.42-2.21 4.59 4.59 0 0 0-2.64-2.63A6.21 6.21 0 0 0 15.71 3H8.29a6.31 6.31 0 0 0-2.19.42 4.6 4.6 0 0 0-2.63 2.67 6.8 6.8 0 0 0-.42 2.18v7.42a6.81 6.81 0 0 0 .42 2.19 4.59 4.59 0 0 0 2.64 2.63 6.48 6.48 0 0 0 2.18.49H12c2.44 0 2.76 0 3.71-.06a6.31 6.31 0 0 0 2.19-.42 4.57 4.57 0 0 0 2.63-2.63 6.81 6.81 0 0 0 .47-2.17c0-1 .05-1.26.05-3.71S21 9.26 21 8.3Zm-9 8.3a4.62 4.62 0 1 1 4.62-4.6A4.62 4.62 0 0 1 12 16.6Zm4.8-8.34a1.08 1.08 0 1 1 1.08-1.08 1.08 1.08 0 0 1-1.08 1.08Z"/><path d="M12 15a3 3 0 1 0-3-3 3 3 0 0 0 3 3Z"/></symbol><symbol id="linkedin-icon"><path d="M20 3H4a1 1 0 0 0-1 1v16a1 1 0 0 0 1 1h16a1 1 0 0 0 1-1V4a1 1 0 0 0-1-1ZM8.34 18.34H5.67V9.75h2.67ZM7 8.57A1.55 1.55 0 1 1 8.55 7 1.55 1.55 0 0 1 7 8.57Zm11.34 9.77h-2.67v-4.18c0-1 0-2.28-1.39-2.28s-1.6 1.09-1.6 2.21v4.25H10V9.75h2.56v1.17a2.82 2.82 0 0 1 2.52-1.39c2.71 0 3.21 1.78 3.21 4.1v4.71Z"/></symbol><symbol id="menu-board-icon"><path d="m20.9 9.85.59 9.89a.71.71 0 0 1-.18.53.69.69 0 0 1-.53.23h-2.73l2.16-10.65ZM22 6a2.34 2.34 0 0 1-.06.74l-7.38 13.55A2.23 2.23 0 0 1 12.38 22h8.4A2.21 2.21 0 0 0 23 19.62ZM11.45 2.24a.76.76 0 0 0-.55-.91.76.76 0 0 0-.91.55L9.49 4H11ZM18.05 2.21a.75.75 0 1 0-1.47-.31L16.13 4h1.54Z"/><path d="M21.82 5.33A2.21 2.21 0 0 0 19.75 4h-2.08l-.56 2.59a.76.76 0 0 1-.73.59.44.44 0 0 1-.16 0 .77.77 0 0 1-.58-.89L16.13 4H11l-.63 2.6a.75.75 0 0 1-.73.57h-.18a.75.75 0 0 1-.55-.91l.54-2.25h-2a2.24 2.24 0 0 0-2.14 1.51L1.1 19.07A2.26 2.26 0 0 0 3.24 22h13.14a2.23 2.23 0 0 0 2.18-1.71l3.37-13.53A2.34 2.34 0 0 0 22 6a2 2 0 0 0-.18-.67ZM14.7 16.75h-8a.75.75 0 1 1 0-1.5h8a.75.75 0 0 1 0 1.5Zm1-4h-8a.75.75 0 1 1 0-1.5h8a.75.75 0 0 1 0 1.5Z"/></symbol><symbol id="menu-icon"><path d="M21 7.75H3a.75.75 0 0 1 0-1.5h18a.75.75 0 0 1 0 1.5ZM21 12.75H3a.75.75 0 0 1 0-1.5h18a.75.75 0 0 1 0 1.5ZM21 17.75H3a.75.75 0 0 1 0-1.5h18a.75.75 0 0 1 0 1.5Z"/></symbol><symbol id="messages-icon"><path d="M13.2 6H6.8a6.06 6.06 0 0 0-.75 0c-2.69.23-4 1.82-4 4.75v4c0 4 1.6 4.79 4.79 4.79h.4a.92.92 0 0 1 .64.32L9 21.48a1.13 1.13 0 0 0 1.92 0l1.2-1.6a.81.81 0 0 1 .64-.32h.4c2.93 0 4.52-1.34 4.75-4a6.06 6.06 0 0 0 0-.75v-4Q18 6 13.2 6Zm-6.69 8a1 1 0 1 1 1-1 1 1 0 0 1-1 1ZM10 14a1 1 0 1 1 1-1 1 1 0 0 1-1 1Zm3.5 0a1 1 0 1 1 1-1 1 1 0 0 1-1 1Z"/><path d="M17.2 2h-6.4c-2 0-3.35.62-4.1 1.86a.44.44 0 0 0 .41.65h6.09c4 0 6.29 2.29 6.29 6.29v3.7a.44.44 0 0 0 .65.41C21.38 14.16 22 12.8 22 10.8v-4Q22 2 17.2 2Z"/></symbol><symbol id="mobile-icon"><path d="M16.5 2h-9a2.25 2.25 0 0 0-2.25 2.25v16.5A2.25 2.25 0 0 0 7.5 23h9a2.25 2.25 0 0 0 2.25-2.25V4.25A2.25 2.25 0 0 0 16.5 2Zm-9 1.5h9a.75.75 0 0 1 .75.75V5H6.75v-.75a.75.75 0 0 1 .75-.75Zm9 18h-9a.75.75 0 0 1-.75-.75V20h10.5v.75a.75.75 0 0 1-.75.75Z"/></symbol><symbol id="phone-icon"><path d="m20.81 15.35-4.39-1.88a1.52 1.52 0 0 0-.73-.12 1.44 1.44 0 0 0-.69.25l-2.35 1.56a7.09 7.09 0 0 1-3.3-3.28L10.9 9.5a1.44 1.44 0 0 0 .25-.69 1.52 1.52 0 0 0-.15-.73L9.15 3.69A1.47 1.47 0 0 0 8.51 3a1.5 1.5 0 0 0-.93-.19A5.26 5.26 0 0 0 3 8a13.52 13.52 0 0 0 13.5 13.5 5.26 5.26 0 0 0 5.21-4.58 1.5 1.5 0 0 0-.19-.93 1.47 1.47 0 0 0-.71-.64Z"/></symbol><symbol id="quotes-icon"><path d="M24 2.43q-4.84-.78-7.19 1.86t-2.35 7.76v9.69H24v-9.69h-4.91a5.67 5.67 0 0 1 .7-4.17 3.74 3.74 0 0 1 3.65-1.39Zm-14.46 0q-4.83-.78-7.19 1.86T0 12.05v9.69h9.54v-9.69H4.63a5.72 5.72 0 0 1 .7-4.17A3.75 3.75 0 0 1 9 6.49Z"/></symbol><symbol id="skype-icon" viewBox="0 0 24 24"><path d="M12 17.42c-2.95 0-4.3-1.53-4.3-2.64a1 1 0 0 1 .3-.71.94.94 0 0 1 .71-.26c1.26 0 .93 1.92 3.29 1.92 1.2 0 1.91-.74 1.91-1.43 0-.41-.24-.89-1-1.08l-2.63-.67c-2.1-.55-2.47-1.74-2.47-2.84 0-2.29 2.07-3.13 4-3.13 1.81 0 4 1 4 2.4a1 1 0 0 1-1.06.91c-1.08 0-.9-1.54-3.06-1.54-1.08 0-1.65.51-1.65 1.23s.84 1 1.58 1.12l1.94.45c2.12.48 2.69 1.75 2.69 3 0 1.87-1.42 3.31-4.23 3.31Zm8.13-4A8.14 8.14 0 0 0 20.3 12a8.48 8.48 0 0 0-2.95-6.47 8.22 8.22 0 0 0-6.79-1.86A4.89 4.89 0 0 0 8.11 3a5 5 0 0 0-4.27 2.52 5.11 5.11 0 0 0 0 5A8.48 8.48 0 0 0 6.11 18a8.22 8.22 0 0 0 7.33 2.36 4.88 4.88 0 0 0 6.72-1.86 5.11 5.11 0 0 0 .01-5.03Z"/></symbol><symbol id="telegram-icon" viewBox="0 0 24 24"><path d="M21.75 12A9.75 9.75 0 1 1 12 2.25 9.76 9.76 0 0 1 21.75 12Zm-12.86-.9c-.92.42-1.87.84-2.73 1.34-.45.34.15.58.71.81l.26.11.21.06a2.36 2.36 0 0 0 1.94.09c1-.59 1.94-1.28 2.88-2l.93-.67c.27-.17.86-.57.64 0a22.79 22.79 0 0 1-1.63 1.63c-.38.36-.76.71-1.13 1.09s-.66.81-.3 1.19c.83.6 1.68 1.19 2.52 1.78l.82.57a.83.83 0 0 0 1.3-.52c0-.28.09-.56.13-.83.25-1.52.51-3.05.73-4.58 0-.24.06-.48.1-.72.08-.58.16-1.16.19-1.74s-.75-.46-1.13-.33c-2 .77-3.89 1.6-5.82 2.44Z" fill-rule="evenodd"/></symbol><symbol id="viber-icon" viewBox="0 0 24 24"><path d="M11.49 1.5c-1.65 0-5.2.3-7.18 2.16-1.47 1.49-2 3.7-2 6.43S2.15 17.92 7 19.32v2.12s0 .84.52 1 1.06-.44 1.7-1.14l1.2-1.38a18.44 18.44 0 0 0 6.11-.46c.67-.22 4.44-.71 5.05-5.83.63-5.27-.31-8.6-2-10.1-.51-.48-2.57-2-7.16-2h-.89Zm0 1.49h.76C16.18 3 18 4.21 18.48 4.61c1.43 1.26 2.16 4.25 1.62 8.66S16.54 17.81 16 18a16.76 16.76 0 0 1-5.27.45S8.62 21 8 21.69a.31.31 0 0 1-.3.13c-.11 0-.14-.16-.13-.36v-3.51c-4.09-1.16-3.85-5.52-3.81-7.79S4.21 6 5.46 4.75C7.13 3.21 10.14 3 11.54 3Zm.31 2.27a.27.27 0 0 0 0 .53 4.71 4.71 0 0 1 3.5 1.39A5.12 5.12 0 0 1 16.71 11a.26.26 0 0 0 .25.26.26.26 0 0 0 .26-.26 5.72 5.72 0 0 0-1.55-4.2 5.24 5.24 0 0 0-3.82-1.54Zm-3.38.61a.82.82 0 0 0-.53.1 4.11 4.11 0 0 0-1 .82 1.63 1.63 0 0 0-.4.83 1.3 1.3 0 0 0 0 .48 11.89 11.89 0 0 0 1 2.27 13.3 13.3 0 0 0 2 2.78 13.16 13.16 0 0 0 2.72 2 12.21 12.21 0 0 0 2.23 1 1.4 1.4 0 0 0 .34.05A1.58 1.58 0 0 0 16 16a4 4 0 0 0 .8-1 .77.77 0 0 0-.16-1 11.6 11.6 0 0 0-1.84-1.35.84.84 0 0 0-1.06.15l-.38.5a.68.68 0 0 1-.56.21 5.09 5.09 0 0 1-3.38-3.46.69.69 0 0 1 .21-.57l.48-.4a.87.87 0 0 0 .1-1.08A11.1 11.1 0 0 0 8.9 6.13a.76.76 0 0 0-.43-.27Zm3.83.77a.27.27 0 0 0 0 .53 3.21 3.21 0 0 1 2.27 1 3.11 3.11 0 0 1 .77 2.25.26.26 0 0 0 .25.26.26.26 0 0 0 .26-.26 3.59 3.59 0 0 0-3.53-3.8Zm.42 1.42a.27.27 0 0 0 0 .54c.85 0 1.26.48 1.31 1.38a.26.26 0 0 0 .26.25.25.25 0 0 0 .24-.28 1.77 1.77 0 0 0-1.79-1.89Z"/></symbol><symbol id="whatsapp-icon" viewBox="0 0 24 24"><path d="M18.39 5.58A9 9 0 0 0 4.26 16.41L3 21.06l4.76-1.25A9.05 9.05 0 0 0 12 20.9a9 9 0 0 0 6.39-15.32ZM12 19.39a7.42 7.42 0 0 1-3.79-1L8 18.18l-2.82.75.75-2.76-.17-.28a7.46 7.46 0 1 1 6.24 3.5Zm4.09-5.59c-.22-.11-1.33-.66-1.53-.73s-.36-.11-.51.11-.58.73-.71.88-.26.17-.48.06A6.22 6.22 0 0 1 11.09 13a7.29 7.29 0 0 1-1.25-1.55c-.13-.23 0-.35.1-.46a4.53 4.53 0 0 0 .34-.39 1.45 1.45 0 0 0 .22-.38.38.38 0 0 0 0-.39c-.05-.11-.5-1.22-.69-1.67s-.36-.37-.5-.38h-.45a.85.85 0 0 0-.6.28 2.52 2.52 0 0 0-.78 1.87 4.41 4.41 0 0 0 .91 2.33 10 10 0 0 0 3.83 3.38c.54.23 1 .37 1.28.48a3.07 3.07 0 0 0 1.42.08 2.3 2.3 0 0 0 1.51-1.06 1.82 1.82 0 0 0 .13-1.07c-.05-.07-.21-.16-.43-.27Z" fill-rule="evenodd"/></symbol><symbol id="youtube-icon"><path d="M21.59 7.2a2.5 2.5 0 0 0-1.76-1.76C18.27 5 12 5 12 5s-6.26 0-7.83.4A2.6 2.6 0 0 0 2.4 7.18 26.63 26.63 0 0 0 2 12a26.11 26.11 0 0 0 .4 4.81 2.53 2.53 0 0 0 1.77 1.77C5.74 19 12 19 12 19s6.26 0 7.83-.4a2.52 2.52 0 0 0 1.76-1.76A26 26 0 0 0 22 12a24.93 24.93 0 0 0-.41-4.8ZM10 15V9l5.21 3Z"/></symbol></svg>