<svg xmlns="http://www.w3.org/2000/svg" width="24" height="24" viewBox="0 0 24 24"><path d="m12,2c5.52,0,10,4.48,10,10s-4.48,10-10,10H4c-.53,0-1.04-.21-1.41-.59-.38-.38-.59-.88-.59-1.41v-8C2,6.48,6.48,2,12,2Zm0,12h-3c-.27,0-.52.11-.71.29-.19.19-.29.44-.29.71s.11.52.29.71c.19.19.44.29.71.29h3c.27,0,.52-.11.71-.29s.29-.44.29-.71-.11-.52-.29-.71-.44-.29-.71-.29Zm3-4h-6c-.25,0-.5.1-.69.27-.19.17-.3.41-.31.67-.01.25.07.51.23.7.16.2.4.32.65.35h.12s6,0,6,0c.25,0,.5-.1.69-.27.19-.17.3-.41.31-.67.01-.25-.07-.51-.23-.7-.16-.2-.4-.32-.65-.35h-.12Z"/></svg>