<svg xmlns="http://www.w3.org/2000/svg" width="24" height="24" viewBox="0 0 24 24"><path d="m5.57,3c-.8,0-1.56.32-2.12.88s-.88,1.33-.88,2.12v12c0,.8.32,1.56.88,2.12.56.56,1.33.88,2.12.88h12c.8,0,1.56-.32,2.12-.88.56-.56.88-1.33.88-2.12v-5c0-.27-.11-.52-.29-.71s-.44-.29-.71-.29-.52.11-.71.29-.29.44-.29.71v5c0,.27-.11.52-.29.71s-.44.29-.71.29H5.57c-.27,0-.52-.11-.71-.29-.19-.19-.29-.44-.29-.71V6c0-.27.11-.52.29-.71.19-.19.44-.29.71-.29h8c.27,0,.52-.11.71-.29.19-.19.29-.44.29-.71s-.11-.52-.29-.71c-.19-.19-.44-.29-.71-.29H5.57Zm15.36,3.05c.23-.13.4-.35.47-.6.07-.26.04-.53-.09-.76-.13-.23-.35-.4-.61-.47-.25-.07-.53-.04-.76.09-.35.2-.69.42-1.03.65-.85.57-1.67,1.19-2.46,1.85-1.64,1.37-3.61,3.29-5.24,5.72-.5-.67-1.09-1.27-1.75-1.78-.43-.33-.9-.66-1.41-.85-.25-.09-.53-.08-.77.03-.24.11-.43.31-.52.56-.09.25-.08.52.03.76.11.24.31.43.56.52.03,0,.37.15.88.54.58.45,1.38,1.24,2.15,2.56.09.15.22.28.37.36.15.09.33.13.5.13.18,0,.35-.05.5-.14.15-.09.28-.22.36-.37,1.58-2.79,3.79-5,5.61-6.52.91-.76,1.72-1.34,2.3-1.72.3-.2.6-.39.9-.57h0Z" fill="#e3373a" fill-rule="evenodd"/></svg>