<svg xmlns="http://www.w3.org/2000/svg" width="24" height="24" viewBox="0 0 24 24"><path d="M9.64,6.7h4.71a1.88,1.88,0,0,0,1.88-1.88V3.88A1.87,1.87,0,0,0,14.35,2H9.65A1.89,1.89,0,0,0,7.76,3.88v.94A1.88,1.88,0,0,0,9.64,6.7Z"/><path d="M18.34,4.17a.75.75,0,0,0-1.1.65,2.9,2.9,0,0,1-2.89,2.89H9.65A2.9,2.9,0,0,1,6.76,4.82a.75.75,0,0,0-1.1-.65A4.47,4.47,0,0,0,3.29,8.12v9.41A4.48,4.48,0,0,0,7.76,22h8.48a4.48,4.48,0,0,0,4.47-4.47V8.12A4.47,4.47,0,0,0,18.34,4.17ZM12.38,17H8a.75.75,0,0,1,0-1.5h4.38a.75.75,0,0,1,0,1.5ZM15,13H8a.75.75,0,0,1,0-1.5h7A.75.75,0,0,1,15,13Z"/></svg>