<svg xmlns="http://www.w3.org/2000/svg" width="24" height="24" viewBox="0 0 24 24"><path d="M10.55,20,12,21.35,13.45,20l0,0C18.62,15.34,22,12.27,22,8.5A5.45,5.45,0,0,0,16.5,3,6,6,0,0,0,12,5.09,6,6,0,0,0,7.5,3,5.45,5.45,0,0,0,2,8.5C2,12.28,5.39,15.35,10.54,20Zm7.56-7.36C19.46,11,20,9.73,20,8.5A3.44,3.44,0,0,0,16.5,5a4,4,0,0,0-3,1.39L12,8.17,10.48,6.39A4,4,0,0,0,7.5,5,3.44,3.44,0,0,0,4,8.5a6.64,6.64,0,0,0,1.89,4.16,46.65,46.65,0,0,0,5,5l1.09,1,.85-.76A49.76,49.76,0,0,0,18.11,12.67Z" fill-rule="evenodd"/></svg>