<svg xmlns="http://www.w3.org/2000/svg" width="20" height="20" viewBox="0 0 20 20"><path d="M17.26,5.26,12.11,1.65a4.46,4.46,0,0,0-5,.12h0l-4.5,3.5A4.76,4.76,0,0,0,.92,8.63v6.18a4.26,4.26,0,0,0,4.25,4.26h9.65a4.26,4.26,0,0,0,4.26-4.25V8.75A4.69,4.69,0,0,0,17.26,5.26Zm.32,9.56a2.75,2.75,0,0,1-2.76,2.75H5.17a2.76,2.76,0,0,1-2.75-2.76V8.63A3.21,3.21,0,0,1,3.49,6.46L8,3a3,3,0,0,1,3.27-.08L16.4,6.49a3.18,3.18,0,0,1,1.18,2.26Z"/><path d="M10,11.74a.76.76,0,0,0-.75.75V15a.75.75,0,1,0,1.5,0v-2.5A.76.76,0,0,0,10,11.74Z"/></svg>