<svg xmlns="http://www.w3.org/2000/svg" width="24" height="24" viewBox="0 0 24 24"><path d="M21,8.3a6.47,6.47,0,0,0-.42-2.21,4.59,4.59,0,0,0-2.64-2.63A6.21,6.21,0,0,0,15.71,3C14.75,3,14.44,3,12,3S9.24,3,8.29,3a6.31,6.31,0,0,0-2.19.42A4.6,4.6,0,0,0,3.47,6.09a6.8,6.8,0,0,0-.42,2.18c0,1,0,1.27,0,3.71s0,2.76,0,3.71a6.81,6.81,0,0,0,.42,2.19,4.59,4.59,0,0,0,2.64,2.63A6.48,6.48,0,0,0,8.29,21C9.25,21,9.56,21,12,21s2.76,0,3.71-.06a6.31,6.31,0,0,0,2.19-.42,4.57,4.57,0,0,0,2.63-2.63A6.81,6.81,0,0,0,21,15.72c0-1,.05-1.26.05-3.71S21,9.26,21,8.3Zm-9,8.3A4.62,4.62,0,1,1,16.62,12,4.62,4.62,0,0,1,12,16.6ZM16.8,8.26a1.08,1.08,0,1,1,1.08-1.08A1.08,1.08,0,0,1,16.8,8.26Z"/><path d="M12,15a3,3,0,1,0-3-3A3,3,0,0,0,12,15Z"/></svg>