<svg xmlns="http://www.w3.org/2000/svg" width="22" height="22" viewBox="0 0 22 22"><path d="m19.25,3.67c.49,0,.95.19,1.3.54.34.34.54.81.54,1.3v11c0,.49-.19.95-.54,1.3-.34.34-.81.54-1.3.54H4.58c-.49,0-.95-.19-1.3-.54-.34-.34-.54-.81-.54-1.3v-.92h1.83v.92h14.67V6.8l-6.36,6.36c-.26.26-.61.4-.97.4s-.71-.14-.97-.4l-6.37-6.37v.54h-1.83v-1.83c0-.49.19-.95.54-1.3.34-.34.81-.54,1.3-.54h14.67ZM6.42,11.92c.23,0,.46.09.63.25.17.16.27.38.29.61.01.23-.06.46-.21.64-.15.18-.36.29-.59.32h-.11s-4.58,0-4.58,0c-.23,0-.46-.09-.63-.25-.17-.16-.27-.38-.29-.61-.01-.23.06-.46.21-.64.15-.18.36-.29.59-.32h.11s4.58,0,4.58,0Zm-.92-2.75c.24,0,.48.1.65.27.17.17.27.41.27.65s-.1.48-.27.65c-.17.17-.41.27-.65.27h-2.75c-.24,0-.48-.1-.65-.27-.17-.17-.27-.41-.27-.65s.1-.48.27-.65c.17-.17.41-.27.65-.27h2.75Z"/></svg>