<svg xmlns="http://www.w3.org/2000/svg" width="24" height="24" viewBox="0 0 24 24"><path d="M20.9,9.85l.59,9.89a.71.71,0,0,1-.18.53.69.69,0,0,1-.53.23H18.05L20.21,9.85ZM22,6V6a2.34,2.34,0,0,1-.06.74L14.56,20.29A2.23,2.23,0,0,1,12.38,22h8.4A2.21,2.21,0,0,0,23,19.62Z"/><path d="M11.45,2.24a.76.76,0,0,0-.55-.91.76.76,0,0,0-.91.55L9.49,4H11Z"/><path d="M18.05,2.21a.75.75,0,1,0-1.47-.31L16.13,4h1.54Z"/><path d="M21.82,5.33A2.21,2.21,0,0,0,19.75,4H17.67l-.56,2.59a.76.76,0,0,1-.73.59.44.44,0,0,1-.16,0,.77.77,0,0,1-.58-.89L16.13,4H11l-.63,2.6a.75.75,0,0,1-.73.57l-.18,0a.75.75,0,0,1-.55-.91l.54-2.25h-2A2.24,2.24,0,0,0,5.31,5.52L1.1,19.07A2.26,2.26,0,0,0,3.24,22H16.38a2.23,2.23,0,0,0,2.18-1.71L21.93,6.76A2.34,2.34,0,0,0,22,6,2,2,0,0,0,21.82,5.33ZM14.7,16.75h-8a.75.75,0,1,1,0-1.5h8a.75.75,0,0,1,0,1.5Zm1-4h-8a.75.75,0,1,1,0-1.5h8a.75.75,0,0,1,0,1.5Z"/></svg>