<svg xmlns="http://www.w3.org/2000/svg" viewBox="0 0 24 24"><path d="M13.2,6H6.8a6.06,6.06,0,0,0-.75,0c-2.69.23-4,1.82-4,4.75v4c0,4,1.6,4.79,4.79,4.79h.4a.92.92,0,0,1,.64.32L9,21.48a1.13,1.13,0,0,0,1.92,0l1.2-1.6a.81.81,0,0,1,.64-.32h.4c2.93,0,4.52-1.34,4.75-4a6.06,6.06,0,0,0,0-.75v-4Q18,6,13.2,6ZM6.51,14a1,1,0,1,1,1-1A1,1,0,0,1,6.51,14ZM10,14a1,1,0,1,1,1-1A1,1,0,0,1,10,14Zm3.5,0a1,1,0,1,1,1-1A1,1,0,0,1,13.5,14Z"/><path d="M17.2,2H10.8c-2,0-3.35.62-4.1,1.86a.44.44,0,0,0,.41.65H13.2c4,0,6.29,2.29,6.29,6.29v3.7a.44.44,0,0,0,.65.41c1.24-.75,1.86-2.11,1.86-4.11v-4Q22,2,17.2,2Z"/></svg>
