<svg xmlns="http://www.w3.org/2000/svg" viewBox="0 0 24 24"><path d="M12,17.42c-2.95,0-4.3-1.53-4.3-2.64a1,1,0,0,1,.3-.71.94.94,0,0,1,.71-.26c1.26,0,.93,1.92,3.29,1.92,1.2,0,1.91-.74,1.91-1.43,0-.41-.24-.89-1-1.08l-2.63-.67C8.18,12,7.81,10.81,7.81,9.71c0-2.29,2.07-3.13,4-3.13,1.81,0,4,1,4,2.4a1,1,0,0,1-1.06.91c-1.08,0-.9-1.54-3.06-1.54-1.08,0-1.65.51-1.65,1.23s.84,1,1.58,1.12l1.94.45c2.12.48,2.69,1.75,2.69,3,0,1.87-1.42,3.31-4.23,3.31Zm8.13-4A8.14,8.14,0,0,0,20.3,12a8.48,8.48,0,0,0-2.95-6.47,8.22,8.22,0,0,0-6.79-1.86A4.89,4.89,0,0,0,8.11,3,5,5,0,0,0,3.84,5.52a5.11,5.11,0,0,0,0,5A8.48,8.48,0,0,0,6.11,18a8.22,8.22,0,0,0,7.33,2.36,4.88,4.88,0,0,0,6.72-1.86A5.11,5.11,0,0,0,20.17,13.47Z"/></svg>
