<svg xmlns="http://www.w3.org/2000/svg" viewBox="0 0 24 24"><path d="M21.75,12A9.75,9.75,0,1,1,12,2.25,9.76,9.76,0,0,1,21.75,12ZM8.89,11.1c-.92.42-1.87.84-2.73,1.34-.45.34.15.58.71.81l.26.11.21.06a2.36,2.36,0,0,0,1.94.09c1-.59,1.94-1.28,2.88-2l.93-.67,0,0c.27-.17.86-.57.64,0a22.79,22.79,0,0,1-1.63,1.63c-.38.36-.76.71-1.13,1.09s-.66.81-.3,1.19c.83.6,1.68,1.19,2.52,1.78l.82.57a.83.83,0,0,0,1.3-.52c0-.28.09-.56.13-.83.25-1.52.51-3.05.73-4.58,0-.24.06-.48.1-.72.08-.58.16-1.16.19-1.74s-.75-.46-1.13-.33c-2,.77-3.89,1.6-5.82,2.44Z" fill-rule="evenodd"/></svg>
