<svg xmlns="http://www.w3.org/2000/svg" viewBox="0 0 24 24"><path d="M11.49,1.5c-1.65,0-5.2.3-7.18,2.16-1.47,1.49-2,3.7-2,6.43S2.15,17.92,7,19.32v2.12s0,.84.52,1,1.06-.44,1.7-1.14l1.2-1.38a18.44,18.44,0,0,0,6.11-.46c.67-.22,4.44-.71,5.05-5.83.63-5.27-.31-8.6-2-10.1h0c-.51-.48-2.57-2-7.16-2,0,0-.34,0-.89,0Zm0,1.49c.47,0,.76,0,.76,0C16.18,3,18,4.21,18.48,4.61c1.43,1.26,2.16,4.25,1.62,8.66S16.54,17.81,16,18a16.76,16.76,0,0,1-5.27.45S8.62,21,8,21.69a.31.31,0,0,1-.3.13c-.11,0-.14-.16-.13-.36l0-3.51c-4.09-1.16-3.85-5.52-3.81-7.79S4.21,6,5.46,4.75C7.13,3.21,10.14,3,11.54,3Zm.31,2.27a.27.27,0,0,0,0,.53A4.71,4.71,0,0,1,15.3,7.18,5.12,5.12,0,0,1,16.71,11a.26.26,0,0,0,.25.26h0a.26.26,0,0,0,.26-.26A5.72,5.72,0,0,0,15.67,6.8a5.24,5.24,0,0,0-3.82-1.54Zm-3.38.61a.82.82,0,0,0-.53.1h0a4.11,4.11,0,0,0-1,.82,1.63,1.63,0,0,0-.4.83,1.3,1.3,0,0,0,0,.48h0a11.89,11.89,0,0,0,1,2.27,13.3,13.3,0,0,0,2,2.78l0,0,0,0,0,0,0,0a13.16,13.16,0,0,0,2.72,2,12.21,12.21,0,0,0,2.23,1h0a1.4,1.4,0,0,0,.34.05A1.58,1.58,0,0,0,16,16a4,4,0,0,0,.8-1h0a.77.77,0,0,0-.16-1,11.6,11.6,0,0,0-1.84-1.35.84.84,0,0,0-1.06.15l-.38.5a.68.68,0,0,1-.56.21h0a5.09,5.09,0,0,1-3.38-3.46.69.69,0,0,1,.21-.57l.48-.4A.87.87,0,0,0,10.21,8,11.1,11.1,0,0,0,8.9,6.13a.76.76,0,0,0-.43-.27Zm3.83.77a.27.27,0,0,0,0,.53,3.21,3.21,0,0,1,2.27,1,3.11,3.11,0,0,1,.77,2.25.26.26,0,0,0,.25.26h0a.26.26,0,0,0,.26-.26,3.59,3.59,0,0,0-3.53-3.8Zm.42,1.42a.27.27,0,0,0,0,.54c.85,0,1.26.48,1.31,1.38a.26.26,0,0,0,.26.25h0a.25.25,0,0,0,.24-.28,1.77,1.77,0,0,0-1.79-1.89Z"/></svg>
