<svg xmlns="http://www.w3.org/2000/svg" viewBox="0 0 24 24"><path d="M18.39,5.58A9,9,0,0,0,4.26,16.41L3,21.06l4.76-1.25A9.05,9.05,0,0,0,12,20.9h0A9,9,0,0,0,18.39,5.58ZM12,19.39h0a7.42,7.42,0,0,1-3.79-1L8,18.18l-2.82.75.75-2.76-.17-.28A7.46,7.46,0,1,1,12,19.39Zm4.09-5.59c-.22-.11-1.33-.66-1.53-.73s-.36-.11-.51.11-.58.73-.71.88-.26.17-.48.06A6.22,6.22,0,0,1,11.09,13a7.29,7.29,0,0,1-1.25-1.55c-.13-.23,0-.35.1-.46a4.53,4.53,0,0,0,.34-.39,1.45,1.45,0,0,0,.22-.38.38.38,0,0,0,0-.39c-.05-.11-.5-1.22-.69-1.67s-.36-.37-.5-.38H8.86a.85.85,0,0,0-.6.28,2.52,2.52,0,0,0-.78,1.87,4.41,4.41,0,0,0,.91,2.33,10,10,0,0,0,3.83,3.38c.54.23,1,.37,1.28.48a3.07,3.07,0,0,0,1.42.08,2.3,2.3,0,0,0,1.51-1.06,1.82,1.82,0,0,0,.13-1.07C16.51,14,16.35,13.91,16.13,13.8Z" fill-rule="evenodd"/></svg>
